<ttFont>
    <TTGlyph name=".notdef" xMin="50" yMin="0" xMax="700" yMax="700">
      <contour>
        <pt x="50" y="700" on="1"/>
        <pt x="700" y="700" on="1"/>
        <pt x="700" y="0" on="1"/>
        <pt x="50" y="0" on="1"/>
      </contour>
      <contour>
        <pt x="570" y="650" on="1"/>
        <pt x="375" y="433" on="1"/>
        <pt x="180" y="650" on="1"/>
        <pt x="130" y="600" on="1"/>
        <pt x="327" y="380" on="1"/>
        <pt x="130" y="160" on="1"/>
        <pt x="180" y="110" on="1"/>
        <pt x="375" y="327" on="1"/>
        <pt x="570" y="110" on="1"/>
        <pt x="620" y="160" on="1"/>
        <pt x="422" y="380" on="1"/>
        <pt x="620" y="600" on="1"/>
      </contour>
      <contour>
        <pt x="162" y="68" on="1"/>
        <pt x="127" y="68" on="1"/>
        <pt x="127" y="61" on="1"/>
        <pt x="140" y="61" on="1"/>
        <pt x="140" y="26" on="1"/>
        <pt x="149" y="26" on="1"/>
        <pt x="149" y="61" on="1"/>
        <pt x="162" y="61" on="1"/>
      </contour>
      <contour>
        <pt x="271" y="58" on="1"/>
        <pt x="269" y="58" on="1"/>
        <pt x="268" y="58" on="0"/>
        <pt x="267" y="59" on="1"/>
        <pt x="263" y="59" on="0"/>
        <pt x="258" y="54" on="1"/>
        <pt x="258" y="58" on="1"/>
        <pt x="251" y="58" on="1"/>
        <pt x="251" y="26" on="1"/>
        <pt x="259" y="26" on="1"/>
        <pt x="259" y="46" on="1"/>
        <pt x="262" y="51" on="0"/>
        <pt x="266" y="51" on="1"/>
        <pt x="268" y="51" on="0"/>
        <pt x="270" y="50" on="1"/>
      </contour>
      <contour>
        <pt x="276" y="65" on="1"/>
        <pt x="276" y="60" on="0"/>
        <pt x="280" y="60" on="1"/>
        <pt x="285" y="60" on="0"/>
        <pt x="285" y="64" on="1"/>
        <pt x="285" y="69" on="0"/>
        <pt x="280" y="69" on="1"/>
        <pt x="276" y="69" on="0"/>
      </contour>
      <contour>
        <pt x="276" y="26" on="1"/>
        <pt x="285" y="26" on="1"/>
        <pt x="285" y="58" on="1"/>
        <pt x="276" y="58" on="1"/>
      </contour>
      <contour>
        <pt x="291" y="51" on="1"/>
        <pt x="296" y="51" on="1"/>
        <pt x="296" y="26" on="1"/>
        <pt x="304" y="26" on="1"/>
        <pt x="304" y="51" on="1"/>
        <pt x="312" y="51" on="1"/>
        <pt x="312" y="58" on="1"/>
        <pt x="304" y="58" on="1"/>
        <pt x="304" y="60" on="0"/>
        <pt x="305" y="61" on="1"/>
        <pt x="306" y="62" on="0"/>
        <pt x="308" y="62" on="1"/>
        <pt x="311" y="62" on="1"/>
        <pt x="314" y="62" on="1"/>
        <pt x="315" y="68" on="1"/>
        <pt x="315" y="69" on="0"/>
        <pt x="311" y="69" on="1"/>
        <pt x="306" y="69" on="1"/>
        <pt x="302" y="69" on="1"/>
        <pt x="301" y="69" on="0"/>
        <pt x="297" y="66" on="0"/>
        <pt x="297" y="65" on="1"/>
        <pt x="296" y="63" on="0"/>
        <pt x="296" y="60" on="1"/>
        <pt x="296" y="58" on="1"/>
        <pt x="291" y="58" on="1"/>
      </contour>
      <contour>
        <pt x="331" y="45" on="1"/>
        <pt x="331" y="20" on="0"/>
        <pt x="354" y="20" on="1"/>
        <pt x="365" y="20" on="0"/>
        <pt x="378" y="32" on="0"/>
        <pt x="378" y="45" on="1"/>
        <pt x="378" y="68" on="0"/>
        <pt x="354" y="68" on="1"/>
        <pt x="344" y="68" on="0"/>
        <pt x="331" y="56" on="0"/>
      </contour>
      <contour>
        <pt x="338" y="45" on="1"/>
        <pt x="338" y="62" on="0"/>
        <pt x="354" y="62" on="1"/>
        <pt x="371" y="62" on="0"/>
        <pt x="371" y="45" on="1"/>
        <pt x="371" y="27" on="0"/>
        <pt x="354" y="27" on="1"/>
        <pt x="338" y="27" on="0"/>
      </contour>
      <contour>
        <pt x="361" y="40" on="1"/>
        <pt x="359" y="39" on="0"/>
        <pt x="357" y="39" on="1"/>
        <pt x="352" y="39" on="0"/>
        <pt x="352" y="45" on="1"/>
        <pt x="352" y="49" on="0"/>
        <pt x="357" y="49" on="1"/>
        <pt x="360" y="49" on="1"/>
        <pt x="363" y="54" on="1"/>
        <pt x="359" y="56" on="0"/>
        <pt x="354" y="56" on="1"/>
        <pt x="344" y="56" on="0"/>
        <pt x="344" y="45" on="1"/>
        <pt x="344" y="32" on="0"/>
        <pt x="354" y="32" on="1"/>
        <pt x="359" y="32" on="0"/>
        <pt x="363" y="34" on="1"/>
      </contour>
      <contour>
        <pt x="402" y="27" on="1"/>
        <pt x="411" y="27" on="1"/>
        <pt x="411" y="41" on="1"/>
        <pt x="416" y="41" on="1"/>
        <pt x="423" y="41" on="0"/>
        <pt x="434" y="47" on="0"/>
        <pt x="434" y="55" on="1"/>
        <pt x="434" y="65" on="0"/>
        <pt x="422" y="69" on="0"/>
        <pt x="415" y="69" on="1"/>
        <pt x="402" y="69" on="1"/>
      </contour>
      <contour>
        <pt x="416" y="62" on="1"/>
        <pt x="425" y="62" on="0"/>
        <pt x="425" y="56" on="1"/>
        <pt x="425" y="50" on="0"/>
        <pt x="420" y="49" on="0"/>
        <pt x="415" y="49" on="1"/>
        <pt x="411" y="49" on="1"/>
        <pt x="411" y="62" on="1"/>
      </contour>
      <contour>
        <pt x="440" y="51" on="1"/>
        <pt x="443" y="52" on="0"/>
        <pt x="448" y="53" on="0"/>
        <pt x="451" y="53" on="1"/>
        <pt x="456" y="53" on="0"/>
        <pt x="456" y="48" on="1"/>
        <pt x="456" y="46" on="1"/>
        <pt x="455" y="46" on="0"/>
        <pt x="453" y="47" on="0"/>
        <pt x="451" y="47" on="1"/>
        <pt x="436" y="47" on="0"/>
        <pt x="436" y="35" on="1"/>
        <pt x="436" y="26" on="0"/>
        <pt x="446" y="26" on="1"/>
        <pt x="453" y="26" on="0"/>
        <pt x="456" y="32" on="1"/>
        <pt x="459" y="27" on="1"/>
        <pt x="466" y="27" on="1"/>
        <pt x="465" y="28" on="0"/>
        <pt x="465" y="35" on="1"/>
        <pt x="465" y="48" on="1"/>
        <pt x="465" y="60" on="0"/>
        <pt x="453" y="60" on="1"/>
        <pt x="448" y="60" on="0"/>
        <pt x="440" y="57" on="0"/>
        <pt x="438" y="56" on="1"/>
      </contour>
      <contour>
        <pt x="450" y="33" on="1"/>
        <pt x="445" y="33" on="0"/>
        <pt x="445" y="38" on="1"/>
        <pt x="445" y="42" on="0"/>
        <pt x="451" y="42" on="1"/>
        <pt x="453" y="42" on="0"/>
        <pt x="455" y="41" on="0"/>
        <pt x="456" y="41" on="1"/>
        <pt x="456" y="38" on="1"/>
        <pt x="455" y="33" on="0"/>
      </contour>
      <contour>
        <pt x="494" y="59" on="1"/>
        <pt x="492" y="60" on="0"/>
        <pt x="489" y="60" on="1"/>
        <pt x="484" y="60" on="0"/>
        <pt x="482" y="54" on="1"/>
        <pt x="481" y="54" on="1"/>
        <pt x="480" y="59" on="1"/>
        <pt x="473" y="59" on="1"/>
        <pt x="473" y="27" on="1"/>
        <pt x="482" y="27" on="1"/>
        <pt x="482" y="47" on="1"/>
        <pt x="482" y="52" on="0"/>
        <pt x="489" y="52" on="1"/>
        <pt x="490" y="52" on="0"/>
        <pt x="490" y="51" on="0"/>
        <pt x="491" y="51" on="1"/>
        <pt x="492" y="51" on="1"/>
      </contour>
      <contour>
        <pt x="499" y="51" on="1"/>
        <pt x="509" y="53" on="0"/>
        <pt x="510" y="53" on="1"/>
        <pt x="516" y="53" on="0"/>
        <pt x="516" y="48" on="1"/>
        <pt x="516" y="46" on="1"/>
        <pt x="514" y="46" on="0"/>
        <pt x="512" y="47" on="0"/>
        <pt x="510" y="47" on="1"/>
        <pt x="495" y="47" on="0"/>
        <pt x="495" y="35" on="1"/>
        <pt x="495" y="26" on="0"/>
        <pt x="505" y="26" on="1"/>
        <pt x="513" y="26" on="0"/>
        <pt x="516" y="32" on="1"/>
        <pt x="517" y="32" on="1"/>
        <pt x="518" y="27" on="1"/>
        <pt x="525" y="27" on="1"/>
        <pt x="524" y="28" on="0"/>
        <pt x="524" y="35" on="1"/>
        <pt x="524" y="48" on="1"/>
        <pt x="524" y="60" on="0"/>
        <pt x="512" y="60" on="1"/>
        <pt x="507" y="60" on="0"/>
        <pt x="501" y="57" on="0"/>
        <pt x="498" y="56" on="1"/>
      </contour>
      <contour>
        <pt x="509" y="33" on="1"/>
        <pt x="504" y="33" on="0"/>
        <pt x="504" y="38" on="1"/>
        <pt x="504" y="42" on="0"/>
        <pt x="510" y="42" on="1"/>
        <pt x="512" y="42" on="0"/>
        <pt x="514" y="41" on="0"/>
        <pt x="516" y="41" on="1"/>
        <pt x="516" y="38" on="1"/>
        <pt x="513" y="33" on="0"/>
      </contour>
      <contour>
        <pt x="557" y="69" on="1"/>
        <pt x="521" y="69" on="1"/>
        <pt x="521" y="62" on="1"/>
        <pt x="535" y="62" on="1"/>
        <pt x="535" y="27" on="1"/>
        <pt x="543" y="27" on="1"/>
        <pt x="543" y="62" on="1"/>
        <pt x="557" y="62" on="1"/>
      </contour>
      <contour>
        <pt x="567" y="59" on="1"/>
        <pt x="557" y="59" on="1"/>
        <pt x="571" y="27" on="1"/>
        <pt x="569" y="22" on="0"/>
        <pt x="566" y="22" on="1"/>
        <pt x="564" y="23" on="1"/>
        <pt x="562" y="16" on="1"/>
        <pt x="563" y="15" on="0"/>
        <pt x="568" y="15" on="1"/>
        <pt x="575" y="15" on="0"/>
        <pt x="579" y="30" on="1"/>
        <pt x="591" y="59" on="1"/>
        <pt x="582" y="59" on="1"/>
        <pt x="576" y="41" on="1"/>
        <pt x="576" y="35" on="1"/>
        <pt x="575" y="35" on="1"/>
        <pt x="574" y="41" on="1"/>
      </contour>
      <contour>
        <pt x="595" y="15" on="1"/>
        <pt x="604" y="15" on="1"/>
        <pt x="604" y="28" on="1"/>
        <pt x="606" y="26" on="0"/>
        <pt x="610" y="26" on="1"/>
        <pt x="626" y="26" on="0"/>
        <pt x="626" y="44" on="1"/>
        <pt x="626" y="60" on="0"/>
        <pt x="613" y="60" on="1"/>
        <pt x="607" y="60" on="0"/>
        <pt x="603" y="55" on="1"/>
        <pt x="601" y="55" on="1"/>
        <pt x="600" y="59" on="1"/>
        <pt x="595" y="59" on="1"/>
      </contour>
      <contour>
        <pt x="611" y="53" on="1"/>
        <pt x="617" y="53" on="0"/>
        <pt x="617" y="44" on="1"/>
        <pt x="617" y="33" on="0"/>
        <pt x="608" y="33" on="1"/>
        <pt x="606" y="33" on="0"/>
        <pt x="604" y="35" on="1"/>
        <pt x="604" y="47" on="1"/>
        <pt x="604" y="53" on="0"/>
      </contour>
      <contour>
        <pt x="656" y="35" on="1"/>
        <pt x="654" y="33" on="0"/>
        <pt x="648" y="33" on="1"/>
        <pt x="640" y="33" on="0"/>
        <pt x="640" y="40" on="1"/>
        <pt x="661" y="40" on="1"/>
        <pt x="661" y="47" on="1"/>
        <pt x="661" y="60" on="0"/>
        <pt x="647" y="60" on="1"/>
        <pt x="631" y="60" on="0"/>
        <pt x="631" y="42" on="1"/>
        <pt x="631" y="26" on="0"/>
        <pt x="647" y="26" on="1"/>
        <pt x="655" y="26" on="0"/>
        <pt x="659" y="30" on="1"/>
      </contour>
      <contour>
        <pt x="647" y="53" on="1"/>
        <pt x="654" y="53" on="0"/>
        <pt x="653" y="46" on="1"/>
        <pt x="640" y="46" on="1"/>
        <pt x="640" y="53" on="0"/>
      </contour>
      <contour>
        <pt x="92" y="27" on="1"/>
        <pt x="101" y="27" on="1"/>
        <pt x="101" y="41" on="1"/>
        <pt x="106" y="41" on="1"/>
        <pt x="113" y="41" on="0"/>
        <pt x="124" y="47" on="0"/>
        <pt x="124" y="55" on="1"/>
        <pt x="124" y="65" on="0"/>
        <pt x="112" y="69" on="0"/>
        <pt x="105" y="69" on="1"/>
        <pt x="92" y="69" on="1"/>
      </contour>
      <contour>
        <pt x="106" y="62" on="1"/>
        <pt x="115" y="62" on="0"/>
        <pt x="115" y="56" on="1"/>
        <pt x="115" y="50" on="0"/>
        <pt x="110" y="49" on="0"/>
        <pt x="105" y="49" on="1"/>
        <pt x="101" y="49" on="1"/>
        <pt x="101" y="62" on="1"/>
      </contour>
      <contour>
        <pt x="200" y="38" on="1"/>
        <pt x="200" y="33" on="0"/>
        <pt x="192" y="33" on="1"/>
        <pt x="189" y="33" on="0"/>
        <pt x="185" y="34" on="0"/>
        <pt x="181" y="36" on="1"/>
        <pt x="178" y="27" on="1"/>
        <pt x="182" y="26" on="0"/>
        <pt x="188" y="25" on="0"/>
        <pt x="193" y="25" on="1"/>
        <pt x="209" y="25" on="0"/>
        <pt x="209" y="39" on="1"/>
        <pt x="209" y="44" on="0"/>
        <pt x="202" y="49" on="0"/>
        <pt x="195" y="52" on="0"/>
        <pt x="188" y="55" on="0"/>
        <pt x="188" y="58" on="1"/>
        <pt x="188" y="61" on="0"/>
        <pt x="195" y="61" on="1"/>
        <pt x="198" y="61" on="0"/>
        <pt x="203" y="60" on="0"/>
        <pt x="206" y="59" on="1"/>
        <pt x="208" y="67" on="1"/>
        <pt x="204" y="68" on="0"/>
        <pt x="198" y="69" on="0"/>
        <pt x="195" y="69" on="1"/>
        <pt x="179" y="69" on="0"/>
        <pt x="179" y="56" on="1"/>
        <pt x="179" y="51" on="0"/>
        <pt x="186" y="46" on="0"/>
        <pt x="193" y="43" on="0"/>
        <pt x="200" y="40" on="0"/>
      </contour>
      <contour>
        <pt x="239" y="34" on="1"/>
        <pt x="237" y="32" on="0"/>
        <pt x="231" y="32" on="1"/>
        <pt x="223" y="32" on="0"/>
        <pt x="223" y="39" on="1"/>
        <pt x="244" y="39" on="1"/>
        <pt x="244" y="46" on="1"/>
        <pt x="244" y="59" on="0"/>
        <pt x="230" y="59" on="1"/>
        <pt x="214" y="59" on="0"/>
        <pt x="214" y="41" on="1"/>
        <pt x="214" y="25" on="0"/>
        <pt x="230" y="25" on="1"/>
        <pt x="238" y="25" on="0"/>
        <pt x="242" y="29" on="1"/>
      </contour>
      <contour>
        <pt x="230" y="52" on="1"/>
        <pt x="237" y="52" on="0"/>
        <pt x="236" y="45" on="1"/>
        <pt x="223" y="45" on="1"/>
        <pt x="223" y="52" on="0"/>
      </contour>
    </TTGlyph>
    <TTGlyph name="A" xMin="0" yMin="0" xMax="729" yMax="712">
      <contour>
        <pt x="247" y="0" on="1"/>
        <pt x="0" y="0" on="1"/>
        <pt x="0" y="38" on="1"/>
        <pt x="16" y="48" on="0"/>
        <pt x="53" y="63" on="0"/>
        <pt x="71" y="67" on="1"/>
        <pt x="329" y="712" on="1"/>
        <pt x="403" y="712" on="1"/>
        <pt x="654" y="67" on="1"/>
        <pt x="674" y="63" on="0"/>
        <pt x="714" y="48" on="0"/>
        <pt x="729" y="38" on="1"/>
        <pt x="729" y="0" on="1"/>
        <pt x="416" y="0" on="1"/>
        <pt x="416" y="38" on="1"/>
        <pt x="435" y="47" on="0"/>
        <pt x="479" y="63" on="0"/>
        <pt x="499" y="67" on="1"/>
        <pt x="441" y="226" on="1"/>
        <pt x="219" y="226" on="1"/>
        <pt x="160" y="67" on="1"/>
        <pt x="206" y="61" on="0"/>
        <pt x="247" y="38" on="1"/>
      </contour>
      <contour>
        <pt x="243" y="291" on="1"/>
        <pt x="420" y="291" on="1"/>
        <pt x="355" y="482" on="1"/>
        <pt x="336" y="568" on="1"/>
        <pt x="334" y="568" on="1"/>
        <pt x="312" y="480" on="1"/>
      </contour>
    </TTGlyph>
    <TTGlyph name="AE" xMin="5" yMin="0" xMax="916" yMax="700">
      <contour>
        <pt x="901" y="700" on="1"/>
        <pt x="899" y="655" on="0"/>
        <pt x="889" y="559" on="0"/>
        <pt x="881" y="517" on="1"/>
        <pt x="839" y="517" on="1"/>
        <pt x="793" y="635" on="1"/>
        <pt x="606" y="635" on="1"/>
        <pt x="606" y="390" on="1"/>
        <pt x="729" y="390" on="1"/>
        <pt x="773" y="467" on="1"/>
        <pt x="804" y="467" on="1"/>
        <pt x="809" y="418" on="0"/>
        <pt x="809" y="298" on="0"/>
        <pt x="804" y="246" on="1"/>
        <pt x="773" y="246" on="1"/>
        <pt x="729" y="325" on="1"/>
        <pt x="606" y="325" on="1"/>
        <pt x="606" y="65" on="1"/>
        <pt x="801" y="65" on="1"/>
        <pt x="854" y="192" on="1"/>
        <pt x="896" y="192" on="1"/>
        <pt x="900" y="173" on="0"/>
        <pt x="907" y="125" on="0"/>
        <pt x="913" y="74" on="0"/>
        <pt x="916" y="22" on="0"/>
        <pt x="916" y="0" on="1"/>
        <pt x="379" y="0" on="1"/>
        <pt x="379" y="38" on="1"/>
        <pt x="395" y="46" on="0"/>
        <pt x="435" y="62" on="0"/>
        <pt x="456" y="67" on="1"/>
        <pt x="458" y="244" on="1"/>
        <pt x="273" y="244" on="1"/>
        <pt x="170" y="67" on="1"/>
        <pt x="211" y="59" on="0"/>
        <pt x="247" y="38" on="1"/>
        <pt x="247" y="0" on="1"/>
        <pt x="5" y="0" on="1"/>
        <pt x="5" y="38" on="1"/>
        <pt x="21" y="48" on="0"/>
        <pt x="57" y="63" on="0"/>
        <pt x="75" y="67" on="1"/>
        <pt x="423" y="638" on="1"/>
        <pt x="408" y="643" on="0"/>
        <pt x="378" y="654" on="0"/>
        <pt x="365" y="662" on="1"/>
        <pt x="365" y="700" on="1"/>
      </contour>
      <contour>
        <pt x="310" y="309" on="1"/>
        <pt x="458" y="309" on="1"/>
        <pt x="461" y="594" on="1"/>
        <pt x="459" y="594" on="1"/>
        <pt x="423" y="504" on="1"/>
      </contour>
    </TTGlyph>
    <TTGlyph name="Aacute" xMin="0" yMin="0" xMax="729" yMax="899">
      <component glyphName="A" x="0" y="0" flags="0x204"/>
      <component glyphName="uniF6C9" x="250" y="0" flags="0x4"/>
    </TTGlyph>
    <TTGlyph name="Abreve" xMin="0" yMin="0" xMax="729" yMax="902">
      <component glyphName="A" x="0" y="0" flags="0x204"/>
      <component glyphName="uniF406" x="138" y="0" flags="0x4"/>
    </TTGlyph>
    <TTGlyph name="Acircumflex" xMin="0" yMin="0" xMax="729" yMax="893">
      <component glyphName="A" x="0" y="0" flags="0x204"/>
      <component glyphName="uniF408" x="152" y="0" flags="0x4"/>
    </TTGlyph>
    <TTGlyph name="Adieresis" xMin="0" yMin="0" xMax="729" yMax="857">
      <component glyphName="A" x="0" y="0" flags="0x204"/>
      <component glyphName="uniF6CB" x="103" y="0" flags="0x4"/>
    </TTGlyph>
    <TTGlyph name="Agrave" xMin="0" yMin="0" xMax="729" yMax="901">
      <component glyphName="A" x="0" y="0" flags="0x204"/>
      <component glyphName="uniF6CE" x="86" y="0" flags="0x4"/>
    </TTGlyph>
    <TTGlyph name="Amacron" xMin="0" yMin="0" xMax="729" yMax="849">
      <component glyphName="A" x="0" y="0" flags="0x204"/>
      <component glyphName="uniF6D0" x="146" y="0" flags="0x4"/>
    </TTGlyph>
    <TTGlyph name="Aogonek" xMin="0" yMin="-255" xMax="729" yMax="712">
      <contour>
        <pt x="247" y="0" on="1"/>
        <pt x="0" y="0" on="1"/>
        <pt x="0" y="38" on="1"/>
        <pt x="16" y="48" on="0"/>
        <pt x="53" y="63" on="0"/>
        <pt x="71" y="67" on="1"/>
        <pt x="329" y="712" on="1"/>
        <pt x="403" y="712" on="1"/>
        <pt x="654" y="67" on="1"/>
        <pt x="674" y="63" on="0"/>
        <pt x="714" y="48" on="0"/>
        <pt x="729" y="38" on="1"/>
        <pt x="729" y="0" on="1"/>
        <pt x="692" y="0" on="1"/>
        <pt x="653" y="-28" on="0"/>
        <pt x="610" y="-103" on="0"/>
        <pt x="610" y="-135" on="1"/>
        <pt x="610" y="-161" on="0"/>
        <pt x="641" y="-189" on="0"/>
        <pt x="664" y="-189" on="1"/>
        <pt x="676" y="-189" on="0"/>
        <pt x="698" y="-187" on="0"/>
        <pt x="710" y="-184" on="1"/>
        <pt x="710" y="-227" on="1"/>
        <pt x="696" y="-238" on="0"/>
        <pt x="641" y="-255" on="0"/>
        <pt x="609" y="-255" on="1"/>
        <pt x="548" y="-255" on="0"/>
        <pt x="483" y="-198" on="0"/>
        <pt x="483" y="-157" on="1"/>
        <pt x="483" y="-130" on="0"/>
        <pt x="504" y="-85" on="0"/>
        <pt x="541" y="-47" on="0"/>
        <pt x="593" y="-15" on="0"/>
        <pt x="624" y="0" on="1"/>
        <pt x="416" y="0" on="1"/>
        <pt x="416" y="38" on="1"/>
        <pt x="435" y="47" on="0"/>
        <pt x="479" y="63" on="0"/>
        <pt x="499" y="67" on="1"/>
        <pt x="441" y="226" on="1"/>
        <pt x="219" y="226" on="1"/>
        <pt x="160" y="67" on="1"/>
        <pt x="206" y="61" on="0"/>
        <pt x="247" y="38" on="1"/>
      </contour>
      <contour>
        <pt x="243" y="291" on="1"/>
        <pt x="420" y="291" on="1"/>
        <pt x="355" y="482" on="1"/>
        <pt x="336" y="568" on="1"/>
        <pt x="334" y="568" on="1"/>
        <pt x="312" y="480" on="1"/>
      </contour>
    </TTGlyph>
    <TTGlyph name="Aring" xMin="0" yMin="0" xMax="729" yMax="878">
      <contour>
        <pt x="243" y="291" on="1"/>
        <pt x="420" y="291" on="1"/>
        <pt x="355" y="482" on="1"/>
        <pt x="336" y="568" on="1"/>
        <pt x="334" y="568" on="1"/>
        <pt x="312" y="480" on="1"/>
      </contour>
      <contour>
        <pt x="321" y="788" on="1"/>
        <pt x="321" y="771" on="0"/>
        <pt x="351" y="754" on="0"/>
        <pt x="366" y="754" on="1"/>
        <pt x="389" y="754" on="0"/>
        <pt x="415" y="771" on="0"/>
        <pt x="415" y="787" on="1"/>
        <pt x="415" y="810" on="0"/>
        <pt x="388" y="828" on="0"/>
        <pt x="369" y="828" on="1"/>
        <pt x="348" y="828" on="0"/>
        <pt x="321" y="810" on="0"/>
      </contour>
      <contour>
        <pt x="238" y="788" on="1"/>
        <pt x="238" y="829" on="0"/>
        <pt x="310" y="878" on="0"/>
        <pt x="371" y="878" on="1"/>
        <pt x="397" y="878" on="0"/>
        <pt x="443" y="867" on="0"/>
        <pt x="478" y="845" on="0"/>
        <pt x="498" y="813" on="0"/>
        <pt x="498" y="791" on="1"/>
        <pt x="498" y="752" on="0"/>
        <pt x="462" y="728" on="1"/>
        <pt x="438" y="712" on="0"/>
        <pt x="405" y="706" on="1"/>
        <pt x="654" y="67" on="1"/>
        <pt x="674" y="63" on="0"/>
        <pt x="714" y="48" on="0"/>
        <pt x="729" y="38" on="1"/>
        <pt x="729" y="0" on="1"/>
        <pt x="416" y="0" on="1"/>
        <pt x="416" y="38" on="1"/>
        <pt x="435" y="47" on="0"/>
        <pt x="479" y="63" on="0"/>
        <pt x="499" y="67" on="1"/>
        <pt x="441" y="226" on="1"/>
        <pt x="219" y="226" on="1"/>
        <pt x="160" y="67" on="1"/>
        <pt x="206" y="61" on="0"/>
        <pt x="247" y="38" on="1"/>
        <pt x="247" y="0" on="1"/>
        <pt x="0" y="0" on="1"/>
        <pt x="0" y="38" on="1"/>
        <pt x="16" y="48" on="0"/>
        <pt x="53" y="63" on="0"/>
        <pt x="71" y="67" on="1"/>
        <pt x="327" y="707" on="1"/>
        <pt x="293" y="712" on="0"/>
        <pt x="272" y="727" on="1"/>
        <pt x="238" y="750" on="0"/>
      </contour>
    </TTGlyph>
    <TTGlyph name="Atilde" xMin="0" yMin="0" xMax="729" yMax="876">
      <component glyphName="A" x="0" y="0" flags="0x204"/>
      <component glyphName="uniF40D" x="135" y="0" flags="0x4"/>
    </TTGlyph>
    <TTGlyph name="B" xMin="20" yMin="-6" xMax="612" yMax="706">
      <contour>
        <pt x="20" y="0" on="1"/>
        <pt x="20" y="38" on="1"/>
        <pt x="39" y="49" on="0"/>
        <pt x="82" y="65" on="0"/>
        <pt x="102" y="67" on="1"/>
        <pt x="102" y="633" on="1"/>
        <pt x="82" y="637" on="0"/>
        <pt x="38" y="652" on="0"/>
        <pt x="20" y="662" on="1"/>
        <pt x="20" y="700" on="1"/>
        <pt x="181" y="700" on="1"/>
        <pt x="219" y="700" on="0"/>
        <pt x="287" y="706" on="0"/>
        <pt x="331" y="706" on="1"/>
        <pt x="379" y="706" on="0"/>
        <pt x="469" y="692" on="0"/>
        <pt x="539" y="656" on="0"/>
        <pt x="581" y="591" on="0"/>
        <pt x="581" y="540" on="1"/>
        <pt x="581" y="508" on="0"/>
        <pt x="558" y="453" on="0"/>
        <pt x="517" y="411" on="0"/>
        <pt x="462" y="383" on="0"/>
        <pt x="430" y="377" on="1"/>
        <pt x="430" y="373" on="1"/>
        <pt x="462" y="369" on="0"/>
        <pt x="527" y="347" on="0"/>
        <pt x="579" y="305" on="0"/>
        <pt x="612" y="242" on="0"/>
        <pt x="612" y="199" on="1"/>
        <pt x="612" y="145" on="0"/>
        <pt x="564" y="67" on="0"/>
        <pt x="483" y="17" on="0"/>
        <pt x="379" y="-6" on="0"/>
        <pt x="323" y="-6" on="1"/>
        <pt x="302" y="-6" on="0"/>
        <pt x="252" y="-4" on="0"/>
        <pt x="202" y="-2" on="0"/>
        <pt x="155" y="0" on="0"/>
        <pt x="139" y="0" on="1"/>
      </contour>
      <contour>
        <pt x="322" y="59" on="1"/>
        <pt x="385" y="59" on="0"/>
        <pt x="457" y="134" on="0"/>
        <pt x="457" y="196" on="1"/>
        <pt x="457" y="234" on="0"/>
        <pt x="433" y="283" on="0"/>
        <pt x="391" y="312" on="0"/>
        <pt x="333" y="323" on="0"/>
        <pt x="299" y="323" on="1"/>
        <pt x="246" y="323" on="1"/>
        <pt x="246" y="66" on="1"/>
        <pt x="260" y="63" on="0"/>
        <pt x="291" y="59" on="0"/>
      </contour>
      <contour>
        <pt x="278" y="388" on="1"/>
        <pt x="295" y="388" on="0"/>
        <pt x="329" y="391" on="0"/>
        <pt x="344" y="393" on="1"/>
        <pt x="383" y="409" on="0"/>
        <pt x="431" y="476" on="0"/>
        <pt x="431" y="519" on="1"/>
        <pt x="431" y="582" on="0"/>
        <pt x="365" y="641" on="0"/>
        <pt x="313" y="641" on="1"/>
        <pt x="291" y="641" on="0"/>
        <pt x="259" y="639" on="0"/>
        <pt x="246" y="637" on="1"/>
        <pt x="246" y="388" on="1"/>
      </contour>
    </TTGlyph>
    <TTGlyph name="C" xMin="39" yMin="-12" xMax="599" yMax="712">
      <contour>
        <pt x="540" y="210" on="1"/>
        <pt x="581" y="210" on="1"/>
        <pt x="585" y="194" on="0"/>
        <pt x="592" y="149" on="0"/>
        <pt x="597" y="98" on="0"/>
        <pt x="599" y="48" on="0"/>
        <pt x="599" y="28" on="1"/>
        <pt x="564" y="6" on="0"/>
        <pt x="459" y="-12" on="0"/>
        <pt x="404" y="-12" on="1"/>
        <pt x="321" y="-12" on="0"/>
        <pt x="186" y="29" on="0"/>
        <pt x="91" y="118" on="0"/>
        <pt x="39" y="255" on="0"/>
        <pt x="39" y="351" on="1"/>
        <pt x="39" y="446" on="0"/>
        <pt x="96" y="583" on="0"/>
        <pt x="192" y="671" on="0"/>
        <pt x="319" y="712" on="0"/>
        <pt x="389" y="712" on="1"/>
        <pt x="455" y="712" on="0"/>
        <pt x="562" y="693" on="0"/>
        <pt x="596" y="677" on="1"/>
        <pt x="596" y="661" on="0"/>
        <pt x="593" y="611" on="0"/>
        <pt x="586" y="556" on="0"/>
        <pt x="577" y="503" on="0"/>
        <pt x="573" y="485" on="1"/>
        <pt x="531" y="485" on="1"/>
        <pt x="476" y="636" on="1"/>
        <pt x="467" y="641" on="0"/>
        <pt x="427" y="647" on="0"/>
        <pt x="406" y="647" on="1"/>
        <pt x="365" y="647" on="0"/>
        <pt x="293" y="614" on="0"/>
        <pt x="237" y="542" on="0"/>
        <pt x="205" y="429" on="0"/>
        <pt x="205" y="350" on="1"/>
        <pt x="205" y="207" on="0"/>
        <pt x="319" y="53" on="0"/>
        <pt x="417" y="53" on="1"/>
        <pt x="445" y="53" on="0"/>
        <pt x="484" y="62" on="0"/>
        <pt x="491" y="70" on="1"/>
      </contour>
    </TTGlyph>
    <TTGlyph name="Cacute" xMin="39" yMin="-12" xMax="599" yMax="899">
      <component glyphName="C" x="0" y="0" flags="0x204"/>
      <component glyphName="uniF6C9" x="224" y="0" flags="0x4"/>
    </TTGlyph>
    <TTGlyph name="Ccaron" xMin="39" yMin="-12" xMax="599" yMax="902">
      <component glyphName="C" x="0" y="0" flags="0x204"/>
      <component glyphName="uniF6CA" x="181" y="0" flags="0x4"/>
    </TTGlyph>
    <TTGlyph name="Ccedilla" xMin="39" yMin="-285" xMax="599" yMax="712">
      <contour>
        <pt x="540" y="210" on="1"/>
        <pt x="581" y="210" on="1"/>
        <pt x="585" y="194" on="0"/>
        <pt x="592" y="149" on="0"/>
        <pt x="597" y="98" on="0"/>
        <pt x="599" y="48" on="0"/>
        <pt x="599" y="28" on="1"/>
        <pt x="581" y="16" on="0"/>
        <pt x="534" y="1" on="0"/>
        <pt x="482" y="-8" on="0"/>
        <pt x="427" y="-12" on="0"/>
        <pt x="400" y="-12" on="1"/>
        <pt x="376" y="-70" on="1"/>
        <pt x="436" y="-72" on="0"/>
        <pt x="511" y="-115" on="0"/>
        <pt x="511" y="-159" on="1"/>
        <pt x="511" y="-192" on="0"/>
        <pt x="466" y="-240" on="0"/>
        <pt x="401" y="-271" on="0"/>
        <pt x="328" y="-285" on="0"/>
        <pt x="299" y="-285" on="1"/>
        <pt x="299" y="-239" on="1"/>
        <pt x="334" y="-234" on="0"/>
        <pt x="379" y="-204" on="0"/>
        <pt x="378" y="-176" on="1"/>
        <pt x="377" y="-153" on="0"/>
        <pt x="344" y="-127" on="0"/>
        <pt x="302" y="-125" on="1"/>
        <pt x="338" y="-8" on="1"/>
        <pt x="269" y="-1" on="0"/>
        <pt x="159" y="48" on="0"/>
        <pt x="81" y="136" on="0"/>
        <pt x="39" y="265" on="0"/>
        <pt x="39" y="351" on="1"/>
        <pt x="39" y="446" on="0"/>
        <pt x="96" y="583" on="0"/>
        <pt x="192" y="671" on="0"/>
        <pt x="319" y="712" on="0"/>
        <pt x="389" y="712" on="1"/>
        <pt x="455" y="712" on="0"/>
        <pt x="562" y="693" on="0"/>
        <pt x="596" y="677" on="1"/>
        <pt x="596" y="661" on="0"/>
        <pt x="593" y="611" on="0"/>
        <pt x="586" y="556" on="0"/>
        <pt x="577" y="503" on="0"/>
        <pt x="573" y="485" on="1"/>
        <pt x="531" y="485" on="1"/>
        <pt x="476" y="636" on="1"/>
        <pt x="467" y="641" on="0"/>
        <pt x="427" y="647" on="0"/>
        <pt x="406" y="647" on="1"/>
        <pt x="365" y="647" on="0"/>
        <pt x="293" y="614" on="0"/>
        <pt x="237" y="542" on="0"/>
        <pt x="205" y="429" on="0"/>
        <pt x="205" y="350" on="1"/>
        <pt x="205" y="207" on="0"/>
        <pt x="319" y="53" on="0"/>
        <pt x="417" y="53" on="1"/>
        <pt x="445" y="53" on="0"/>
        <pt x="484" y="62" on="0"/>
        <pt x="491" y="70" on="1"/>
      </contour>
    </TTGlyph>
    <TTGlyph name="Ccircumflex" xMin="39" yMin="-12" xMax="599" yMax="893">
      <component glyphName="C" x="0" y="0" flags="0x204"/>
      <component glyphName="uniF408" x="176" y="0" flags="0x4"/>
    </TTGlyph>
    <TTGlyph name="D" xMin="20" yMin="-9" xMax="696" yMax="708">
      <contour>
        <pt x="20" y="0" on="1"/>
        <pt x="20" y="38" on="1"/>
        <pt x="37" y="48" on="0"/>
        <pt x="79" y="63" on="0"/>
        <pt x="102" y="67" on="1"/>
        <pt x="102" y="633" on="1"/>
        <pt x="79" y="638" on="0"/>
        <pt x="36" y="653" on="0"/>
        <pt x="20" y="662" on="1"/>
        <pt x="20" y="700" on="1"/>
        <pt x="136" y="700" on="1"/>
        <pt x="153" y="700" on="0"/>
        <pt x="203" y="702" on="0"/>
        <pt x="257" y="705" on="0"/>
        <pt x="308" y="708" on="0"/>
        <pt x="326" y="708" on="1"/>
        <pt x="413" y="708" on="0"/>
        <pt x="550" y="662" on="0"/>
        <pt x="645" y="574" on="0"/>
        <pt x="696" y="444" on="0"/>
        <pt x="696" y="359" on="1"/>
        <pt x="696" y="276" on="0"/>
        <pt x="648" y="140" on="0"/>
        <pt x="552" y="44" on="0"/>
        <pt x="405" y="-9" on="0"/>
        <pt x="306" y="-9" on="1"/>
        <pt x="293" y="-9" on="0"/>
        <pt x="249" y="-6" on="0"/>
        <pt x="199" y="-3" on="0"/>
        <pt x="149" y="0" on="0"/>
        <pt x="130" y="0" on="1"/>
      </contour>
      <contour>
        <pt x="313" y="643" on="1"/>
        <pt x="295" y="643" on="0"/>
        <pt x="259" y="641" on="0"/>
        <pt x="246" y="639" on="1"/>
        <pt x="246" y="60" on="1"/>
        <pt x="250" y="59" on="0"/>
        <pt x="270" y="58" on="0"/>
        <pt x="291" y="57" on="0"/>
        <pt x="311" y="56" on="0"/>
        <pt x="316" y="56" on="1"/>
        <pt x="374" y="56" on="0"/>
        <pt x="455" y="104" on="0"/>
        <pt x="507" y="186" on="0"/>
        <pt x="531" y="296" on="0"/>
        <pt x="531" y="358" on="1"/>
        <pt x="531" y="413" on="0"/>
        <pt x="506" y="515" on="0"/>
        <pt x="454" y="595" on="0"/>
        <pt x="371" y="643" on="0"/>
      </contour>
    </TTGlyph>
    <TTGlyph name="Dcaron" xMin="20" yMin="-9" xMax="696" yMax="902">
      <component glyphName="D" x="0" y="0" flags="0x204"/>
      <component glyphName="uniF6CA" x="117" y="0" flags="0x4"/>
    </TTGlyph>
    <TTGlyph name="Dcroat" xMin="22" yMin="-9" xMax="701" yMax="708">
      <component glyphName="Eth" x="0" y="0" flags="0x204"/>
    </TTGlyph>
    <TTGlyph name="E" xMin="20" yMin="0" xMax="561" yMax="700">
      <contour>
        <pt x="546" y="700" on="1"/>
        <pt x="544" y="655" on="0"/>
        <pt x="534" y="559" on="0"/>
        <pt x="526" y="517" on="1"/>
        <pt x="485" y="517" on="1"/>
        <pt x="439" y="635" on="1"/>
        <pt x="252" y="635" on="1"/>
        <pt x="252" y="390" on="1"/>
        <pt x="374" y="390" on="1"/>
        <pt x="418" y="467" on="1"/>
        <pt x="450" y="467" on="1"/>
        <pt x="455" y="418" on="0"/>
        <pt x="455" y="298" on="0"/>
        <pt x="450" y="246" on="1"/>
        <pt x="418" y="246" on="1"/>
        <pt x="374" y="325" on="1"/>
        <pt x="252" y="325" on="1"/>
        <pt x="252" y="65" on="1"/>
        <pt x="447" y="65" on="1"/>
        <pt x="500" y="192" on="1"/>
        <pt x="541" y="192" on="1"/>
        <pt x="545" y="173" on="0"/>
        <pt x="553" y="125" on="0"/>
        <pt x="558" y="74" on="0"/>
        <pt x="561" y="22" on="0"/>
        <pt x="561" y="0" on="1"/>
        <pt x="20" y="0" on="1"/>
        <pt x="20" y="38" on="1"/>
        <pt x="37" y="47" on="0"/>
        <pt x="79" y="63" on="0"/>
        <pt x="102" y="67" on="1"/>
        <pt x="102" y="633" on="1"/>
        <pt x="82" y="637" on="0"/>
        <pt x="37" y="652" on="0"/>
        <pt x="20" y="662" on="1"/>
        <pt x="20" y="700" on="1"/>
      </contour>
    </TTGlyph>
    <TTGlyph name="Eacute" xMin="20" yMin="0" xMax="561" yMax="899">
      <component glyphName="E" x="0" y="0" flags="0x204"/>
      <component glyphName="uniF6C9" x="160" y="0" flags="0x4"/>
    </TTGlyph>
    <TTGlyph name="Ecaron" xMin="20" yMin="0" xMax="561" yMax="902">
      <component glyphName="E" x="0" y="0" flags="0x204"/>
      <component glyphName="uniF6CA" x="92" y="0" flags="0x4"/>
    </TTGlyph>
    <TTGlyph name="Ecircumflex" xMin="20" yMin="0" xMax="561" yMax="893">
      <component glyphName="E" x="0" y="0" flags="0x204"/>
      <component glyphName="uniF408" x="94" y="0" flags="0x4"/>
    </TTGlyph>
    <TTGlyph name="Edieresis" xMin="20" yMin="0" xMax="561" yMax="857">
      <component glyphName="E" x="0" y="0" flags="0x204"/>
      <component glyphName="uniF6CB" x="33" y="0" flags="0x4"/>
    </TTGlyph>
    <TTGlyph name="Edotaccent" xMin="20" yMin="0" xMax="561" yMax="885">
      <component glyphName="E" x="0" y="0" flags="0x204"/>
      <component glyphName="uniF40B" x="158" y="0" flags="0x4"/>
    </TTGlyph>
    <TTGlyph name="Egrave" xMin="20" yMin="0" xMax="561" yMax="901">
      <component glyphName="E" x="0" y="0" flags="0x204"/>
      <component glyphName="uniF6CE" x="40" y="0" flags="0x4"/>
    </TTGlyph>
    <TTGlyph name="Emacron" xMin="20" yMin="0" xMax="561" yMax="849">
      <component glyphName="E" x="0" y="0" flags="0x204"/>
      <component glyphName="uniF6D0" x="87" y="0" flags="0x4"/>
    </TTGlyph>
    <TTGlyph name="Eogonek" xMin="20" yMin="-255" xMax="561" yMax="700">
      <contour>
        <pt x="546" y="700" on="1"/>
        <pt x="544" y="655" on="0"/>
        <pt x="534" y="559" on="0"/>
        <pt x="526" y="517" on="1"/>
        <pt x="485" y="517" on="1"/>
        <pt x="439" y="635" on="1"/>
        <pt x="252" y="635" on="1"/>
        <pt x="252" y="390" on="1"/>
        <pt x="374" y="390" on="1"/>
        <pt x="418" y="467" on="1"/>
        <pt x="450" y="467" on="1"/>
        <pt x="455" y="418" on="0"/>
        <pt x="455" y="298" on="0"/>
        <pt x="450" y="246" on="1"/>
        <pt x="418" y="246" on="1"/>
        <pt x="374" y="325" on="1"/>
        <pt x="252" y="325" on="1"/>
        <pt x="252" y="65" on="1"/>
        <pt x="447" y="65" on="1"/>
        <pt x="500" y="192" on="1"/>
        <pt x="541" y="192" on="1"/>
        <pt x="545" y="179" on="0"/>
        <pt x="552" y="128" on="0"/>
        <pt x="557" y="70" on="0"/>
        <pt x="560" y="16" on="0"/>
        <pt x="561" y="0" on="1"/>
        <pt x="523" y="0" on="1"/>
        <pt x="484" y="-28" on="0"/>
        <pt x="441" y="-103" on="0"/>
        <pt x="441" y="-135" on="1"/>
        <pt x="441" y="-161" on="0"/>
        <pt x="473" y="-189" on="0"/>
        <pt x="495" y="-189" on="1"/>
        <pt x="507" y="-189" on="0"/>
        <pt x="529" y="-187" on="0"/>
        <pt x="541" y="-184" on="1"/>
        <pt x="541" y="-227" on="1"/>
        <pt x="527" y="-238" on="0"/>
        <pt x="473" y="-255" on="0"/>
        <pt x="441" y="-255" on="1"/>
        <pt x="380" y="-255" on="0"/>
        <pt x="314" y="-198" on="0"/>
        <pt x="314" y="-157" on="1"/>
        <pt x="314" y="-102" on="0"/>
        <pt x="394" y="-29" on="0"/>
        <pt x="456" y="0" on="1"/>
        <pt x="20" y="0" on="1"/>
        <pt x="20" y="38" on="1"/>
        <pt x="37" y="47" on="0"/>
        <pt x="79" y="63" on="0"/>
        <pt x="102" y="67" on="1"/>
        <pt x="102" y="633" on="1"/>
        <pt x="82" y="637" on="0"/>
        <pt x="37" y="652" on="0"/>
        <pt x="20" y="662" on="1"/>
        <pt x="20" y="700" on="1"/>
      </contour>
    </TTGlyph>
    <TTGlyph name="Eth" xMin="22" yMin="-9" xMax="701" yMax="708">
      <contour>
        <pt x="22" y="389" on="1"/>
        <pt x="107" y="389" on="1"/>
        <pt x="107" y="633" on="1"/>
        <pt x="84" y="638" on="0"/>
        <pt x="41" y="653" on="0"/>
        <pt x="25" y="662" on="1"/>
        <pt x="25" y="700" on="1"/>
        <pt x="141" y="700" on="1"/>
        <pt x="158" y="700" on="0"/>
        <pt x="208" y="702" on="0"/>
        <pt x="262" y="705" on="0"/>
        <pt x="313" y="708" on="0"/>
        <pt x="331" y="708" on="1"/>
        <pt x="418" y="708" on="0"/>
        <pt x="555" y="662" on="0"/>
        <pt x="650" y="574" on="0"/>
        <pt x="701" y="444" on="0"/>
        <pt x="701" y="359" on="1"/>
        <pt x="701" y="276" on="0"/>
        <pt x="653" y="140" on="0"/>
        <pt x="557" y="44" on="0"/>
        <pt x="410" y="-9" on="0"/>
        <pt x="311" y="-9" on="1"/>
        <pt x="298" y="-9" on="0"/>
        <pt x="254" y="-6" on="0"/>
        <pt x="204" y="-3" on="0"/>
        <pt x="154" y="0" on="0"/>
        <pt x="135" y="0" on="1"/>
        <pt x="25" y="0" on="1"/>
        <pt x="25" y="38" on="1"/>
        <pt x="42" y="48" on="0"/>
        <pt x="84" y="63" on="0"/>
        <pt x="107" y="67" on="1"/>
        <pt x="107" y="329" on="1"/>
        <pt x="22" y="329" on="1"/>
      </contour>
      <contour>
        <pt x="318" y="643" on="1"/>
        <pt x="300" y="643" on="0"/>
        <pt x="264" y="641" on="0"/>
        <pt x="251" y="639" on="1"/>
        <pt x="251" y="389" on="1"/>
        <pt x="404" y="389" on="1"/>
        <pt x="404" y="329" on="1"/>
        <pt x="251" y="329" on="1"/>
        <pt x="251" y="60" on="1"/>
        <pt x="255" y="59" on="0"/>
        <pt x="275" y="58" on="0"/>
        <pt x="296" y="57" on="0"/>
        <pt x="316" y="56" on="0"/>
        <pt x="321" y="56" on="1"/>
        <pt x="379" y="56" on="0"/>
        <pt x="460" y="104" on="0"/>
        <pt x="512" y="186" on="0"/>
        <pt x="536" y="296" on="0"/>
        <pt x="536" y="358" on="1"/>
        <pt x="536" y="413" on="0"/>
        <pt x="511" y="515" on="0"/>
        <pt x="459" y="595" on="0"/>
        <pt x="376" y="643" on="0"/>
      </contour>
    </TTGlyph>
    <TTGlyph name="Euro" xMin="-46" yMin="-12" xMax="551" yMax="712">
      <contour>
        <pt x="-29" y="448" on="1"/>
        <pt x="33" y="448" on="1"/>
        <pt x="44" y="518" on="0"/>
        <pt x="100" y="618" on="0"/>
        <pt x="182" y="682" on="0"/>
        <pt x="285" y="712" on="0"/>
        <pt x="343" y="712" on="1"/>
        <pt x="409" y="712" on="0"/>
        <pt x="514" y="693" on="0"/>
        <pt x="548" y="677" on="1"/>
        <pt x="548" y="661" on="0"/>
        <pt x="544" y="611" on="0"/>
        <pt x="537" y="556" on="0"/>
        <pt x="528" y="503" on="0"/>
        <pt x="524" y="485" on="1"/>
        <pt x="483" y="485" on="1"/>
        <pt x="427" y="636" on="1"/>
        <pt x="418" y="641" on="0"/>
        <pt x="381" y="647" on="0"/>
        <pt x="361" y="647" on="1"/>
        <pt x="292" y="647" on="0"/>
        <pt x="197" y="554" on="0"/>
        <pt x="182" y="448" on="1"/>
        <pt x="427" y="448" on="1"/>
        <pt x="410" y="381" on="1"/>
        <pt x="176" y="381" on="1"/>
        <pt x="176" y="350" on="1"/>
        <pt x="176" y="342" on="0"/>
        <pt x="176" y="326" on="0"/>
        <pt x="177" y="318" on="1"/>
        <pt x="394" y="318" on="1"/>
        <pt x="377" y="251" on="1"/>
        <pt x="183" y="251" on="1"/>
        <pt x="198" y="157" on="0"/>
        <pt x="292" y="53" on="0"/>
        <pt x="371" y="53" on="1"/>
        <pt x="428" y="53" on="0"/>
        <pt x="443" y="70" on="1"/>
        <pt x="491" y="210" on="1"/>
        <pt x="533" y="210" on="1"/>
        <pt x="537" y="194" on="0"/>
        <pt x="544" y="149" on="0"/>
        <pt x="549" y="98" on="0"/>
        <pt x="551" y="48" on="0"/>
        <pt x="551" y="28" on="1"/>
        <pt x="516" y="6" on="0"/>
        <pt x="414" y="-12" on="0"/>
        <pt x="359" y="-12" on="1"/>
        <pt x="78" y="-12" on="0"/>
        <pt x="35" y="251" on="1"/>
        <pt x="-46" y="251" on="1"/>
        <pt x="-29" y="318" on="1"/>
        <pt x="27" y="318" on="1"/>
        <pt x="26" y="329" on="0"/>
        <pt x="26" y="350" on="0"/>
        <pt x="26" y="361" on="1"/>
        <pt x="26" y="366" on="0"/>
        <pt x="26" y="376" on="0"/>
        <pt x="27" y="381" on="1"/>
        <pt x="-46" y="381" on="1"/>
      </contour>
    </TTGlyph>
    <TTGlyph name="F" xMin="20" yMin="0" xMax="543" yMax="700">
      <contour>
        <pt x="242" y="67" on="1"/>
        <pt x="288" y="61" on="0"/>
        <pt x="329" y="38" on="1"/>
        <pt x="329" y="0" on="1"/>
        <pt x="20" y="0" on="1"/>
        <pt x="20" y="38" on="1"/>
        <pt x="36" y="47" on="0"/>
        <pt x="72" y="62" on="0"/>
        <pt x="92" y="67" on="1"/>
        <pt x="92" y="633" on="1"/>
        <pt x="69" y="638" on="0"/>
        <pt x="34" y="654" on="0"/>
        <pt x="20" y="662" on="1"/>
        <pt x="20" y="700" on="1"/>
        <pt x="543" y="700" on="1"/>
        <pt x="543" y="680" on="0"/>
        <pt x="539" y="633" on="0"/>
        <pt x="534" y="584" on="0"/>
        <pt x="527" y="537" on="0"/>
        <pt x="523" y="517" on="1"/>
        <pt x="482" y="517" on="1"/>
        <pt x="436" y="635" on="1"/>
        <pt x="242" y="635" on="1"/>
        <pt x="242" y="372" on="1"/>
        <pt x="379" y="372" on="1"/>
        <pt x="424" y="449" on="1"/>
        <pt x="454" y="449" on="1"/>
        <pt x="458" y="423" on="0"/>
        <pt x="461" y="365" on="0"/>
        <pt x="461" y="336" on="1"/>
        <pt x="460" y="306" on="0"/>
        <pt x="457" y="250" on="0"/>
        <pt x="454" y="228" on="1"/>
        <pt x="424" y="228" on="1"/>
        <pt x="379" y="307" on="1"/>
        <pt x="242" y="307" on="1"/>
      </contour>
    </TTGlyph>
    <TTGlyph name="G" xMin="39" yMin="-12" xMax="698" yMax="712">
      <contour>
        <pt x="636" y="44" on="1"/>
        <pt x="616" y="34" on="0"/>
        <pt x="558" y="14" on="0"/>
        <pt x="494" y="-2" on="0"/>
        <pt x="430" y="-12" on="0"/>
        <pt x="405" y="-12" on="1"/>
        <pt x="319" y="-12" on="0"/>
        <pt x="184" y="33" on="0"/>
        <pt x="89" y="124" on="0"/>
        <pt x="39" y="260" on="0"/>
        <pt x="39" y="350" on="1"/>
        <pt x="39" y="448" on="0"/>
        <pt x="100" y="585" on="0"/>
        <pt x="201" y="672" on="0"/>
        <pt x="329" y="712" on="0"/>
        <pt x="396" y="712" on="1"/>
        <pt x="462" y="712" on="0"/>
        <pt x="578" y="694" on="0"/>
        <pt x="612" y="677" on="1"/>
        <pt x="612" y="662" on="0"/>
        <pt x="609" y="615" on="0"/>
        <pt x="603" y="561" on="0"/>
        <pt x="594" y="507" on="0"/>
        <pt x="588" y="485" on="1"/>
        <pt x="547" y="485" on="1"/>
        <pt x="491" y="637" on="1"/>
        <pt x="480" y="642" on="0"/>
        <pt x="436" y="647" on="0"/>
        <pt x="414" y="647" on="1"/>
        <pt x="373" y="647" on="0"/>
        <pt x="297" y="615" on="0"/>
        <pt x="239" y="544" on="0"/>
        <pt x="205" y="431" on="0"/>
        <pt x="205" y="350" on="1"/>
        <pt x="205" y="284" on="0"/>
        <pt x="236" y="175" on="0"/>
        <pt x="292" y="97" on="0"/>
        <pt x="370" y="53" on="0"/>
        <pt x="417" y="53" on="1"/>
        <pt x="432" y="53" on="0"/>
        <pt x="464" y="58" on="0"/>
        <pt x="492" y="66" on="0"/>
        <pt x="513" y="76" on="0"/>
        <pt x="517" y="80" on="1"/>
        <pt x="517" y="268" on="1"/>
        <pt x="491" y="270" on="0"/>
        <pt x="445" y="286" on="0"/>
        <pt x="425" y="297" on="1"/>
        <pt x="425" y="335" on="1"/>
        <pt x="698" y="335" on="1"/>
        <pt x="698" y="297" on="1"/>
        <pt x="689" y="288" on="0"/>
        <pt x="659" y="273" on="0"/>
        <pt x="636" y="268" on="1"/>
      </contour>
    </TTGlyph>
    <TTGlyph name="Gbreve" xMin="39" yMin="-12" xMax="698" yMax="902">
      <component glyphName="G" x="0" y="0" flags="0x204"/>
      <component glyphName="uniF406" x="179" y="0" flags="0x4"/>
    </TTGlyph>
    <TTGlyph name="Gcircumflex" xMin="39" yMin="-12" xMax="698" yMax="893">
      <component glyphName="G" x="0" y="0" flags="0x204"/>
      <component glyphName="uniF408" x="190" y="0" flags="0x4"/>
    </TTGlyph>
    <TTGlyph name="Gcommaaccent" xMin="39" yMin="-285" xMax="698" yMax="712">
      <component glyphName="G" x="0" y="0" flags="0x204"/>
      <component glyphName="uniF409" x="230" y="0" flags="0x4"/>
    </TTGlyph>
    <TTGlyph name="H" xMin="20" yMin="0" xMax="749" yMax="700">
      <contour>
        <pt x="323" y="0" on="1"/>
        <pt x="20" y="0" on="1"/>
        <pt x="20" y="38" on="1"/>
        <pt x="37" y="47" on="0"/>
        <pt x="82" y="63" on="0"/>
        <pt x="102" y="67" on="1"/>
        <pt x="102" y="633" on="1"/>
        <pt x="78" y="637" on="0"/>
        <pt x="34" y="653" on="0"/>
        <pt x="20" y="662" on="1"/>
        <pt x="20" y="700" on="1"/>
        <pt x="323" y="700" on="1"/>
        <pt x="323" y="662" on="1"/>
        <pt x="308" y="652" on="0"/>
        <pt x="271" y="636" on="0"/>
        <pt x="252" y="633" on="1"/>
        <pt x="252" y="391" on="1"/>
        <pt x="517" y="391" on="1"/>
        <pt x="517" y="633" on="1"/>
        <pt x="495" y="637" on="0"/>
        <pt x="460" y="653" on="0"/>
        <pt x="446" y="662" on="1"/>
        <pt x="446" y="700" on="1"/>
        <pt x="749" y="700" on="1"/>
        <pt x="749" y="662" on="1"/>
        <pt x="732" y="651" on="0"/>
        <pt x="688" y="637" on="0"/>
        <pt x="667" y="633" on="1"/>
        <pt x="667" y="67" on="1"/>
        <pt x="690" y="63" on="0"/>
        <pt x="733" y="47" on="0"/>
        <pt x="749" y="38" on="1"/>
        <pt x="749" y="0" on="1"/>
        <pt x="446" y="0" on="1"/>
        <pt x="446" y="38" on="1"/>
        <pt x="461" y="47" on="0"/>
        <pt x="497" y="63" on="0"/>
        <pt x="517" y="67" on="1"/>
        <pt x="517" y="326" on="1"/>
        <pt x="252" y="326" on="1"/>
        <pt x="252" y="67" on="1"/>
        <pt x="272" y="63" on="0"/>
        <pt x="306" y="49" on="0"/>
        <pt x="323" y="38" on="1"/>
      </contour>
    </TTGlyph>
    <TTGlyph name="Hbar" xMin="20" yMin="0" xMax="749" yMax="700">
      <contour>
        <pt x="26" y="561" on="1"/>
        <pt x="102" y="561" on="1"/>
        <pt x="102" y="633" on="1"/>
        <pt x="78" y="637" on="0"/>
        <pt x="34" y="653" on="0"/>
        <pt x="20" y="662" on="1"/>
        <pt x="20" y="700" on="1"/>
        <pt x="323" y="700" on="1"/>
        <pt x="323" y="662" on="1"/>
        <pt x="308" y="652" on="0"/>
        <pt x="271" y="636" on="0"/>
        <pt x="252" y="633" on="1"/>
        <pt x="252" y="561" on="1"/>
        <pt x="517" y="561" on="1"/>
        <pt x="517" y="633" on="1"/>
        <pt x="495" y="637" on="0"/>
        <pt x="460" y="653" on="0"/>
        <pt x="446" y="662" on="1"/>
        <pt x="446" y="700" on="1"/>
        <pt x="749" y="700" on="1"/>
        <pt x="749" y="662" on="1"/>
        <pt x="732" y="651" on="0"/>
        <pt x="688" y="637" on="0"/>
        <pt x="667" y="633" on="1"/>
        <pt x="667" y="561" on="1"/>
        <pt x="743" y="561" on="1"/>
        <pt x="743" y="498" on="1"/>
        <pt x="667" y="498" on="1"/>
        <pt x="667" y="67" on="1"/>
        <pt x="690" y="63" on="0"/>
        <pt x="733" y="47" on="0"/>
        <pt x="749" y="38" on="1"/>
        <pt x="749" y="0" on="1"/>
        <pt x="446" y="0" on="1"/>
        <pt x="446" y="38" on="1"/>
        <pt x="461" y="47" on="0"/>
        <pt x="497" y="63" on="0"/>
        <pt x="517" y="67" on="1"/>
        <pt x="517" y="326" on="1"/>
        <pt x="252" y="326" on="1"/>
        <pt x="252" y="67" on="1"/>
        <pt x="272" y="63" on="0"/>
        <pt x="306" y="49" on="0"/>
        <pt x="323" y="38" on="1"/>
        <pt x="323" y="0" on="1"/>
        <pt x="20" y="0" on="1"/>
        <pt x="20" y="38" on="1"/>
        <pt x="37" y="47" on="0"/>
        <pt x="82" y="63" on="0"/>
        <pt x="102" y="67" on="1"/>
        <pt x="102" y="498" on="1"/>
        <pt x="26" y="498" on="1"/>
      </contour>
      <contour>
        <pt x="517" y="391" on="1"/>
        <pt x="517" y="498" on="1"/>
        <pt x="252" y="498" on="1"/>
        <pt x="252" y="391" on="1"/>
      </contour>
    </TTGlyph>
    <TTGlyph name="Hcircumflex" xMin="20" yMin="0" xMax="749" yMax="893">
      <component glyphName="H" x="0" y="0" flags="0x204"/>
      <component glyphName="uniF408" x="167" y="0" flags="0x4"/>
    </TTGlyph>
    <TTGlyph name="I" xMin="30" yMin="0" xMax="342" yMax="700">
      <contour>
        <pt x="342" y="0" on="1"/>
        <pt x="30" y="0" on="1"/>
        <pt x="30" y="38" on="1"/>
        <pt x="70" y="60" on="0"/>
        <pt x="111" y="67" on="1"/>
        <pt x="111" y="633" on="1"/>
        <pt x="91" y="636" on="0"/>
        <pt x="47" y="652" on="0"/>
        <pt x="30" y="662" on="1"/>
        <pt x="30" y="700" on="1"/>
        <pt x="342" y="700" on="1"/>
        <pt x="342" y="662" on="1"/>
        <pt x="324" y="651" on="0"/>
        <pt x="281" y="636" on="0"/>
        <pt x="261" y="633" on="1"/>
        <pt x="261" y="67" on="1"/>
        <pt x="281" y="63" on="0"/>
        <pt x="324" y="49" on="0"/>
        <pt x="342" y="38" on="1"/>
      </contour>
    </TTGlyph>
    <TTGlyph name="Iacute" xMin="30" yMin="0" xMax="352" yMax="899">
      <component glyphName="I" x="0" y="0" flags="0x204"/>
      <component glyphName="uniF6C9" x="17" y="0" flags="0x4"/>
    </TTGlyph>
    <TTGlyph name="Icircumflex" xMin="30" yMin="0" xMax="344" yMax="893">
      <component glyphName="I" x="0" y="0" flags="0x204"/>
      <component glyphName="uniF408" x="-30" y="0" flags="0x4"/>
    </TTGlyph>
    <TTGlyph name="Idieresis" xMin="-17" yMin="0" xMax="391" yMax="857">
      <component glyphName="I" x="0" y="0" flags="0x204"/>
      <component glyphName="uniF6CB" x="-77" y="0" flags="0x4"/>
    </TTGlyph>
    <TTGlyph name="Idotaccent" xMin="30" yMin="0" xMax="342" yMax="885">
      <component glyphName="I" x="0" y="0" flags="0x204"/>
      <component glyphName="uniF40B" x="36" y="0" flags="0x4"/>
    </TTGlyph>
    <TTGlyph name="Igrave" xMin="30" yMin="0" xMax="342" yMax="901">
      <component glyphName="I" x="0" y="0" flags="0x204"/>
      <component glyphName="uniF6CE" x="-28" y="0" flags="0x4"/>
    </TTGlyph>
    <TTGlyph name="Imacron" xMin="25" yMin="0" xMax="349" yMax="849">
      <component glyphName="I" x="0" y="0" flags="0x204"/>
      <component glyphName="uniF6D0" x="-35" y="0" flags="0x4"/>
    </TTGlyph>
    <TTGlyph name="Iogonek" xMin="30" yMin="-255" xMax="342" yMax="700">
      <contour>
        <pt x="342" y="0" on="1"/>
        <pt x="306" y="0" on="1"/>
        <pt x="267" y="-28" on="0"/>
        <pt x="224" y="-103" on="0"/>
        <pt x="224" y="-135" on="1"/>
        <pt x="224" y="-161" on="0"/>
        <pt x="255" y="-189" on="0"/>
        <pt x="278" y="-189" on="1"/>
        <pt x="290" y="-189" on="0"/>
        <pt x="312" y="-187" on="0"/>
        <pt x="324" y="-184" on="1"/>
        <pt x="324" y="-227" on="1"/>
        <pt x="310" y="-238" on="0"/>
        <pt x="255" y="-255" on="0"/>
        <pt x="223" y="-255" on="1"/>
        <pt x="162" y="-255" on="0"/>
        <pt x="97" y="-198" on="0"/>
        <pt x="97" y="-157" on="1"/>
        <pt x="97" y="-130" on="0"/>
        <pt x="118" y="-85" on="0"/>
        <pt x="155" y="-47" on="0"/>
        <pt x="207" y="-15" on="0"/>
        <pt x="238" y="0" on="1"/>
        <pt x="30" y="0" on="1"/>
        <pt x="30" y="38" on="1"/>
        <pt x="70" y="60" on="0"/>
        <pt x="111" y="67" on="1"/>
        <pt x="111" y="633" on="1"/>
        <pt x="91" y="636" on="0"/>
        <pt x="47" y="652" on="0"/>
        <pt x="30" y="662" on="1"/>
        <pt x="30" y="700" on="1"/>
        <pt x="342" y="700" on="1"/>
        <pt x="342" y="662" on="1"/>
        <pt x="324" y="651" on="0"/>
        <pt x="281" y="636" on="0"/>
        <pt x="261" y="633" on="1"/>
        <pt x="261" y="67" on="1"/>
        <pt x="281" y="63" on="0"/>
        <pt x="324" y="49" on="0"/>
        <pt x="342" y="38" on="1"/>
      </contour>
    </TTGlyph>
    <TTGlyph name="J" xMin="27" yMin="-160" xMax="335" yMax="700">
      <contour>
        <pt x="27" y="700" on="1"/>
        <pt x="335" y="700" on="1"/>
        <pt x="335" y="662" on="1"/>
        <pt x="319" y="652" on="0"/>
        <pt x="279" y="636" on="0"/>
        <pt x="259" y="633" on="1"/>
        <pt x="259" y="121" on="1"/>
        <pt x="259" y="39" on="0"/>
        <pt x="210" y="-66" on="0"/>
        <pt x="143" y="-127" on="0"/>
        <pt x="73" y="-155" on="0"/>
        <pt x="51" y="-160" on="1"/>
        <pt x="32" y="-134" on="1"/>
        <pt x="47" y="-122" on="0"/>
        <pt x="75" y="-85" on="0"/>
        <pt x="96" y="-27" on="0"/>
        <pt x="109" y="56" on="0"/>
        <pt x="109" y="115" on="1"/>
        <pt x="109" y="633" on="1"/>
        <pt x="87" y="638" on="0"/>
        <pt x="44" y="651" on="0"/>
        <pt x="27" y="662" on="1"/>
      </contour>
    </TTGlyph>
    <TTGlyph name="Jcircumflex" xMin="27" yMin="-160" xMax="341" yMax="893">
      <component glyphName="J" x="0" y="0" flags="0x204"/>
      <component glyphName="uniF408" x="-33" y="0" flags="0x4"/>
    </TTGlyph>
    <TTGlyph name="K" xMin="20" yMin="0" xMax="710" yMax="700">
      <contour>
        <pt x="399" y="700" on="1"/>
        <pt x="667" y="700" on="1"/>
        <pt x="667" y="662" on="1"/>
        <pt x="650" y="651" on="0"/>
        <pt x="606" y="636" on="0"/>
        <pt x="588" y="633" on="1"/>
        <pt x="398" y="392" on="1"/>
        <pt x="421" y="360" on="0"/>
        <pt x="483" y="279" on="0"/>
        <pt x="553" y="192" on="0"/>
        <pt x="627" y="103" on="0"/>
        <pt x="662" y="63" on="1"/>
        <pt x="710" y="34" on="1"/>
        <pt x="710" y="0" on="1"/>
        <pt x="536" y="0" on="1"/>
        <pt x="496" y="28" on="1"/>
        <pt x="472" y="58" on="0"/>
        <pt x="419" y="131" on="0"/>
        <pt x="367" y="210" on="0"/>
        <pt x="317" y="290" on="0"/>
        <pt x="295" y="328" on="1"/>
        <pt x="252" y="328" on="1"/>
        <pt x="252" y="67" on="1"/>
        <pt x="274" y="63" on="0"/>
        <pt x="310" y="47" on="0"/>
        <pt x="323" y="38" on="1"/>
        <pt x="323" y="0" on="1"/>
        <pt x="20" y="0" on="1"/>
        <pt x="20" y="38" on="1"/>
        <pt x="40" y="48" on="0"/>
        <pt x="82" y="63" on="0"/>
        <pt x="102" y="67" on="1"/>
        <pt x="102" y="633" on="1"/>
        <pt x="79" y="636" on="0"/>
        <pt x="36" y="652" on="0"/>
        <pt x="20" y="662" on="1"/>
        <pt x="20" y="700" on="1"/>
        <pt x="323" y="700" on="1"/>
        <pt x="323" y="662" on="1"/>
        <pt x="310" y="654" on="0"/>
        <pt x="273" y="638" on="0"/>
        <pt x="252" y="633" on="1"/>
        <pt x="252" y="379" on="1"/>
        <pt x="311" y="393" on="1"/>
        <pt x="472" y="633" on="1"/>
        <pt x="452" y="637" on="0"/>
        <pt x="413" y="654" on="0"/>
        <pt x="399" y="662" on="1"/>
      </contour>
    </TTGlyph>
    <TTGlyph name="Kcommaaccent" xMin="20" yMin="-285" xMax="710" yMax="700">
      <component glyphName="K" x="0" y="0" flags="0x204"/>
      <component glyphName="uniF409" x="192" y="0" flags="0x4"/>
    </TTGlyph>
    <TTGlyph name="L" xMin="20" yMin="0" xMax="570" yMax="700">
      <contour>
        <pt x="20" y="700" on="1"/>
        <pt x="348" y="700" on="1"/>
        <pt x="348" y="662" on="1"/>
        <pt x="327" y="651" on="0"/>
        <pt x="276" y="636" on="0"/>
        <pt x="252" y="633" on="1"/>
        <pt x="252" y="65" on="1"/>
        <pt x="445" y="65" on="1"/>
        <pt x="512" y="244" on="1"/>
        <pt x="553" y="244" on="1"/>
        <pt x="557" y="221" on="0"/>
        <pt x="564" y="159" on="0"/>
        <pt x="568" y="91" on="0"/>
        <pt x="570" y="25" on="0"/>
        <pt x="569" y="0" on="1"/>
        <pt x="20" y="0" on="1"/>
        <pt x="20" y="38" on="1"/>
        <pt x="43" y="50" on="0"/>
        <pt x="84" y="64" on="0"/>
        <pt x="102" y="67" on="1"/>
        <pt x="102" y="633" on="1"/>
        <pt x="53" y="641" on="0"/>
        <pt x="20" y="662" on="1"/>
      </contour>
    </TTGlyph>
    <TTGlyph name="Lacute" xMin="20" yMin="0" xMax="570" yMax="899">
      <component glyphName="L" x="0" y="0" flags="0x204"/>
      <component glyphName="uniF6C9" x="90" y="0" flags="0x4"/>
    </TTGlyph>
    <TTGlyph name="Lcaron" xMin="20" yMin="0" xMax="570" yMax="717">
      <component glyphName="L" x="0" y="0" flags="0x4"/>
      <component glyphName="caron.L" x="50" y="0" flags="0x4"/>
    </TTGlyph>
    <TTGlyph name="Lcommaaccent" xMin="20" yMin="-285" xMax="570" yMax="700">
      <component glyphName="L" x="0" y="0" flags="0x204"/>
      <component glyphName="uniF409" x="137" y="0" flags="0x4"/>
    </TTGlyph>
    <TTGlyph name="Lslash" xMin="20" yMin="0" xMax="570" yMax="700">
      <contour>
        <pt x="20" y="700" on="1"/>
        <pt x="348" y="700" on="1"/>
        <pt x="348" y="662" on="1"/>
        <pt x="327" y="651" on="0"/>
        <pt x="276" y="636" on="0"/>
        <pt x="252" y="633" on="1"/>
        <pt x="252" y="419" on="1"/>
        <pt x="367" y="490" on="1"/>
        <pt x="367" y="411" on="1"/>
        <pt x="252" y="340" on="1"/>
        <pt x="252" y="65" on="1"/>
        <pt x="445" y="65" on="1"/>
        <pt x="512" y="244" on="1"/>
        <pt x="553" y="244" on="1"/>
        <pt x="557" y="221" on="0"/>
        <pt x="564" y="159" on="0"/>
        <pt x="568" y="91" on="0"/>
        <pt x="570" y="25" on="0"/>
        <pt x="569" y="0" on="1"/>
        <pt x="20" y="0" on="1"/>
        <pt x="20" y="38" on="1"/>
        <pt x="43" y="50" on="0"/>
        <pt x="84" y="64" on="0"/>
        <pt x="102" y="67" on="1"/>
        <pt x="102" y="248" on="1"/>
        <pt x="20" y="198" on="1"/>
        <pt x="20" y="277" on="1"/>
        <pt x="102" y="327" on="1"/>
        <pt x="102" y="633" on="1"/>
        <pt x="53" y="641" on="0"/>
        <pt x="20" y="662" on="1"/>
      </contour>
    </TTGlyph>
    <TTGlyph name="M" xMin="20" yMin="0" xMax="910" yMax="700">
      <contour>
        <pt x="909" y="0" on="1"/>
        <pt x="610" y="0" on="1"/>
        <pt x="610" y="38" on="1"/>
        <pt x="630" y="48" on="0"/>
        <pt x="668" y="62" on="0"/>
        <pt x="690" y="67" on="1"/>
        <pt x="690" y="485" on="1"/>
        <pt x="695" y="602" on="1"/>
        <pt x="687" y="602" on="1"/>
        <pt x="654" y="495" on="1"/>
        <pt x="461" y="0" on="1"/>
        <pt x="415" y="0" on="1"/>
        <pt x="223" y="491" on="1"/>
        <pt x="187" y="608" on="1"/>
        <pt x="178" y="608" on="1"/>
        <pt x="179" y="481" on="1"/>
        <pt x="179" y="71" on="1"/>
        <pt x="198" y="67" on="0"/>
        <pt x="244" y="49" on="0"/>
        <pt x="264" y="38" on="1"/>
        <pt x="264" y="0" on="1"/>
        <pt x="20" y="0" on="1"/>
        <pt x="20" y="38" on="1"/>
        <pt x="36" y="46" on="0"/>
        <pt x="83" y="68" on="0"/>
        <pt x="104" y="72" on="1"/>
        <pt x="104" y="633" on="1"/>
        <pt x="84" y="637" on="0"/>
        <pt x="39" y="651" on="0"/>
        <pt x="22" y="662" on="1"/>
        <pt x="22" y="700" on="1"/>
        <pt x="293" y="700" on="1"/>
        <pt x="446" y="293" on="1"/>
        <pt x="475" y="197" on="1"/>
        <pt x="476" y="197" on="1"/>
        <pt x="506" y="295" on="1"/>
        <pt x="662" y="700" on="1"/>
        <pt x="910" y="700" on="1"/>
        <pt x="910" y="662" on="1"/>
        <pt x="893" y="652" on="0"/>
        <pt x="854" y="637" on="0"/>
        <pt x="834" y="633" on="1"/>
        <pt x="834" y="66" on="1"/>
        <pt x="855" y="62" on="0"/>
        <pt x="894" y="46" on="0"/>
        <pt x="909" y="38" on="1"/>
      </contour>
    </TTGlyph>
    <TTGlyph name="N" xMin="20" yMin="-12" xMax="738" yMax="700">
      <contour>
        <pt x="490" y="700" on="1"/>
        <pt x="738" y="700" on="1"/>
        <pt x="738" y="662" on="1"/>
        <pt x="719" y="647" on="0"/>
        <pt x="673" y="624" on="0"/>
        <pt x="653" y="618" on="1"/>
        <pt x="653" y="-12" on="1"/>
        <pt x="568" y="-12" on="1"/>
        <pt x="215" y="498" on="1"/>
        <pt x="175" y="575" on="1"/>
        <pt x="172" y="575" on="1"/>
        <pt x="181" y="495" on="1"/>
        <pt x="181" y="78" on="1"/>
        <pt x="201" y="73" on="0"/>
        <pt x="250" y="50" on="0"/>
        <pt x="267" y="38" on="1"/>
        <pt x="267" y="0" on="1"/>
        <pt x="20" y="0" on="1"/>
        <pt x="20" y="38" on="1"/>
        <pt x="38" y="50" on="0"/>
        <pt x="81" y="71" on="0"/>
        <pt x="104" y="78" on="1"/>
        <pt x="104" y="624" on="1"/>
        <pt x="84" y="632" on="0"/>
        <pt x="44" y="652" on="0"/>
        <pt x="28" y="663" on="1"/>
        <pt x="28" y="700" on="1"/>
        <pt x="244" y="700" on="1"/>
        <pt x="531" y="284" on="1"/>
        <pt x="577" y="198" on="1"/>
        <pt x="581" y="198" on="1"/>
        <pt x="576" y="284" on="1"/>
        <pt x="576" y="618" on="1"/>
        <pt x="552" y="626" on="0"/>
        <pt x="507" y="649" on="0"/>
        <pt x="490" y="662" on="1"/>
      </contour>
    </TTGlyph>
    <TTGlyph name="Nacute" xMin="20" yMin="-12" xMax="738" yMax="899">
      <component glyphName="N" x="0" y="0" flags="0x204"/>
      <component glyphName="uniF6C9" x="255" y="0" flags="0x4"/>
    </TTGlyph>
    <TTGlyph name="Ncaron" xMin="20" yMin="-12" xMax="738" yMax="902">
      <component glyphName="N" x="0" y="0" flags="0x204"/>
      <component glyphName="uniF6CA" x="167" y="0" flags="0x4"/>
    </TTGlyph>
    <TTGlyph name="Ncommaaccent" xMin="20" yMin="-285" xMax="738" yMax="700">
      <component glyphName="N" x="0" y="0" flags="0x204"/>
      <component glyphName="uniF409" x="221" y="0" flags="0x4"/>
    </TTGlyph>
    <TTGlyph name="Ntilde" xMin="20" yMin="-12" xMax="738" yMax="876">
      <component glyphName="N" x="0" y="0" flags="0x204"/>
      <component glyphName="uniF40D" x="151" y="0" flags="0x4"/>
    </TTGlyph>
    <TTGlyph name="O" xMin="39" yMin="-12" xMax="714" yMax="712">
      <contour>
        <pt x="39" y="350" on="1"/>
        <pt x="39" y="428" on="0"/>
        <pt x="83" y="561" on="0"/>
        <pt x="169" y="658" on="0"/>
        <pt x="295" y="712" on="0"/>
        <pt x="377" y="712" on="1"/>
        <pt x="459" y="712" on="0"/>
        <pt x="585" y="658" on="0"/>
        <pt x="670" y="561" on="0"/>
        <pt x="714" y="428" on="0"/>
        <pt x="714" y="350" on="1"/>
        <pt x="714" y="272" on="0"/>
        <pt x="670" y="139" on="0"/>
        <pt x="585" y="42" on="0"/>
        <pt x="459" y="-12" on="0"/>
        <pt x="377" y="-12" on="1"/>
        <pt x="295" y="-12" on="0"/>
        <pt x="169" y="42" on="0"/>
        <pt x="83" y="139" on="0"/>
        <pt x="39" y="272" on="0"/>
      </contour>
      <contour>
        <pt x="209" y="350" on="1"/>
        <pt x="209" y="286" on="0"/>
        <pt x="229" y="177" on="0"/>
        <pt x="272" y="98" on="0"/>
        <pt x="339" y="53" on="0"/>
        <pt x="386" y="53" on="1"/>
        <pt x="429" y="53" on="0"/>
        <pt x="489" y="98" on="0"/>
        <pt x="527" y="177" on="0"/>
        <pt x="544" y="286" on="0"/>
        <pt x="544" y="350" on="1"/>
        <pt x="544" y="414" on="0"/>
        <pt x="525" y="523" on="0"/>
        <pt x="484" y="602" on="0"/>
        <pt x="417" y="647" on="0"/>
        <pt x="369" y="647" on="1"/>
        <pt x="323" y="647" on="0"/>
        <pt x="261" y="602" on="0"/>
        <pt x="224" y="523" on="0"/>
        <pt x="209" y="414" on="0"/>
      </contour>
    </TTGlyph>
    <TTGlyph name="OE" xMin="39" yMin="-12" xMax="940" yMax="712">
      <contour>
        <pt x="482" y="0" on="1"/>
        <pt x="459" y="-5" on="0"/>
        <pt x="400" y="-12" on="0"/>
        <pt x="375" y="-12" on="1"/>
        <pt x="293" y="-12" on="0"/>
        <pt x="167" y="42" on="0"/>
        <pt x="82" y="139" on="0"/>
        <pt x="39" y="272" on="0"/>
        <pt x="39" y="350" on="1"/>
        <pt x="39" y="428" on="0"/>
        <pt x="82" y="561" on="0"/>
        <pt x="167" y="658" on="0"/>
        <pt x="293" y="712" on="0"/>
        <pt x="375" y="712" on="1"/>
        <pt x="396" y="712" on="0"/>
        <pt x="457" y="705" on="0"/>
        <pt x="481" y="700" on="1"/>
        <pt x="925" y="700" on="1"/>
        <pt x="923" y="655" on="0"/>
        <pt x="913" y="559" on="0"/>
        <pt x="905" y="517" on="1"/>
        <pt x="864" y="517" on="1"/>
        <pt x="818" y="635" on="1"/>
        <pt x="631" y="635" on="1"/>
        <pt x="631" y="390" on="1"/>
        <pt x="753" y="390" on="1"/>
        <pt x="797" y="467" on="1"/>
        <pt x="829" y="467" on="1"/>
        <pt x="834" y="418" on="0"/>
        <pt x="834" y="298" on="0"/>
        <pt x="829" y="246" on="1"/>
        <pt x="797" y="246" on="1"/>
        <pt x="753" y="325" on="1"/>
        <pt x="631" y="325" on="1"/>
        <pt x="631" y="65" on="1"/>
        <pt x="826" y="65" on="1"/>
        <pt x="879" y="192" on="1"/>
        <pt x="920" y="192" on="1"/>
        <pt x="924" y="173" on="0"/>
        <pt x="932" y="125" on="0"/>
        <pt x="937" y="74" on="0"/>
        <pt x="940" y="22" on="0"/>
        <pt x="940" y="0" on="1"/>
      </contour>
      <contour>
        <pt x="386" y="53" on="1"/>
        <pt x="410" y="53" on="0"/>
        <pt x="461" y="66" on="0"/>
        <pt x="481" y="77" on="1"/>
        <pt x="481" y="617" on="1"/>
        <pt x="458" y="630" on="0"/>
        <pt x="400" y="647" on="0"/>
        <pt x="369" y="647" on="1"/>
        <pt x="323" y="647" on="0"/>
        <pt x="261" y="602" on="0"/>
        <pt x="224" y="523" on="0"/>
        <pt x="209" y="414" on="0"/>
        <pt x="209" y="350" on="1"/>
        <pt x="209" y="286" on="0"/>
        <pt x="229" y="177" on="0"/>
        <pt x="272" y="98" on="0"/>
        <pt x="339" y="53" on="0"/>
      </contour>
    </TTGlyph>
    <TTGlyph name="Oacute" xMin="39" yMin="-12" xMax="714" yMax="899">
      <component glyphName="O" x="0" y="0" flags="0x204"/>
      <component glyphName="uniF6C9" x="223" y="0" flags="0x4"/>
    </TTGlyph>
    <TTGlyph name="Ocircumflex" xMin="39" yMin="-12" xMax="714" yMax="893">
      <component glyphName="O" x="0" y="0" flags="0x204"/>
      <component glyphName="uniF408" x="160" y="0" flags="0x4"/>
    </TTGlyph>
    <TTGlyph name="Odieresis" xMin="39" yMin="-12" xMax="714" yMax="857">
      <component glyphName="O" x="0" y="0" flags="0x204"/>
      <component glyphName="uniF6CB" x="113" y="0" flags="0x4"/>
    </TTGlyph>
    <TTGlyph name="Ograve" xMin="39" yMin="-12" xMax="714" yMax="901">
      <component glyphName="O" x="0" y="0" flags="0x204"/>
      <component glyphName="uniF6CE" x="133" y="0" flags="0x4"/>
    </TTGlyph>
    <TTGlyph name="Ohungarumlaut" xMin="39" yMin="-12" xMax="714" yMax="889">
      <component glyphName="O" x="0" y="0" flags="0x204"/>
      <component glyphName="uniF6CF" x="180" y="0" flags="0x4"/>
    </TTGlyph>
    <TTGlyph name="Omacron" xMin="39" yMin="-12" xMax="714" yMax="849">
      <component glyphName="O" x="0" y="0" flags="0x204"/>
      <component glyphName="uniF6D0" x="155" y="0" flags="0x4"/>
    </TTGlyph>
    <TTGlyph name="Oslash" xMin="39" yMin="-18" xMax="714" yMax="718">
      <contour>
        <pt x="39" y="350" on="1"/>
        <pt x="39" y="428" on="0"/>
        <pt x="83" y="561" on="0"/>
        <pt x="169" y="658" on="0"/>
        <pt x="295" y="712" on="0"/>
        <pt x="377" y="712" on="1"/>
        <pt x="425" y="712" on="0"/>
        <pt x="507" y="692" on="0"/>
        <pt x="542" y="674" on="1"/>
        <pt x="569" y="718" on="1"/>
        <pt x="632" y="679" on="1"/>
        <pt x="603" y="633" on="1"/>
        <pt x="658" y="584" on="0"/>
        <pt x="714" y="439" on="0"/>
        <pt x="714" y="350" on="1"/>
        <pt x="714" y="272" on="0"/>
        <pt x="670" y="139" on="0"/>
        <pt x="585" y="42" on="0"/>
        <pt x="459" y="-12" on="0"/>
        <pt x="377" y="-12" on="1"/>
        <pt x="329" y="-12" on="0"/>
        <pt x="249" y="7" on="0"/>
        <pt x="214" y="24" on="1"/>
        <pt x="188" y="-18" on="1"/>
        <pt x="127" y="21" on="1"/>
        <pt x="153" y="63" on="1"/>
        <pt x="96" y="112" on="0"/>
        <pt x="39" y="259" on="0"/>
      </contour>
      <contour>
        <pt x="209" y="350" on="1"/>
        <pt x="209" y="305" on="0"/>
        <pt x="223" y="226" on="0"/>
        <pt x="237" y="194" on="1"/>
        <pt x="486" y="588" on="1"/>
        <pt x="466" y="616" on="0"/>
        <pt x="408" y="647" on="0"/>
        <pt x="369" y="647" on="1"/>
        <pt x="323" y="647" on="0"/>
        <pt x="261" y="602" on="0"/>
        <pt x="224" y="523" on="0"/>
        <pt x="209" y="414" on="0"/>
      </contour>
      <contour>
        <pt x="544" y="350" on="1"/>
        <pt x="544" y="393" on="0"/>
        <pt x="532" y="469" on="0"/>
        <pt x="518" y="501" on="1"/>
        <pt x="270" y="110" on="1"/>
        <pt x="312" y="53" on="0"/>
        <pt x="386" y="53" on="1"/>
        <pt x="429" y="53" on="0"/>
        <pt x="489" y="98" on="0"/>
        <pt x="527" y="177" on="0"/>
        <pt x="544" y="286" on="0"/>
      </contour>
    </TTGlyph>
    <TTGlyph name="Otilde" xMin="39" yMin="-12" xMax="714" yMax="876">
      <component glyphName="O" x="0" y="0" flags="0x204"/>
      <component glyphName="uniF40D" x="145" y="0" flags="0x4"/>
    </TTGlyph>
    <TTGlyph name="P" xMin="20" yMin="0" xMax="613" yMax="708">
      <contour>
        <pt x="252" y="67" on="1"/>
        <pt x="279" y="63" on="0"/>
        <pt x="332" y="48" on="0"/>
        <pt x="353" y="38" on="1"/>
        <pt x="353" y="0" on="1"/>
        <pt x="20" y="0" on="1"/>
        <pt x="20" y="38" on="1"/>
        <pt x="39" y="49" on="0"/>
        <pt x="82" y="63" on="0"/>
        <pt x="102" y="67" on="1"/>
        <pt x="102" y="633" on="1"/>
        <pt x="79" y="637" on="0"/>
        <pt x="37" y="652" on="0"/>
        <pt x="20" y="662" on="1"/>
        <pt x="20" y="700" on="1"/>
        <pt x="146" y="700" on="1"/>
        <pt x="186" y="700" on="0"/>
        <pt x="289" y="708" on="0"/>
        <pt x="332" y="708" on="1"/>
        <pt x="385" y="708" on="0"/>
        <pt x="486" y="687" on="0"/>
        <pt x="565" y="637" on="0"/>
        <pt x="613" y="554" on="0"/>
        <pt x="613" y="492" on="1"/>
        <pt x="613" y="433" on="0"/>
        <pt x="566" y="347" on="0"/>
        <pt x="488" y="291" on="0"/>
        <pt x="386" y="264" on="0"/>
        <pt x="332" y="264" on="1"/>
        <pt x="327" y="264" on="0"/>
        <pt x="305" y="264" on="0"/>
        <pt x="280" y="265" on="0"/>
        <pt x="257" y="266" on="0"/>
        <pt x="252" y="267" on="1"/>
      </contour>
      <contour>
        <pt x="306" y="643" on="1"/>
        <pt x="286" y="643" on="0"/>
        <pt x="263" y="640" on="0"/>
        <pt x="252" y="637" on="1"/>
        <pt x="252" y="333" on="1"/>
        <pt x="261" y="330" on="0"/>
        <pt x="297" y="329" on="0"/>
        <pt x="308" y="329" on="1"/>
        <pt x="335" y="329" on="0"/>
        <pt x="385" y="347" on="0"/>
        <pt x="424" y="385" on="0"/>
        <pt x="448" y="445" on="0"/>
        <pt x="448" y="487" on="1"/>
        <pt x="448" y="567" on="0"/>
        <pt x="370" y="643" on="0"/>
      </contour>
    </TTGlyph>
    <TTGlyph name="Q" xMin="39" yMin="-210" xMax="774" yMax="712">
      <contour>
        <pt x="774" y="-112" on="1"/>
        <pt x="756" y="-131" on="0"/>
        <pt x="715" y="-166" on="0"/>
        <pt x="670" y="-194" on="0"/>
        <pt x="620" y="-210" on="0"/>
        <pt x="593" y="-210" on="1"/>
        <pt x="547" y="-210" on="0"/>
        <pt x="454" y="-177" on="0"/>
        <pt x="353" y="-134" on="0"/>
        <pt x="242" y="-94" on="0"/>
        <pt x="177" y="-86" on="1"/>
        <pt x="202" y="-42" on="1"/>
        <pt x="250" y="-33" on="0"/>
        <pt x="343" y="-42" on="0"/>
        <pt x="434" y="-63" on="0"/>
        <pt x="525" y="-89" on="0"/>
        <pt x="617" y="-105" on="0"/>
        <pt x="713" y="-104" on="0"/>
        <pt x="764" y="-87" on="1"/>
      </contour>
      <contour>
        <pt x="39" y="350" on="1"/>
        <pt x="39" y="428" on="0"/>
        <pt x="83" y="561" on="0"/>
        <pt x="169" y="658" on="0"/>
        <pt x="295" y="712" on="0"/>
        <pt x="377" y="712" on="1"/>
        <pt x="459" y="712" on="0"/>
        <pt x="585" y="658" on="0"/>
        <pt x="670" y="561" on="0"/>
        <pt x="714" y="428" on="0"/>
        <pt x="714" y="350" on="1"/>
        <pt x="714" y="272" on="0"/>
        <pt x="670" y="139" on="0"/>
        <pt x="585" y="42" on="0"/>
        <pt x="459" y="-12" on="0"/>
        <pt x="377" y="-12" on="1"/>
        <pt x="295" y="-12" on="0"/>
        <pt x="169" y="42" on="0"/>
        <pt x="83" y="139" on="0"/>
        <pt x="39" y="272" on="0"/>
      </contour>
      <contour>
        <pt x="209" y="350" on="1"/>
        <pt x="209" y="286" on="0"/>
        <pt x="229" y="177" on="0"/>
        <pt x="272" y="98" on="0"/>
        <pt x="339" y="53" on="0"/>
        <pt x="386" y="53" on="1"/>
        <pt x="429" y="53" on="0"/>
        <pt x="489" y="98" on="0"/>
        <pt x="527" y="177" on="0"/>
        <pt x="544" y="286" on="0"/>
        <pt x="544" y="350" on="1"/>
        <pt x="544" y="414" on="0"/>
        <pt x="525" y="523" on="0"/>
        <pt x="484" y="602" on="0"/>
        <pt x="417" y="647" on="0"/>
        <pt x="369" y="647" on="1"/>
        <pt x="323" y="647" on="0"/>
        <pt x="261" y="602" on="0"/>
        <pt x="224" y="523" on="0"/>
        <pt x="209" y="414" on="0"/>
      </contour>
    </TTGlyph>
    <TTGlyph name="R" xMin="20" yMin="0" xMax="687" yMax="708">
      <contour>
        <pt x="252" y="67" on="1"/>
        <pt x="275" y="62" on="0"/>
        <pt x="311" y="46" on="0"/>
        <pt x="328" y="38" on="1"/>
        <pt x="328" y="0" on="1"/>
        <pt x="20" y="0" on="1"/>
        <pt x="20" y="38" on="1"/>
        <pt x="42" y="50" on="0"/>
        <pt x="82" y="63" on="0"/>
        <pt x="102" y="67" on="1"/>
        <pt x="102" y="633" on="1"/>
        <pt x="52" y="644" on="0"/>
        <pt x="20" y="662" on="1"/>
        <pt x="20" y="700" on="1"/>
        <pt x="126" y="700" on="1"/>
        <pt x="146" y="700" on="0"/>
        <pt x="197" y="702" on="0"/>
        <pt x="253" y="705" on="0"/>
        <pt x="311" y="708" on="0"/>
        <pt x="338" y="708" on="1"/>
        <pt x="393" y="708" on="0"/>
        <pt x="486" y="683" on="0"/>
        <pt x="553" y="633" on="0"/>
        <pt x="590" y="558" on="0"/>
        <pt x="590" y="508" on="1"/>
        <pt x="590" y="436" on="0"/>
        <pt x="520" y="344" on="0"/>
        <pt x="459" y="321" on="1"/>
        <pt x="499" y="258" on="0"/>
        <pt x="589" y="127" on="0"/>
        <pt x="639" y="66" on="1"/>
        <pt x="687" y="34" on="1"/>
        <pt x="687" y="0" on="1"/>
        <pt x="520" y="0" on="1"/>
        <pt x="477" y="33" on="1"/>
        <pt x="431" y="88" on="0"/>
        <pt x="360" y="233" on="0"/>
        <pt x="333" y="303" on="1"/>
        <pt x="252" y="303" on="1"/>
      </contour>
      <contour>
        <pt x="302" y="643" on="1"/>
        <pt x="271" y="643" on="0"/>
        <pt x="252" y="637" on="1"/>
        <pt x="252" y="358" on="1"/>
        <pt x="311" y="358" on="1"/>
        <pt x="362" y="358" on="0"/>
        <pt x="434" y="431" on="0"/>
        <pt x="434" y="503" on="1"/>
        <pt x="434" y="540" on="0"/>
        <pt x="414" y="593" on="0"/>
        <pt x="378" y="627" on="0"/>
        <pt x="330" y="643" on="0"/>
      </contour>
    </TTGlyph>
    <TTGlyph name="Racute" xMin="20" yMin="0" xMax="687" yMax="899">
      <component glyphName="R" x="0" y="0" flags="0x204"/>
      <component glyphName="uniF6C9" x="180" y="0" flags="0x4"/>
    </TTGlyph>
    <TTGlyph name="Rcaron" xMin="20" yMin="0" xMax="687" yMax="902">
      <component glyphName="R" x="0" y="0" flags="0x204"/>
      <component glyphName="uniF6CA" x="87" y="0" flags="0x4"/>
    </TTGlyph>
    <TTGlyph name="Rcommaaccent" xMin="20" yMin="-285" xMax="687" yMax="708">
      <component glyphName="R" x="0" y="0" flags="0x204"/>
      <component glyphName="uniF409" x="177" y="0" flags="0x4"/>
    </TTGlyph>
    <TTGlyph name="S" xMin="42" yMin="-12" xMax="519" yMax="712">
      <contour>
        <pt x="157" y="83" on="1"/>
        <pt x="168" y="72" on="0"/>
        <pt x="208" y="53" on="0"/>
        <pt x="241" y="53" on="1"/>
        <pt x="296" y="53" on="0"/>
        <pt x="369" y="110" on="0"/>
        <pt x="369" y="161" on="1"/>
        <pt x="369" y="198" on="0"/>
        <pt x="322" y="248" on="0"/>
        <pt x="250" y="290" on="0"/>
        <pt x="168" y="331" on="0"/>
        <pt x="96" y="387" on="0"/>
        <pt x="49" y="464" on="0"/>
        <pt x="49" y="521" on="1"/>
        <pt x="49" y="570" on="0"/>
        <pt x="85" y="642" on="0"/>
        <pt x="148" y="689" on="0"/>
        <pt x="234" y="712" on="0"/>
        <pt x="284" y="712" on="1"/>
        <pt x="345" y="712" on="0"/>
        <pt x="450" y="695" on="0"/>
        <pt x="492" y="677" on="1"/>
        <pt x="491" y="657" on="0"/>
        <pt x="486" y="605" on="0"/>
        <pt x="478" y="554" on="0"/>
        <pt x="469" y="509" on="0"/>
        <pt x="465" y="494" on="1"/>
        <pt x="424" y="494" on="1"/>
        <pt x="378" y="631" on="1"/>
        <pt x="366" y="637" on="0"/>
        <pt x="319" y="647" on="0"/>
        <pt x="294" y="647" on="1"/>
        <pt x="252" y="647" on="0"/>
        <pt x="194" y="603" on="0"/>
        <pt x="194" y="561" on="1"/>
        <pt x="194" y="523" on="0"/>
        <pt x="242" y="470" on="0"/>
        <pt x="314" y="426" on="0"/>
        <pt x="399" y="383" on="0"/>
        <pt x="471" y="327" on="0"/>
        <pt x="519" y="252" on="0"/>
        <pt x="519" y="197" on="1"/>
        <pt x="519" y="97" on="0"/>
        <pt x="384" y="-12" on="0"/>
        <pt x="253" y="-12" on="1"/>
        <pt x="221" y="-12" on="0"/>
        <pt x="156" y="-4" on="0"/>
        <pt x="98" y="10" on="0"/>
        <pt x="53" y="26" on="0"/>
        <pt x="42" y="35" on="1"/>
        <pt x="43" y="58" on="0"/>
        <pt x="51" y="111" on="0"/>
        <pt x="60" y="164" on="0"/>
        <pt x="70" y="212" on="0"/>
        <pt x="75" y="230" on="1"/>
        <pt x="116" y="230" on="1"/>
      </contour>
    </TTGlyph>
    <TTGlyph name="Sacute" xMin="42" yMin="-12" xMax="519" yMax="899">
      <component glyphName="S" x="0" y="0" flags="0x204"/>
      <component glyphName="uniF6C9" x="173" y="0" flags="0x4"/>
    </TTGlyph>
    <TTGlyph name="Scaron" xMin="42" yMin="-12" xMax="519" yMax="902">
      <component glyphName="S" x="0" y="0" flags="0x204"/>
      <component glyphName="uniF6CA" x="84" y="0" flags="0x4"/>
    </TTGlyph>
    <TTGlyph name="Scedilla" xMin="42" yMin="-285" xMax="519" yMax="712">
      <contour>
        <pt x="157" y="83" on="1"/>
        <pt x="168" y="72" on="0"/>
        <pt x="208" y="53" on="0"/>
        <pt x="241" y="53" on="1"/>
        <pt x="296" y="53" on="0"/>
        <pt x="369" y="110" on="0"/>
        <pt x="369" y="161" on="1"/>
        <pt x="369" y="198" on="0"/>
        <pt x="322" y="248" on="0"/>
        <pt x="250" y="290" on="0"/>
        <pt x="168" y="331" on="0"/>
        <pt x="96" y="387" on="0"/>
        <pt x="49" y="464" on="0"/>
        <pt x="49" y="521" on="1"/>
        <pt x="49" y="570" on="0"/>
        <pt x="85" y="642" on="0"/>
        <pt x="148" y="689" on="0"/>
        <pt x="234" y="712" on="0"/>
        <pt x="284" y="712" on="1"/>
        <pt x="345" y="712" on="0"/>
        <pt x="450" y="695" on="0"/>
        <pt x="492" y="677" on="1"/>
        <pt x="491" y="657" on="0"/>
        <pt x="486" y="605" on="0"/>
        <pt x="478" y="554" on="0"/>
        <pt x="469" y="509" on="0"/>
        <pt x="465" y="494" on="1"/>
        <pt x="424" y="494" on="1"/>
        <pt x="378" y="631" on="1"/>
        <pt x="366" y="637" on="0"/>
        <pt x="319" y="647" on="0"/>
        <pt x="294" y="647" on="1"/>
        <pt x="252" y="647" on="0"/>
        <pt x="194" y="603" on="0"/>
        <pt x="194" y="561" on="1"/>
        <pt x="194" y="523" on="0"/>
        <pt x="242" y="470" on="0"/>
        <pt x="314" y="426" on="0"/>
        <pt x="399" y="383" on="0"/>
        <pt x="471" y="327" on="0"/>
        <pt x="519" y="252" on="0"/>
        <pt x="519" y="197" on="1"/>
        <pt x="519" y="104" on="0"/>
        <pt x="402" y="-2" on="0"/>
        <pt x="289" y="-10" on="1"/>
        <pt x="264" y="-70" on="1"/>
        <pt x="324" y="-72" on="0"/>
        <pt x="399" y="-115" on="0"/>
        <pt x="399" y="-159" on="1"/>
        <pt x="399" y="-192" on="0"/>
        <pt x="354" y="-240" on="0"/>
        <pt x="289" y="-271" on="0"/>
        <pt x="216" y="-285" on="0"/>
        <pt x="187" y="-285" on="1"/>
        <pt x="187" y="-239" on="1"/>
        <pt x="222" y="-234" on="0"/>
        <pt x="267" y="-204" on="0"/>
        <pt x="266" y="-176" on="1"/>
        <pt x="265" y="-153" on="0"/>
        <pt x="232" y="-127" on="0"/>
        <pt x="190" y="-125" on="1"/>
        <pt x="226" y="-11" on="1"/>
        <pt x="197" y="-10" on="0"/>
        <pt x="139" y="-1" on="0"/>
        <pt x="90" y="12" on="0"/>
        <pt x="52" y="27" on="0"/>
        <pt x="42" y="35" on="1"/>
        <pt x="43" y="58" on="0"/>
        <pt x="51" y="111" on="0"/>
        <pt x="60" y="164" on="0"/>
        <pt x="70" y="212" on="0"/>
        <pt x="75" y="230" on="1"/>
        <pt x="116" y="230" on="1"/>
      </contour>
    </TTGlyph>
    <TTGlyph name="Scircumflex" xMin="42" yMin="-12" xMax="519" yMax="893">
      <component glyphName="S" x="0" y="0" flags="0x204"/>
      <component glyphName="uniF408" x="81" y="0" flags="0x4"/>
    </TTGlyph>
    <TTGlyph name="Scommaaccent" xMin="42" yMin="-285" xMax="519" yMax="712">
      <component glyphName="S" x="0" y="0" flags="0x204"/>
      <component glyphName="uniF409" x="126" y="0" flags="0x4"/>
    </TTGlyph>
    <TTGlyph name="T" xMin="15" yMin="0" xMax="652" yMax="700">
      <contour>
        <pt x="505" y="0" on="1"/>
        <pt x="161" y="0" on="1"/>
        <pt x="161" y="38" on="1"/>
        <pt x="181" y="46" on="0"/>
        <pt x="232" y="63" on="0"/>
        <pt x="258" y="67" on="1"/>
        <pt x="258" y="635" on="1"/>
        <pt x="142" y="635" on="1"/>
        <pt x="78" y="464" on="1"/>
        <pt x="37" y="464" on="1"/>
        <pt x="33" y="484" on="0"/>
        <pt x="25" y="546" on="0"/>
        <pt x="19" y="612" on="0"/>
        <pt x="15" y="677" on="0"/>
        <pt x="15" y="700" on="1"/>
        <pt x="652" y="700" on="1"/>
        <pt x="652" y="676" on="0"/>
        <pt x="648" y="612" on="0"/>
        <pt x="642" y="546" on="0"/>
        <pt x="634" y="485" on="0"/>
        <pt x="630" y="464" on="1"/>
        <pt x="588" y="464" on="1"/>
        <pt x="524" y="635" on="1"/>
        <pt x="408" y="635" on="1"/>
        <pt x="408" y="67" on="1"/>
        <pt x="434" y="62" on="0"/>
        <pt x="485" y="48" on="0"/>
        <pt x="505" y="38" on="1"/>
      </contour>
    </TTGlyph>
    <TTGlyph name="Tcaron" xMin="15" yMin="0" xMax="652" yMax="902">
      <component glyphName="T" x="0" y="0" flags="0x204"/>
      <component glyphName="uniF6CA" x="120" y="0" flags="0x4"/>
    </TTGlyph>
    <TTGlyph name="Tcedilla" xMin="15" yMin="-285" xMax="652" yMax="700">
      <contour>
        <pt x="505" y="0" on="1"/>
        <pt x="362" y="0" on="1"/>
        <pt x="333" y="-70" on="1"/>
        <pt x="393" y="-72" on="0"/>
        <pt x="468" y="-115" on="0"/>
        <pt x="468" y="-159" on="1"/>
        <pt x="468" y="-192" on="0"/>
        <pt x="423" y="-240" on="0"/>
        <pt x="358" y="-271" on="0"/>
        <pt x="285" y="-285" on="0"/>
        <pt x="256" y="-285" on="1"/>
        <pt x="256" y="-239" on="1"/>
        <pt x="291" y="-234" on="0"/>
        <pt x="336" y="-204" on="0"/>
        <pt x="335" y="-176" on="1"/>
        <pt x="334" y="-153" on="0"/>
        <pt x="301" y="-127" on="0"/>
        <pt x="259" y="-125" on="1"/>
        <pt x="298" y="0" on="1"/>
        <pt x="161" y="0" on="1"/>
        <pt x="161" y="38" on="1"/>
        <pt x="181" y="46" on="0"/>
        <pt x="232" y="63" on="0"/>
        <pt x="258" y="67" on="1"/>
        <pt x="258" y="635" on="1"/>
        <pt x="142" y="635" on="1"/>
        <pt x="78" y="464" on="1"/>
        <pt x="37" y="464" on="1"/>
        <pt x="33" y="484" on="0"/>
        <pt x="25" y="546" on="0"/>
        <pt x="19" y="612" on="0"/>
        <pt x="15" y="677" on="0"/>
        <pt x="15" y="700" on="1"/>
        <pt x="652" y="700" on="1"/>
        <pt x="652" y="676" on="0"/>
        <pt x="648" y="612" on="0"/>
        <pt x="642" y="546" on="0"/>
        <pt x="634" y="485" on="0"/>
        <pt x="630" y="464" on="1"/>
        <pt x="588" y="464" on="1"/>
        <pt x="524" y="635" on="1"/>
        <pt x="408" y="635" on="1"/>
        <pt x="408" y="67" on="1"/>
        <pt x="434" y="62" on="0"/>
        <pt x="485" y="48" on="0"/>
        <pt x="505" y="38" on="1"/>
      </contour>
    </TTGlyph>
    <TTGlyph name="Tcommaaccent" xMin="15" yMin="-285" xMax="652" yMax="700">
      <component glyphName="T" x="0" y="0" flags="0x204"/>
      <component glyphName="uniF409" x="185" y="0" flags="0x4"/>
    </TTGlyph>
    <TTGlyph name="Thorn" xMin="20" yMin="0" xMax="608" yMax="700">
      <contour>
        <pt x="252" y="63" on="1"/>
        <pt x="279" y="60" on="0"/>
        <pt x="332" y="43" on="0"/>
        <pt x="353" y="33" on="1"/>
        <pt x="353" y="0" on="1"/>
        <pt x="20" y="0" on="1"/>
        <pt x="20" y="33" on="1"/>
        <pt x="39" y="44" on="0"/>
        <pt x="82" y="58" on="0"/>
        <pt x="102" y="62" on="1"/>
        <pt x="102" y="638" on="1"/>
        <pt x="82" y="641" on="0"/>
        <pt x="38" y="657" on="0"/>
        <pt x="21" y="667" on="1"/>
        <pt x="21" y="700" on="1"/>
        <pt x="333" y="700" on="1"/>
        <pt x="333" y="667" on="1"/>
        <pt x="315" y="656" on="0"/>
        <pt x="272" y="641" on="0"/>
        <pt x="252" y="638" on="1"/>
        <pt x="252" y="593" on="1"/>
        <pt x="272" y="595" on="0"/>
        <pt x="320" y="598" on="0"/>
        <pt x="339" y="598" on="1"/>
        <pt x="392" y="598" on="0"/>
        <pt x="489" y="577" on="0"/>
        <pt x="564" y="529" on="0"/>
        <pt x="608" y="450" on="0"/>
        <pt x="608" y="391" on="1"/>
        <pt x="608" y="335" on="0"/>
        <pt x="563" y="253" on="0"/>
        <pt x="486" y="199" on="0"/>
        <pt x="386" y="172" on="0"/>
        <pt x="332" y="172" on="1"/>
        <pt x="327" y="172" on="0"/>
        <pt x="305" y="172" on="0"/>
        <pt x="280" y="173" on="0"/>
        <pt x="257" y="174" on="0"/>
        <pt x="252" y="175" on="1"/>
      </contour>
      <contour>
        <pt x="306" y="533" on="1"/>
        <pt x="286" y="533" on="0"/>
        <pt x="263" y="530" on="0"/>
        <pt x="252" y="527" on="1"/>
        <pt x="252" y="241" on="1"/>
        <pt x="261" y="238" on="0"/>
        <pt x="297" y="237" on="0"/>
        <pt x="308" y="237" on="1"/>
        <pt x="335" y="237" on="0"/>
        <pt x="383" y="254" on="0"/>
        <pt x="421" y="290" on="0"/>
        <pt x="443" y="346" on="0"/>
        <pt x="443" y="386" on="1"/>
        <pt x="443" y="461" on="0"/>
        <pt x="370" y="533" on="0"/>
      </contour>
    </TTGlyph>
    <TTGlyph name="U" xMin="7" yMin="-9" xMax="710" yMax="700">
      <contour>
        <pt x="7" y="700" on="1"/>
        <pt x="315" y="700" on="1"/>
        <pt x="315" y="662" on="1"/>
        <pt x="282" y="641" on="0"/>
        <pt x="239" y="633" on="1"/>
        <pt x="239" y="248" on="1"/>
        <pt x="239" y="199" on="0"/>
        <pt x="261" y="133" on="0"/>
        <pt x="303" y="92" on="0"/>
        <pt x="362" y="74" on="0"/>
        <pt x="399" y="74" on="1"/>
        <pt x="432" y="74" on="0"/>
        <pt x="487" y="93" on="0"/>
        <pt x="528" y="135" on="0"/>
        <pt x="550" y="203" on="0"/>
        <pt x="550" y="253" on="1"/>
        <pt x="550" y="628" on="1"/>
        <pt x="527" y="633" on="0"/>
        <pt x="478" y="651" on="0"/>
        <pt x="462" y="662" on="1"/>
        <pt x="462" y="700" on="1"/>
        <pt x="710" y="700" on="1"/>
        <pt x="710" y="662" on="1"/>
        <pt x="692" y="649" on="0"/>
        <pt x="648" y="633" on="0"/>
        <pt x="627" y="628" on="1"/>
        <pt x="627" y="252" on="1"/>
        <pt x="627" y="124" on="0"/>
        <pt x="492" y="-9" on="0"/>
        <pt x="369" y="-9" on="1"/>
        <pt x="235" y="-9" on="0"/>
        <pt x="89" y="111" on="0"/>
        <pt x="89" y="243" on="1"/>
        <pt x="89" y="633" on="1"/>
        <pt x="69" y="636" on="0"/>
        <pt x="25" y="651" on="0"/>
        <pt x="7" y="662" on="1"/>
      </contour>
    </TTGlyph>
    <TTGlyph name="Uacute" xMin="7" yMin="-9" xMax="710" yMax="899">
      <component glyphName="U" x="0" y="0" flags="0x204"/>
      <component glyphName="uniF6C9" x="297" y="0" flags="0x4"/>
    </TTGlyph>
    <TTGlyph name="Ubreve" xMin="7" yMin="-9" xMax="710" yMax="902">
      <component glyphName="U" x="0" y="0" flags="0x204"/>
      <component glyphName="uniF406" x="158" y="0" flags="0x4"/>
    </TTGlyph>
    <TTGlyph name="Ucircumflex" xMin="7" yMin="-9" xMax="710" yMax="893">
      <component glyphName="U" x="0" y="0" flags="0x204"/>
      <component glyphName="uniF408" x="175" y="0" flags="0x4"/>
    </TTGlyph>
    <TTGlyph name="Udieresis" xMin="7" yMin="-9" xMax="710" yMax="857">
      <component glyphName="U" x="0" y="0" flags="0x204"/>
      <component glyphName="uniF6CB" x="126" y="0" flags="0x4"/>
    </TTGlyph>
    <TTGlyph name="Ugrave" xMin="7" yMin="-9" xMax="710" yMax="901">
      <component glyphName="U" x="0" y="0" flags="0x204"/>
      <component glyphName="uniF6CE" x="122" y="0" flags="0x4"/>
    </TTGlyph>
    <TTGlyph name="Uhungarumlaut" xMin="7" yMin="-9" xMax="710" yMax="889">
      <component glyphName="U" x="0" y="0" flags="0x204"/>
      <component glyphName="uniF6CF" x="204" y="0" flags="0x4"/>
    </TTGlyph>
    <TTGlyph name="Umacron" xMin="7" yMin="-9" xMax="710" yMax="849">
      <component glyphName="U" x="0" y="0" flags="0x204"/>
      <component glyphName="uniF6D0" x="169" y="0" flags="0x4"/>
    </TTGlyph>
    <TTGlyph name="Uogonek" xMin="7" yMin="-255" xMax="710" yMax="700">
      <contour>
        <pt x="7" y="700" on="1"/>
        <pt x="315" y="700" on="1"/>
        <pt x="315" y="662" on="1"/>
        <pt x="282" y="641" on="0"/>
        <pt x="239" y="633" on="1"/>
        <pt x="239" y="248" on="1"/>
        <pt x="239" y="199" on="0"/>
        <pt x="261" y="133" on="0"/>
        <pt x="303" y="92" on="0"/>
        <pt x="362" y="74" on="0"/>
        <pt x="399" y="74" on="1"/>
        <pt x="432" y="74" on="0"/>
        <pt x="487" y="93" on="0"/>
        <pt x="528" y="135" on="0"/>
        <pt x="550" y="203" on="0"/>
        <pt x="550" y="253" on="1"/>
        <pt x="550" y="628" on="1"/>
        <pt x="527" y="633" on="0"/>
        <pt x="478" y="651" on="0"/>
        <pt x="462" y="662" on="1"/>
        <pt x="462" y="700" on="1"/>
        <pt x="710" y="700" on="1"/>
        <pt x="710" y="662" on="1"/>
        <pt x="692" y="649" on="0"/>
        <pt x="648" y="633" on="0"/>
        <pt x="627" y="628" on="1"/>
        <pt x="627" y="252" on="1"/>
        <pt x="627" y="159" on="0"/>
        <pt x="556" y="39" on="0"/>
        <pt x="489" y="12" on="1"/>
        <pt x="465" y="-1" on="0"/>
        <pt x="427" y="-36" on="0"/>
        <pt x="402" y="-76" on="0"/>
        <pt x="388" y="-117" on="0"/>
        <pt x="388" y="-135" on="1"/>
        <pt x="388" y="-161" on="0"/>
        <pt x="420" y="-189" on="0"/>
        <pt x="442" y="-189" on="1"/>
        <pt x="454" y="-189" on="0"/>
        <pt x="476" y="-187" on="0"/>
        <pt x="488" y="-184" on="1"/>
        <pt x="488" y="-227" on="1"/>
        <pt x="474" y="-238" on="0"/>
        <pt x="420" y="-255" on="0"/>
        <pt x="388" y="-255" on="1"/>
        <pt x="327" y="-255" on="0"/>
        <pt x="261" y="-198" on="0"/>
        <pt x="261" y="-157" on="1"/>
        <pt x="261" y="-106" on="0"/>
        <pt x="330" y="-37" on="0"/>
        <pt x="385" y="-9" on="1"/>
        <pt x="369" y="-9" on="1"/>
        <pt x="235" y="-9" on="0"/>
        <pt x="89" y="111" on="0"/>
        <pt x="89" y="243" on="1"/>
        <pt x="89" y="633" on="1"/>
        <pt x="69" y="636" on="0"/>
        <pt x="25" y="651" on="0"/>
        <pt x="7" y="662" on="1"/>
      </contour>
    </TTGlyph>
    <TTGlyph name="Uring" xMin="7" yMin="-9" xMax="710" yMax="878">
      <component glyphName="U" x="0" y="0" flags="0x204"/>
      <component glyphName="uniF40C" x="202" y="0" flags="0x4"/>
    </TTGlyph>
    <TTGlyph name="V" xMin="0" yMin="-12" xMax="734" yMax="700">
      <contour>
        <pt x="564" y="633" on="1"/>
        <pt x="540" y="638" on="0"/>
        <pt x="497" y="654" on="0"/>
        <pt x="480" y="662" on="1"/>
        <pt x="480" y="700" on="1"/>
        <pt x="734" y="700" on="1"/>
        <pt x="734" y="662" on="1"/>
        <pt x="722" y="654" on="0"/>
        <pt x="683" y="638" on="0"/>
        <pt x="662" y="633" on="1"/>
        <pt x="432" y="0" on="1"/>
        <pt x="333" y="-12" on="1"/>
        <pt x="75" y="633" on="1"/>
        <pt x="55" y="638" on="0"/>
        <pt x="15" y="653" on="0"/>
        <pt x="0" y="662" on="1"/>
        <pt x="0" y="700" on="1"/>
        <pt x="333" y="700" on="1"/>
        <pt x="333" y="662" on="1"/>
        <pt x="316" y="654" on="0"/>
        <pt x="274" y="638" on="0"/>
        <pt x="251" y="633" on="1"/>
        <pt x="391" y="239" on="1"/>
        <pt x="414" y="145" on="1"/>
        <pt x="416" y="145" on="1"/>
        <pt x="438" y="241" on="1"/>
      </contour>
    </TTGlyph>
    <TTGlyph name="W" xMin="0" yMin="-12" xMax="1033" yMax="700">
      <contour>
        <pt x="865" y="633" on="1"/>
        <pt x="825" y="639" on="0"/>
        <pt x="781" y="662" on="1"/>
        <pt x="781" y="700" on="1"/>
        <pt x="1033" y="700" on="1"/>
        <pt x="1033" y="662" on="1"/>
        <pt x="1016" y="651" on="0"/>
        <pt x="978" y="637" on="0"/>
        <pt x="960" y="633" on="1"/>
        <pt x="783" y="0" on="1"/>
        <pt x="679" y="-12" on="1"/>
        <pt x="524" y="472" on="1"/>
        <pt x="373" y="0" on="1"/>
        <pt x="268" y="-12" on="1"/>
        <pt x="73" y="633" on="1"/>
        <pt x="52" y="637" on="0"/>
        <pt x="16" y="652" on="0"/>
        <pt x="0" y="662" on="1"/>
        <pt x="0" y="700" on="1"/>
        <pt x="324" y="700" on="1"/>
        <pt x="324" y="662" on="1"/>
        <pt x="307" y="653" on="0"/>
        <pt x="264" y="638" on="0"/>
        <pt x="241" y="633" on="1"/>
        <pt x="334" y="280" on="1"/>
        <pt x="355" y="150" on="1"/>
        <pt x="357" y="150" on="1"/>
        <pt x="392" y="285" on="1"/>
        <pt x="525" y="700" on="1"/>
        <pt x="584" y="700" on="1"/>
        <pt x="726" y="290" on="1"/>
        <pt x="760" y="160" on="1"/>
        <pt x="762" y="160" on="1"/>
        <pt x="785" y="292" on="1"/>
      </contour>
    </TTGlyph>
    <TTGlyph name="X" xMin="12" yMin="0" xMax="721" yMax="700">
      <contour>
        <pt x="435" y="700" on="1"/>
        <pt x="683" y="700" on="1"/>
        <pt x="683" y="662" on="1"/>
        <pt x="668" y="654" on="0"/>
        <pt x="635" y="638" on="0"/>
        <pt x="615" y="633" on="1"/>
        <pt x="437" y="372" on="1"/>
        <pt x="644" y="67" on="1"/>
        <pt x="667" y="62" on="0"/>
        <pt x="704" y="47" on="0"/>
        <pt x="721" y="38" on="1"/>
        <pt x="721" y="0" on="1"/>
        <pt x="397" y="0" on="1"/>
        <pt x="397" y="38" on="1"/>
        <pt x="413" y="47" on="0"/>
        <pt x="448" y="62" on="0"/>
        <pt x="468" y="67" on="1"/>
        <pt x="326" y="287" on="1"/>
        <pt x="194" y="66" on="1"/>
        <pt x="215" y="63" on="0"/>
        <pt x="251" y="49" on="0"/>
        <pt x="268" y="38" on="1"/>
        <pt x="268" y="0" on="1"/>
        <pt x="12" y="0" on="1"/>
        <pt x="12" y="38" on="1"/>
        <pt x="45" y="58" on="0"/>
        <pt x="80" y="67" on="1"/>
        <pt x="281" y="352" on="1"/>
        <pt x="93" y="633" on="1"/>
        <pt x="74" y="638" on="0"/>
        <pt x="40" y="654" on="0"/>
        <pt x="24" y="662" on="1"/>
        <pt x="24" y="700" on="1"/>
        <pt x="341" y="700" on="1"/>
        <pt x="341" y="662" on="1"/>
        <pt x="329" y="655" on="0"/>
        <pt x="293" y="640" on="0"/>
        <pt x="269" y="633" on="1"/>
        <pt x="391" y="432" on="1"/>
        <pt x="511" y="633" on="1"/>
        <pt x="491" y="637" on="0"/>
        <pt x="451" y="654" on="0"/>
        <pt x="435" y="662" on="1"/>
      </contour>
    </TTGlyph>
    <TTGlyph name="Y" xMin="0" yMin="0" xMax="698" yMax="700">
      <contour>
        <pt x="453" y="700" on="1"/>
        <pt x="698" y="700" on="1"/>
        <pt x="698" y="662" on="1"/>
        <pt x="683" y="653" on="0"/>
        <pt x="646" y="636" on="0"/>
        <pt x="627" y="633" on="1"/>
        <pt x="433" y="293" on="1"/>
        <pt x="433" y="67" on="1"/>
        <pt x="453" y="65" on="0"/>
        <pt x="492" y="48" on="0"/>
        <pt x="509" y="38" on="1"/>
        <pt x="509" y="0" on="1"/>
        <pt x="201" y="0" on="1"/>
        <pt x="201" y="38" on="1"/>
        <pt x="218" y="47" on="0"/>
        <pt x="260" y="63" on="0"/>
        <pt x="283" y="67" on="1"/>
        <pt x="283" y="292" on="1"/>
        <pt x="81" y="633" on="1"/>
        <pt x="58" y="637" on="0"/>
        <pt x="17" y="653" on="0"/>
        <pt x="0" y="662" on="1"/>
        <pt x="0" y="700" on="1"/>
        <pt x="328" y="700" on="1"/>
        <pt x="328" y="662" on="1"/>
        <pt x="314" y="654" on="0"/>
        <pt x="278" y="638" on="0"/>
        <pt x="254" y="633" on="1"/>
        <pt x="397" y="365" on="1"/>
        <pt x="533" y="633" on="1"/>
        <pt x="510" y="638" on="0"/>
        <pt x="468" y="654" on="0"/>
        <pt x="453" y="662" on="1"/>
      </contour>
    </TTGlyph>
    <TTGlyph name="Yacute" xMin="0" yMin="0" xMax="698" yMax="899">
      <component glyphName="Y" x="0" y="0" flags="0x204"/>
      <component glyphName="uniF6C9" x="292" y="0" flags="0x4"/>
    </TTGlyph>
    <TTGlyph name="Ydieresis" xMin="0" yMin="0" xMax="698" yMax="857">
      <component glyphName="Y" x="0" y="0" flags="0x204"/>
      <component glyphName="uniF6CB" x="123" y="0" flags="0x4"/>
    </TTGlyph>
    <TTGlyph name="Z" xMin="35" yMin="0" xMax="599" yMax="700">
      <contour>
        <pt x="537" y="211" on="1"/>
        <pt x="579" y="211" on="1"/>
        <pt x="583" y="190" on="0"/>
        <pt x="590" y="137" on="0"/>
        <pt x="596" y="80" on="0"/>
        <pt x="599" y="24" on="0"/>
        <pt x="599" y="0" on="1"/>
        <pt x="35" y="0" on="1"/>
        <pt x="35" y="65" on="1"/>
        <pt x="423" y="635" on="1"/>
        <pt x="175" y="635" on="1"/>
        <pt x="116" y="492" on="1"/>
        <pt x="74" y="492" on="1"/>
        <pt x="69" y="514" on="0"/>
        <pt x="61" y="570" on="0"/>
        <pt x="55" y="627" on="0"/>
        <pt x="53" y="680" on="0"/>
        <pt x="53" y="700" on="1"/>
        <pt x="587" y="700" on="1"/>
        <pt x="587" y="635" on="1"/>
        <pt x="201" y="65" on="1"/>
        <pt x="475" y="65" on="1"/>
      </contour>
    </TTGlyph>
    <TTGlyph name="Zacute" xMin="35" yMin="0" xMax="599" yMax="899">
      <component glyphName="Z" x="0" y="0" flags="0x204"/>
      <component glyphName="uniF6C9" x="203" y="0" flags="0x4"/>
    </TTGlyph>
    <TTGlyph name="Zcaron" xMin="35" yMin="0" xMax="599" yMax="902">
      <component glyphName="Z" x="0" y="0" flags="0x204"/>
      <component glyphName="uniF6CA" x="105" y="0" flags="0x4"/>
    </TTGlyph>
    <TTGlyph name="Zdotaccent" xMin="35" yMin="0" xMax="599" yMax="885">
      <component glyphName="Z" x="0" y="0" flags="0x204"/>
      <component glyphName="uniF40B" x="168" y="0" flags="0x4"/>
    </TTGlyph>
    <TTGlyph name="a" xMin="27" yMin="-12" xMax="542" yMax="512">
      <contour>
        <pt x="470" y="145" on="1"/>
        <pt x="470" y="123" on="0"/>
        <pt x="471" y="91" on="0"/>
        <pt x="473" y="73" on="1"/>
        <pt x="542" y="63" on="1"/>
        <pt x="542" y="28" on="1"/>
        <pt x="530" y="22" on="0"/>
        <pt x="489" y="10" on="0"/>
        <pt x="444" y="-1" on="0"/>
        <pt x="400" y="-8" on="0"/>
        <pt x="383" y="-10" on="1"/>
        <pt x="349" y="-10" on="1"/>
        <pt x="339" y="13" on="0"/>
        <pt x="335" y="59" on="0"/>
        <pt x="334" y="92" on="1"/>
        <pt x="329" y="92" on="1"/>
        <pt x="324" y="72" on="0"/>
        <pt x="300" y="35" on="0"/>
        <pt x="263" y="6" on="0"/>
        <pt x="213" y="-12" on="0"/>
        <pt x="182" y="-12" on="1"/>
        <pt x="149" y="-12" on="0"/>
        <pt x="93" y="8" on="0"/>
        <pt x="51" y="44" on="0"/>
        <pt x="27" y="95" on="0"/>
        <pt x="27" y="127" on="1"/>
        <pt x="27" y="172" on="0"/>
        <pt x="61" y="230" on="0"/>
        <pt x="134" y="267" on="0"/>
        <pt x="249" y="285" on="0"/>
        <pt x="331" y="289" on="1"/>
        <pt x="339" y="375" on="0"/>
        <pt x="309" y="455" on="0"/>
        <pt x="259" y="455" on="1"/>
        <pt x="228" y="455" on="0"/>
        <pt x="202" y="445" on="1"/>
        <pt x="155" y="325" on="1"/>
        <pt x="111" y="325" on="1"/>
        <pt x="103" y="337" on="0"/>
        <pt x="88" y="368" on="0"/>
        <pt x="75" y="403" on="0"/>
        <pt x="66" y="439" on="0"/>
        <pt x="64" y="456" on="1"/>
        <pt x="102" y="482" on="0"/>
        <pt x="222" y="512" on="0"/>
        <pt x="289" y="512" on="1"/>
        <pt x="346" y="512" on="0"/>
        <pt x="418" y="487" on="0"/>
        <pt x="459" y="444" on="0"/>
        <pt x="475" y="386" on="0"/>
        <pt x="475" y="353" on="1"/>
        <pt x="475" y="293" on="0"/>
        <pt x="470" y="196" on="0"/>
      </contour>
      <contour>
        <pt x="245" y="68" on="1"/>
        <pt x="266" y="68" on="0"/>
        <pt x="296" y="84" on="0"/>
        <pt x="317" y="106" on="0"/>
        <pt x="328" y="132" on="0"/>
        <pt x="331" y="142" on="1"/>
        <pt x="331" y="242" on="1"/>
        <pt x="284" y="241" on="0"/>
        <pt x="224" y="231" on="0"/>
        <pt x="190" y="208" on="0"/>
        <pt x="177" y="173" on="0"/>
        <pt x="177" y="148" on="1"/>
        <pt x="177" y="110" on="0"/>
        <pt x="213" y="68" on="0"/>
      </contour>
    </TTGlyph>
    <TTGlyph name="aacute" xMin="27" yMin="-12" xMax="542" yMax="765">
      <component glyphName="a" x="0" y="0" flags="0x204"/>
      <component glyphName="acute" x="148" y="0" flags="0x4"/>
    </TTGlyph>
    <TTGlyph name="abreve" xMin="27" yMin="-12" xMax="542" yMax="748">
      <component glyphName="a" x="0" y="0" flags="0x204"/>
      <component glyphName="breve" x="58" y="0" flags="0x4"/>
    </TTGlyph>
    <TTGlyph name="acircumflex" xMin="27" yMin="-12" xMax="542" yMax="794">
      <component glyphName="a" x="0" y="0" flags="0x204"/>
      <component glyphName="circumflex" x="84" y="0" flags="0x4"/>
    </TTGlyph>
    <TTGlyph name="acute" xMin="60" yMin="562" xMax="291" yMax="765">
      <contour>
        <pt x="168" y="763" on="1"/>
        <pt x="176" y="765" on="0"/>
        <pt x="213" y="764" on="0"/>
        <pt x="253" y="758" on="0"/>
        <pt x="286" y="747" on="0"/>
        <pt x="291" y="741" on="1"/>
        <pt x="291" y="717" on="1"/>
        <pt x="100" y="562" on="1"/>
        <pt x="60" y="584" on="1"/>
      </contour>
    </TTGlyph>
    <TTGlyph name="acutecomb" xMin="-296" yMin="562" xMax="-65" yMax="765">
      <component glyphName="acute" x="-356" y="0" flags="0x4"/>
    </TTGlyph>
    <TTGlyph name="adieresis" xMin="27" yMin="-12" xMax="542" yMax="729">
      <component glyphName="a" x="0" y="0" flags="0x204"/>
      <component glyphName="dieresis" x="14" y="0" flags="0x4"/>
    </TTGlyph>
    <TTGlyph name="ae" xMin="27" yMin="-12" xMax="792" yMax="512">
      <component glyphName="uni04D5" x="0" y="0" flags="0x204"/>
    </TTGlyph>
    <TTGlyph name="afii10017" xMin="0" yMin="0" xMax="729" yMax="712">
      <component glyphName="A" x="0" y="0" flags="0x204"/>
    </TTGlyph>
    <TTGlyph name="afii10018" xMin="20" yMin="-3" xMax="604" yMax="700">
      <contour>
        <pt x="102" y="633" on="1"/>
        <pt x="55" y="641" on="0"/>
        <pt x="20" y="662" on="1"/>
        <pt x="20" y="700" on="1"/>
        <pt x="557" y="700" on="1"/>
        <pt x="557" y="677" on="0"/>
        <pt x="553" y="621" on="0"/>
        <pt x="547" y="565" on="0"/>
        <pt x="539" y="513" on="0"/>
        <pt x="535" y="492" on="1"/>
        <pt x="494" y="492" on="1"/>
        <pt x="432" y="635" on="1"/>
        <pt x="252" y="635" on="1"/>
        <pt x="252" y="407" on="1"/>
        <pt x="261" y="408" on="0"/>
        <pt x="287" y="411" on="0"/>
        <pt x="314" y="413" on="0"/>
        <pt x="341" y="414" on="0"/>
        <pt x="351" y="414" on="1"/>
        <pt x="402" y="414" on="0"/>
        <pt x="494" y="392" on="0"/>
        <pt x="563" y="343" on="0"/>
        <pt x="604" y="265" on="0"/>
        <pt x="604" y="210" on="1"/>
        <pt x="604" y="157" on="0"/>
        <pt x="561" y="77" on="0"/>
        <pt x="486" y="24" on="0"/>
        <pt x="383" y="-3" on="0"/>
        <pt x="323" y="-3" on="1"/>
        <pt x="318" y="-3" on="0"/>
        <pt x="278" y="-2" on="0"/>
        <pt x="228" y="-1" on="0"/>
        <pt x="178" y="0" on="0"/>
        <pt x="163" y="0" on="1"/>
        <pt x="20" y="0" on="1"/>
        <pt x="20" y="38" on="1"/>
        <pt x="39" y="49" on="0"/>
        <pt x="80" y="64" on="0"/>
        <pt x="102" y="67" on="1"/>
      </contour>
      <contour>
        <pt x="308" y="349" on="1"/>
        <pt x="292" y="349" on="0"/>
        <pt x="262" y="346" on="0"/>
        <pt x="252" y="343" on="1"/>
        <pt x="252" y="66" on="1"/>
        <pt x="256" y="65" on="0"/>
        <pt x="273" y="63" on="0"/>
        <pt x="291" y="62" on="0"/>
        <pt x="308" y="62" on="0"/>
        <pt x="313" y="62" on="1"/>
        <pt x="372" y="62" on="0"/>
        <pt x="439" y="138" on="0"/>
        <pt x="439" y="207" on="1"/>
        <pt x="439" y="273" on="0"/>
        <pt x="377" y="349" on="0"/>
      </contour>
    </TTGlyph>
    <TTGlyph name="afii10019" xMin="20" yMin="-6" xMax="612" yMax="706">
      <component glyphName="B" x="0" y="0" flags="0x204"/>
    </TTGlyph>
    <TTGlyph name="afii10020" xMin="20" yMin="0" xMax="532" yMax="700">
      <contour>
        <pt x="252" y="67" on="1"/>
        <pt x="277" y="63" on="0"/>
        <pt x="326" y="47" on="0"/>
        <pt x="348" y="38" on="1"/>
        <pt x="348" y="0" on="1"/>
        <pt x="20" y="0" on="1"/>
        <pt x="20" y="38" on="1"/>
        <pt x="64" y="60" on="0"/>
        <pt x="102" y="67" on="1"/>
        <pt x="102" y="633" on="1"/>
        <pt x="82" y="637" on="0"/>
        <pt x="39" y="651" on="0"/>
        <pt x="20" y="662" on="1"/>
        <pt x="20" y="700" on="1"/>
        <pt x="532" y="700" on="1"/>
        <pt x="532" y="676" on="0"/>
        <pt x="530" y="614" on="0"/>
        <pt x="526" y="548" on="0"/>
        <pt x="518" y="485" on="0"/>
        <pt x="514" y="460" on="1"/>
        <pt x="473" y="460" on="1"/>
        <pt x="410" y="635" on="1"/>
        <pt x="252" y="635" on="1"/>
      </contour>
    </TTGlyph>
    <TTGlyph name="afii10021" xMin="0" yMin="-163" xMax="716" yMax="700">
      <contour>
        <pt x="716" y="65" on="1"/>
        <pt x="716" y="42" on="0"/>
        <pt x="712" y="-17" on="0"/>
        <pt x="705" y="-79" on="0"/>
        <pt x="696" y="-139" on="0"/>
        <pt x="690" y="-163" on="1"/>
        <pt x="651" y="-163" on="1"/>
        <pt x="597" y="0" on="1"/>
        <pt x="119" y="0" on="1"/>
        <pt x="65" y="-163" on="1"/>
        <pt x="26" y="-163" on="1"/>
        <pt x="20" y="-138" on="0"/>
        <pt x="10" y="-76" on="0"/>
        <pt x="3" y="-13" on="0"/>
        <pt x="0" y="45" on="0"/>
        <pt x="0" y="65" on="1"/>
        <pt x="87" y="65" on="1"/>
        <pt x="115" y="107" on="0"/>
        <pt x="162" y="231" on="0"/>
        <pt x="195" y="378" on="0"/>
        <pt x="212" y="541" on="0"/>
        <pt x="212" y="623" on="1"/>
        <pt x="186" y="628" on="0"/>
        <pt x="130" y="648" on="0"/>
        <pt x="106" y="662" on="1"/>
        <pt x="106" y="700" on="1"/>
        <pt x="681" y="700" on="1"/>
        <pt x="681" y="662" on="1"/>
        <pt x="646" y="643" on="0"/>
        <pt x="599" y="633" on="1"/>
        <pt x="599" y="65" on="1"/>
      </contour>
      <contour>
        <pt x="449" y="65" on="1"/>
        <pt x="449" y="635" on="1"/>
        <pt x="288" y="635" on="1"/>
        <pt x="283" y="519" on="0"/>
        <pt x="259" y="335" on="0"/>
        <pt x="226" y="195" on="0"/>
        <pt x="188" y="96" on="0"/>
        <pt x="170" y="65" on="1"/>
      </contour>
    </TTGlyph>
    <TTGlyph name="afii10022" xMin="20" yMin="0" xMax="561" yMax="700">
      <component glyphName="E" x="0" y="0" flags="0x204"/>
    </TTGlyph>
    <TTGlyph name="afii10023" xMin="20" yMin="0" xMax="561" yMax="857">
      <component glyphName="E" x="0" y="0" flags="0x204"/>
      <component glyphName="uniF6CB" x="35" y="0" flags="0x4"/>
    </TTGlyph>
    <TTGlyph name="afii10024" xMin="0" yMin="0" xMax="1023" yMax="700">
      <contour>
        <pt x="441" y="633" on="1"/>
        <pt x="421" y="638" on="0"/>
        <pt x="388" y="654" on="0"/>
        <pt x="376" y="662" on="1"/>
        <pt x="376" y="700" on="1"/>
        <pt x="636" y="700" on="1"/>
        <pt x="636" y="662" on="1"/>
        <pt x="626" y="655" on="0"/>
        <pt x="597" y="640" on="0"/>
        <pt x="577" y="633" on="1"/>
        <pt x="577" y="378" on="1"/>
        <pt x="645" y="393" on="1"/>
        <pt x="789" y="633" on="1"/>
        <pt x="769" y="638" on="0"/>
        <pt x="732" y="654" on="0"/>
        <pt x="716" y="662" on="1"/>
        <pt x="716" y="700" on="1"/>
        <pt x="981" y="700" on="1"/>
        <pt x="981" y="662" on="1"/>
        <pt x="966" y="654" on="0"/>
        <pt x="929" y="638" on="0"/>
        <pt x="909" y="633" on="1"/>
        <pt x="729" y="388" on="1"/>
        <pt x="755" y="354" on="0"/>
        <pt x="814" y="272" on="0"/>
        <pt x="877" y="185" on="0"/>
        <pt x="946" y="98" on="0"/>
        <pt x="982" y="58" on="1"/>
        <pt x="1023" y="34" on="1"/>
        <pt x="1023" y="0" on="1"/>
        <pt x="854" y="0" on="1"/>
        <pt x="811" y="34" on="1"/>
        <pt x="782" y="68" on="0"/>
        <pt x="734" y="140" on="0"/>
        <pt x="692" y="214" on="0"/>
        <pt x="653" y="291" on="0"/>
        <pt x="631" y="330" on="1"/>
        <pt x="577" y="330" on="1"/>
        <pt x="577" y="67" on="1"/>
        <pt x="594" y="62" on="0"/>
        <pt x="626" y="47" on="0"/>
        <pt x="641" y="38" on="1"/>
        <pt x="641" y="0" on="1"/>
        <pt x="371" y="0" on="1"/>
        <pt x="371" y="38" on="1"/>
        <pt x="385" y="47" on="0"/>
        <pt x="420" y="62" on="0"/>
        <pt x="441" y="67" on="1"/>
        <pt x="441" y="339" on="1"/>
        <pt x="384" y="324" on="1"/>
        <pt x="342" y="243" on="0"/>
        <pt x="265" y="101" on="0"/>
        <pt x="212" y="34" on="1"/>
        <pt x="169" y="0" on="1"/>
        <pt x="0" y="0" on="1"/>
        <pt x="0" y="34" on="1"/>
        <pt x="41" y="58" on="1"/>
        <pt x="77" y="98" on="0"/>
        <pt x="145" y="184" on="0"/>
        <pt x="207" y="268" on="0"/>
        <pt x="261" y="346" on="0"/>
        <pt x="284" y="378" on="1"/>
        <pt x="105" y="633" on="1"/>
        <pt x="85" y="638" on="0"/>
        <pt x="51" y="654" on="0"/>
        <pt x="38" y="662" on="1"/>
        <pt x="38" y="700" on="1"/>
        <pt x="302" y="700" on="1"/>
        <pt x="302" y="662" on="1"/>
        <pt x="289" y="654" on="0"/>
        <pt x="253" y="638" on="0"/>
        <pt x="233" y="633" on="1"/>
        <pt x="377" y="387" on="1"/>
        <pt x="441" y="387" on="1"/>
      </contour>
    </TTGlyph>
    <TTGlyph name="afii10025" xMin="38" yMin="-12" xMax="543" yMax="712">
      <contour>
        <pt x="252" y="-12" on="1"/>
        <pt x="224" y="-12" on="0"/>
        <pt x="163" y="-6" on="0"/>
        <pt x="105" y="4" on="0"/>
        <pt x="55" y="19" on="0"/>
        <pt x="38" y="27" on="1"/>
        <pt x="38" y="43" on="0"/>
        <pt x="45" y="89" on="0"/>
        <pt x="55" y="138" on="0"/>
        <pt x="68" y="187" on="0"/>
        <pt x="74" y="207" on="1"/>
        <pt x="116" y="207" on="1"/>
        <pt x="156" y="65" on="1"/>
        <pt x="167" y="60" on="0"/>
        <pt x="216" y="53" on="0"/>
        <pt x="237" y="53" on="1"/>
        <pt x="303" y="53" on="0"/>
        <pt x="383" y="129" on="0"/>
        <pt x="383" y="194" on="1"/>
        <pt x="383" y="265" on="0"/>
        <pt x="313" y="324" on="0"/>
        <pt x="254" y="324" on="1"/>
        <pt x="177" y="311" on="1"/>
        <pt x="172" y="329" on="0"/>
        <pt x="170" y="375" on="0"/>
        <pt x="176" y="394" on="1"/>
        <pt x="208" y="394" on="1"/>
        <pt x="225" y="393" on="0"/>
        <pt x="270" y="396" on="0"/>
        <pt x="286" y="398" on="1"/>
        <pt x="324" y="414" on="0"/>
        <pt x="365" y="475" on="0"/>
        <pt x="365" y="522" on="1"/>
        <pt x="365" y="581" on="0"/>
        <pt x="304" y="647" on="0"/>
        <pt x="248" y="647" on="1"/>
        <pt x="224" y="647" on="0"/>
        <pt x="185" y="636" on="0"/>
        <pt x="178" y="628" on="1"/>
        <pt x="129" y="501" on="1"/>
        <pt x="87" y="501" on="1"/>
        <pt x="83" y="516" on="0"/>
        <pt x="75" y="555" on="0"/>
        <pt x="69" y="600" on="0"/>
        <pt x="64" y="647" on="0"/>
        <pt x="64" y="669" on="1"/>
        <pt x="83" y="682" on="0"/>
        <pt x="134" y="698" on="0"/>
        <pt x="187" y="708" on="0"/>
        <pt x="239" y="712" on="0"/>
        <pt x="260" y="712" on="1"/>
        <pt x="308" y="712" on="0"/>
        <pt x="402" y="698" on="0"/>
        <pt x="475" y="659" on="0"/>
        <pt x="520" y="592" on="0"/>
        <pt x="520" y="540" on="1"/>
        <pt x="520" y="489" on="0"/>
        <pt x="453" y="396" on="0"/>
        <pt x="385" y="375" on="1"/>
        <pt x="385" y="371" on="1"/>
        <pt x="416" y="366" on="0"/>
        <pt x="473" y="340" on="0"/>
        <pt x="517" y="298" on="0"/>
        <pt x="543" y="238" on="0"/>
        <pt x="543" y="199" on="1"/>
        <pt x="543" y="146" on="0"/>
        <pt x="501" y="66" on="0"/>
        <pt x="425" y="14" on="0"/>
        <pt x="318" y="-12" on="0"/>
      </contour>
    </TTGlyph>
    <TTGlyph name="afii10026" xMin="20" yMin="0" xMax="759" yMax="700">
      <contour>
        <pt x="321" y="0" on="1"/>
        <pt x="20" y="0" on="1"/>
        <pt x="20" y="38" on="1"/>
        <pt x="39" y="48" on="0"/>
        <pt x="81" y="64" on="0"/>
        <pt x="102" y="67" on="1"/>
        <pt x="102" y="633" on="1"/>
        <pt x="82" y="638" on="0"/>
        <pt x="38" y="651" on="0"/>
        <pt x="20" y="662" on="1"/>
        <pt x="20" y="700" on="1"/>
        <pt x="321" y="700" on="1"/>
        <pt x="321" y="662" on="1"/>
        <pt x="306" y="653" on="0"/>
        <pt x="268" y="637" on="0"/>
        <pt x="246" y="633" on="1"/>
        <pt x="246" y="253" on="1"/>
        <pt x="236" y="175" on="1"/>
        <pt x="285" y="257" on="1"/>
        <pt x="537" y="609" on="1"/>
        <pt x="537" y="633" on="1"/>
        <pt x="490" y="644" on="0"/>
        <pt x="458" y="662" on="1"/>
        <pt x="458" y="700" on="1"/>
        <pt x="759" y="700" on="1"/>
        <pt x="759" y="662" on="1"/>
        <pt x="742" y="651" on="0"/>
        <pt x="699" y="638" on="0"/>
        <pt x="677" y="633" on="1"/>
        <pt x="677" y="67" on="1"/>
        <pt x="700" y="63" on="0"/>
        <pt x="741" y="48" on="0"/>
        <pt x="759" y="38" on="1"/>
        <pt x="759" y="0" on="1"/>
        <pt x="458" y="0" on="1"/>
        <pt x="458" y="38" on="1"/>
        <pt x="472" y="45" on="0"/>
        <pt x="511" y="62" on="0"/>
        <pt x="533" y="67" on="1"/>
        <pt x="533" y="446" on="1"/>
        <pt x="543" y="525" on="1"/>
        <pt x="498" y="446" on="1"/>
        <pt x="242" y="89" on="1"/>
        <pt x="242" y="67" on="1"/>
        <pt x="265" y="62" on="0"/>
        <pt x="305" y="46" on="0"/>
        <pt x="321" y="38" on="1"/>
      </contour>
    </TTGlyph>
    <TTGlyph name="afii10027" xMin="20" yMin="0" xMax="759" yMax="897">
      <component glyphName="afii10026" x="0" y="0" flags="0x204"/>
      <component glyphName="uniF6D1" x="130" y="0" flags="0x4"/>
    </TTGlyph>
    <TTGlyph name="afii10028" xMin="20" yMin="0" xMax="710" yMax="700">
      <component glyphName="K" x="0" y="0" flags="0x204"/>
    </TTGlyph>
    <TTGlyph name="afii10029" xMin="-6" yMin="-12" xMax="681" yMax="700">
      <contour>
        <pt x="210" y="623" on="1"/>
        <pt x="179" y="628" on="0"/>
        <pt x="124" y="650" on="0"/>
        <pt x="104" y="662" on="1"/>
        <pt x="104" y="700" on="1"/>
        <pt x="681" y="700" on="1"/>
        <pt x="681" y="662" on="1"/>
        <pt x="666" y="653" on="0"/>
        <pt x="623" y="637" on="0"/>
        <pt x="599" y="633" on="1"/>
        <pt x="599" y="67" on="1"/>
        <pt x="622" y="63" on="0"/>
        <pt x="663" y="47" on="0"/>
        <pt x="681" y="38" on="1"/>
        <pt x="681" y="0" on="1"/>
        <pt x="373" y="0" on="1"/>
        <pt x="373" y="38" on="1"/>
        <pt x="390" y="47" on="0"/>
        <pt x="429" y="62" on="0"/>
        <pt x="449" y="67" on="1"/>
        <pt x="449" y="635" on="1"/>
        <pt x="286" y="635" on="1"/>
        <pt x="283" y="483" on="0"/>
        <pt x="261" y="280" on="0"/>
        <pt x="229" y="148" on="0"/>
        <pt x="190" y="71" on="0"/>
        <pt x="169" y="43" on="1"/>
        <pt x="150" y="17" on="0"/>
        <pt x="92" y="-12" on="0"/>
        <pt x="65" y="-12" on="1"/>
        <pt x="52" y="-7" on="0"/>
        <pt x="28" y="24" on="0"/>
        <pt x="8" y="64" on="0"/>
        <pt x="-5" y="108" on="0"/>
        <pt x="-6" y="127" on="1"/>
        <pt x="21" y="165" on="1"/>
        <pt x="140" y="136" on="1"/>
        <pt x="153" y="164" on="0"/>
        <pt x="178" y="243" on="0"/>
        <pt x="198" y="359" on="0"/>
        <pt x="210" y="517" on="0"/>
      </contour>
    </TTGlyph>
    <TTGlyph name="afii10030" xMin="20" yMin="0" xMax="910" yMax="700">
      <component glyphName="M" x="0" y="0" flags="0x204"/>
    </TTGlyph>
    <TTGlyph name="afii10031" xMin="20" yMin="0" xMax="749" yMax="700">
      <component glyphName="H" x="0" y="0" flags="0x204"/>
    </TTGlyph>
    <TTGlyph name="afii10032" xMin="39" yMin="-12" xMax="714" yMax="712">
      <component glyphName="O" x="0" y="0" flags="0x204"/>
    </TTGlyph>
    <TTGlyph name="afii10033" xMin="20" yMin="0" xMax="738" yMax="700">
      <contour>
        <pt x="320" y="0" on="1"/>
        <pt x="20" y="0" on="1"/>
        <pt x="20" y="38" on="1"/>
        <pt x="35" y="46" on="0"/>
        <pt x="75" y="63" on="0"/>
        <pt x="102" y="67" on="1"/>
        <pt x="102" y="633" on="1"/>
        <pt x="82" y="637" on="0"/>
        <pt x="39" y="651" on="0"/>
        <pt x="20" y="662" on="1"/>
        <pt x="20" y="700" on="1"/>
        <pt x="738" y="700" on="1"/>
        <pt x="738" y="662" on="1"/>
        <pt x="719" y="650" on="0"/>
        <pt x="677" y="637" on="0"/>
        <pt x="656" y="633" on="1"/>
        <pt x="656" y="67" on="1"/>
        <pt x="693" y="63" on="0"/>
        <pt x="738" y="38" on="1"/>
        <pt x="738" y="0" on="1"/>
        <pt x="438" y="0" on="1"/>
        <pt x="438" y="38" on="1"/>
        <pt x="448" y="46" on="0"/>
        <pt x="480" y="61" on="0"/>
        <pt x="506" y="67" on="1"/>
        <pt x="506" y="635" on="1"/>
        <pt x="252" y="635" on="1"/>
        <pt x="252" y="67" on="1"/>
        <pt x="272" y="62" on="0"/>
        <pt x="304" y="48" on="0"/>
        <pt x="320" y="38" on="1"/>
      </contour>
    </TTGlyph>
    <TTGlyph name="afii10034" xMin="20" yMin="0" xMax="613" yMax="708">
      <component glyphName="P" x="0" y="0" flags="0x204"/>
    </TTGlyph>
    <TTGlyph name="afii10035" xMin="39" yMin="-12" xMax="599" yMax="712">
      <component glyphName="C" x="0" y="0" flags="0x204"/>
    </TTGlyph>
    <TTGlyph name="afii10036" xMin="15" yMin="0" xMax="652" yMax="700">
      <component glyphName="T" x="0" y="0" flags="0x204"/>
    </TTGlyph>
    <TTGlyph name="afii10037" xMin="0" yMin="-16" xMax="684" yMax="700">
      <contour>
        <pt x="519" y="633" on="1"/>
        <pt x="495" y="638" on="0"/>
        <pt x="459" y="653" on="0"/>
        <pt x="442" y="662" on="1"/>
        <pt x="442" y="700" on="1"/>
        <pt x="684" y="700" on="1"/>
        <pt x="684" y="662" on="1"/>
        <pt x="673" y="654" on="0"/>
        <pt x="636" y="639" on="0"/>
        <pt x="613" y="633" on="1"/>
        <pt x="422" y="201" on="1"/>
        <pt x="374" y="91" on="0"/>
        <pt x="270" y="-16" on="0"/>
        <pt x="211" y="-5" on="1"/>
        <pt x="203" y="3" on="0"/>
        <pt x="186" y="36" on="0"/>
        <pt x="171" y="73" on="0"/>
        <pt x="161" y="108" on="0"/>
        <pt x="160" y="120" on="1"/>
        <pt x="188" y="160" on="1"/>
        <pt x="307" y="123" on="1"/>
        <pt x="315" y="132" on="0"/>
        <pt x="329" y="158" on="0"/>
        <pt x="335" y="174" on="1"/>
        <pt x="69" y="633" on="1"/>
        <pt x="50" y="638" on="0"/>
        <pt x="15" y="653" on="0"/>
        <pt x="0" y="662" on="1"/>
        <pt x="0" y="700" on="1"/>
        <pt x="312" y="700" on="1"/>
        <pt x="312" y="662" on="1"/>
        <pt x="282" y="644" on="0"/>
        <pt x="236" y="633" on="1"/>
        <pt x="377" y="362" on="1"/>
        <pt x="398" y="298" on="1"/>
        <pt x="400" y="298" on="1"/>
        <pt x="420" y="364" on="1"/>
      </contour>
    </TTGlyph>
    <TTGlyph name="afii10038" xMin="27" yMin="0" xMax="820" yMax="700">
      <contour>
        <pt x="284" y="700" on="1"/>
        <pt x="558" y="700" on="1"/>
        <pt x="558" y="663" on="1"/>
        <pt x="547" y="656" on="0"/>
        <pt x="515" y="640" on="0"/>
        <pt x="492" y="634" on="1"/>
        <pt x="492" y="591" on="1"/>
        <pt x="502" y="593" on="0"/>
        <pt x="529" y="596" on="0"/>
        <pt x="555" y="597" on="0"/>
        <pt x="579" y="597" on="0"/>
        <pt x="587" y="597" on="1"/>
        <pt x="639" y="597" on="0"/>
        <pt x="724" y="565" on="0"/>
        <pt x="786" y="503" on="0"/>
        <pt x="820" y="415" on="0"/>
        <pt x="820" y="360" on="1"/>
        <pt x="820" y="297" on="0"/>
        <pt x="778" y="205" on="0"/>
        <pt x="708" y="143" on="0"/>
        <pt x="618" y="113" on="0"/>
        <pt x="570" y="113" on="1"/>
        <pt x="565" y="113" on="0"/>
        <pt x="545" y="114" on="0"/>
        <pt x="522" y="115" on="0"/>
        <pt x="499" y="117" on="0"/>
        <pt x="492" y="119" on="1"/>
        <pt x="492" y="66" on="1"/>
        <pt x="512" y="61" on="0"/>
        <pt x="545" y="45" on="0"/>
        <pt x="558" y="37" on="1"/>
        <pt x="558" y="0" on="1"/>
        <pt x="284" y="0" on="1"/>
        <pt x="284" y="37" on="1"/>
        <pt x="298" y="45" on="0"/>
        <pt x="335" y="61" on="0"/>
        <pt x="355" y="65" on="1"/>
        <pt x="355" y="117" on="1"/>
        <pt x="333" y="115" on="0"/>
        <pt x="280" y="113" on="0"/>
        <pt x="260" y="113" on="1"/>
        <pt x="216" y="113" on="0"/>
        <pt x="132" y="139" on="0"/>
        <pt x="67" y="196" on="0"/>
        <pt x="27" y="286" on="0"/>
        <pt x="27" y="350" on="1"/>
        <pt x="27" y="409" on="0"/>
        <pt x="67" y="501" on="0"/>
        <pt x="136" y="564" on="0"/>
        <pt x="228" y="597" on="0"/>
        <pt x="280" y="597" on="1"/>
        <pt x="286" y="597" on="0"/>
        <pt x="306" y="597" on="0"/>
        <pt x="327" y="596" on="0"/>
        <pt x="348" y="595" on="0"/>
        <pt x="355" y="594" on="1"/>
        <pt x="355" y="634" on="1"/>
        <pt x="332" y="639" on="0"/>
        <pt x="295" y="655" on="0"/>
        <pt x="284" y="663" on="1"/>
      </contour>
      <contour>
        <pt x="538" y="536" on="1"/>
        <pt x="525" y="536" on="0"/>
        <pt x="503" y="534" on="0"/>
        <pt x="491" y="531" on="1"/>
        <pt x="491" y="177" on="1"/>
        <pt x="501" y="175" on="0"/>
        <pt x="524" y="174" on="0"/>
        <pt x="532" y="174" on="1"/>
        <pt x="558" y="174" on="0"/>
        <pt x="606" y="194" on="0"/>
        <pt x="643" y="239" on="0"/>
        <pt x="665" y="309" on="0"/>
        <pt x="665" y="360" on="1"/>
        <pt x="665" y="445" on="0"/>
        <pt x="601" y="536" on="0"/>
      </contour>
      <contour>
        <pt x="315" y="174" on="1"/>
        <pt x="326" y="174" on="0"/>
        <pt x="345" y="176" on="0"/>
        <pt x="356" y="179" on="1"/>
        <pt x="356" y="534" on="1"/>
        <pt x="344" y="536" on="0"/>
        <pt x="327" y="536" on="0"/>
        <pt x="315" y="536" on="1"/>
        <pt x="290" y="536" on="0"/>
        <pt x="242" y="516" on="0"/>
        <pt x="205" y="471" on="0"/>
        <pt x="182" y="400" on="0"/>
        <pt x="182" y="350" on="1"/>
        <pt x="182" y="262" on="0"/>
        <pt x="255" y="174" on="0"/>
      </contour>
    </TTGlyph>
    <TTGlyph name="afii10039" xMin="12" yMin="0" xMax="721" yMax="700">
      <component glyphName="X" x="0" y="0" flags="0x204"/>
    </TTGlyph>
    <TTGlyph name="afii10040" xMin="20" yMin="-163" xMax="769" yMax="700">
      <contour>
        <pt x="20" y="0" on="1"/>
        <pt x="20" y="38" on="1"/>
        <pt x="34" y="46" on="0"/>
        <pt x="76" y="62" on="0"/>
        <pt x="102" y="67" on="1"/>
        <pt x="102" y="633" on="1"/>
        <pt x="82" y="636" on="0"/>
        <pt x="39" y="651" on="0"/>
        <pt x="20" y="662" on="1"/>
        <pt x="20" y="700" on="1"/>
        <pt x="318" y="700" on="1"/>
        <pt x="318" y="662" on="1"/>
        <pt x="306" y="654" on="0"/>
        <pt x="274" y="639" on="0"/>
        <pt x="252" y="633" on="1"/>
        <pt x="252" y="65" on="1"/>
        <pt x="502" y="65" on="1"/>
        <pt x="502" y="633" on="1"/>
        <pt x="484" y="637" on="0"/>
        <pt x="449" y="653" on="0"/>
        <pt x="435" y="662" on="1"/>
        <pt x="435" y="700" on="1"/>
        <pt x="734" y="700" on="1"/>
        <pt x="734" y="662" on="1"/>
        <pt x="714" y="650" on="0"/>
        <pt x="673" y="637" on="0"/>
        <pt x="652" y="633" on="1"/>
        <pt x="652" y="65" on="1"/>
        <pt x="769" y="65" on="1"/>
        <pt x="768" y="39" on="0"/>
        <pt x="764" y="-22" on="0"/>
        <pt x="757" y="-84" on="0"/>
        <pt x="748" y="-141" on="0"/>
        <pt x="743" y="-163" on="1"/>
        <pt x="704" y="-163" on="1"/>
        <pt x="650" y="0" on="1"/>
      </contour>
    </TTGlyph>
    <TTGlyph name="afii10041" xMin="5" yMin="0" xMax="666" yMax="700">
      <contour>
        <pt x="666" y="0" on="1"/>
        <pt x="358" y="0" on="1"/>
        <pt x="358" y="38" on="1"/>
        <pt x="381" y="49" on="0"/>
        <pt x="427" y="65" on="0"/>
        <pt x="450" y="67" on="1"/>
        <pt x="450" y="303" on="1"/>
        <pt x="422" y="286" on="0"/>
        <pt x="328" y="258" on="0"/>
        <pt x="272" y="258" on="1"/>
        <pt x="232" y="258" on="0"/>
        <pt x="161" y="275" on="0"/>
        <pt x="108" y="317" on="0"/>
        <pt x="77" y="390" on="0"/>
        <pt x="77" y="446" on="1"/>
        <pt x="77" y="633" on="1"/>
        <pt x="58" y="636" on="0"/>
        <pt x="20" y="652" on="0"/>
        <pt x="5" y="662" on="1"/>
        <pt x="5" y="700" on="1"/>
        <pt x="288" y="700" on="1"/>
        <pt x="288" y="662" on="1"/>
        <pt x="277" y="654" on="0"/>
        <pt x="246" y="638" on="0"/>
        <pt x="227" y="633" on="1"/>
        <pt x="227" y="481" on="1"/>
        <pt x="227" y="446" on="0"/>
        <pt x="235" y="390" on="0"/>
        <pt x="259" y="350" on="0"/>
        <pt x="300" y="328" on="0"/>
        <pt x="333" y="328" on="1"/>
        <pt x="366" y="328" on="0"/>
        <pt x="425" y="347" on="0"/>
        <pt x="450" y="363" on="1"/>
        <pt x="450" y="633" on="1"/>
        <pt x="433" y="638" on="0"/>
        <pt x="401" y="653" on="0"/>
        <pt x="388" y="662" on="1"/>
        <pt x="388" y="700" on="1"/>
        <pt x="666" y="700" on="1"/>
        <pt x="666" y="662" on="1"/>
        <pt x="653" y="653" on="0"/>
        <pt x="619" y="638" on="0"/>
        <pt x="600" y="633" on="1"/>
        <pt x="600" y="67" on="1"/>
        <pt x="620" y="63" on="0"/>
        <pt x="654" y="46" on="0"/>
        <pt x="666" y="38" on="1"/>
      </contour>
    </TTGlyph>
    <TTGlyph name="afii10042" xMin="20" yMin="0" xMax="986" yMax="700">
      <contour>
        <pt x="374" y="700" on="1"/>
        <pt x="633" y="700" on="1"/>
        <pt x="633" y="662" on="1"/>
        <pt x="622" y="654" on="0"/>
        <pt x="595" y="638" on="0"/>
        <pt x="579" y="633" on="1"/>
        <pt x="579" y="65" on="1"/>
        <pt x="766" y="65" on="1"/>
        <pt x="766" y="633" on="1"/>
        <pt x="737" y="640" on="0"/>
        <pt x="709" y="662" on="1"/>
        <pt x="709" y="700" on="1"/>
        <pt x="986" y="700" on="1"/>
        <pt x="986" y="662" on="1"/>
        <pt x="955" y="642" on="0"/>
        <pt x="916" y="633" on="1"/>
        <pt x="916" y="67" on="1"/>
        <pt x="936" y="62" on="0"/>
        <pt x="971" y="47" on="0"/>
        <pt x="986" y="38" on="1"/>
        <pt x="986" y="0" on="1"/>
        <pt x="20" y="0" on="1"/>
        <pt x="20" y="38" on="1"/>
        <pt x="36" y="47" on="0"/>
        <pt x="74" y="63" on="0"/>
        <pt x="92" y="67" on="1"/>
        <pt x="92" y="633" on="1"/>
        <pt x="52" y="641" on="0"/>
        <pt x="20" y="662" on="1"/>
        <pt x="20" y="700" on="1"/>
        <pt x="296" y="700" on="1"/>
        <pt x="296" y="662" on="1"/>
        <pt x="288" y="656" on="0"/>
        <pt x="259" y="639" on="0"/>
        <pt x="242" y="633" on="1"/>
        <pt x="242" y="65" on="1"/>
        <pt x="429" y="65" on="1"/>
        <pt x="429" y="633" on="1"/>
        <pt x="395" y="644" on="0"/>
        <pt x="374" y="662" on="1"/>
      </contour>
    </TTGlyph>
    <TTGlyph name="afii10043" xMin="20" yMin="-163" xMax="1033" yMax="700">
      <contour>
        <pt x="20" y="0" on="1"/>
        <pt x="20" y="38" on="1"/>
        <pt x="35" y="46" on="0"/>
        <pt x="71" y="63" on="0"/>
        <pt x="92" y="67" on="1"/>
        <pt x="92" y="633" on="1"/>
        <pt x="73" y="636" on="0"/>
        <pt x="34" y="652" on="0"/>
        <pt x="20" y="662" on="1"/>
        <pt x="20" y="700" on="1"/>
        <pt x="296" y="700" on="1"/>
        <pt x="296" y="662" on="1"/>
        <pt x="287" y="654" on="0"/>
        <pt x="258" y="638" on="0"/>
        <pt x="242" y="633" on="1"/>
        <pt x="242" y="65" on="1"/>
        <pt x="429" y="65" on="1"/>
        <pt x="429" y="633" on="1"/>
        <pt x="395" y="645" on="0"/>
        <pt x="374" y="662" on="1"/>
        <pt x="374" y="700" on="1"/>
        <pt x="633" y="700" on="1"/>
        <pt x="633" y="662" on="1"/>
        <pt x="624" y="654" on="0"/>
        <pt x="596" y="638" on="0"/>
        <pt x="579" y="633" on="1"/>
        <pt x="579" y="65" on="1"/>
        <pt x="766" y="65" on="1"/>
        <pt x="766" y="633" on="1"/>
        <pt x="733" y="643" on="0"/>
        <pt x="709" y="662" on="1"/>
        <pt x="709" y="700" on="1"/>
        <pt x="986" y="700" on="1"/>
        <pt x="986" y="662" on="1"/>
        <pt x="972" y="652" on="0"/>
        <pt x="937" y="637" on="0"/>
        <pt x="916" y="633" on="1"/>
        <pt x="916" y="65" on="1"/>
        <pt x="1033" y="65" on="1"/>
        <pt x="1033" y="42" on="0"/>
        <pt x="1029" y="-18" on="0"/>
        <pt x="1022" y="-80" on="0"/>
        <pt x="1013" y="-139" on="0"/>
        <pt x="1007" y="-163" on="1"/>
        <pt x="968" y="-163" on="1"/>
        <pt x="914" y="0" on="1"/>
      </contour>
    </TTGlyph>
    <TTGlyph name="afii10044" xMin="15" yMin="-3" xMax="747" yMax="700">
      <contour>
        <pt x="478" y="700" on="1"/>
        <pt x="478" y="662" on="1"/>
        <pt x="461" y="652" on="0"/>
        <pt x="411" y="638" on="0"/>
        <pt x="386" y="633" on="1"/>
        <pt x="386" y="419" on="1"/>
        <pt x="404" y="422" on="0"/>
        <pt x="459" y="426" on="0"/>
        <pt x="479" y="426" on="1"/>
        <pt x="530" y="426" on="0"/>
        <pt x="626" y="407" on="0"/>
        <pt x="701" y="361" on="0"/>
        <pt x="747" y="281" on="0"/>
        <pt x="747" y="220" on="1"/>
        <pt x="747" y="160" on="0"/>
        <pt x="701" y="75" on="0"/>
        <pt x="621" y="22" on="0"/>
        <pt x="510" y="-3" on="0"/>
        <pt x="446" y="-3" on="1"/>
        <pt x="441" y="-3" on="0"/>
        <pt x="409" y="-2" on="0"/>
        <pt x="367" y="-1" on="0"/>
        <pt x="324" y="0" on="0"/>
        <pt x="309" y="0" on="1"/>
        <pt x="154" y="0" on="1"/>
        <pt x="154" y="38" on="1"/>
        <pt x="172" y="48" on="0"/>
        <pt x="213" y="63" on="0"/>
        <pt x="236" y="67" on="1"/>
        <pt x="236" y="635" on="1"/>
        <pt x="132" y="635" on="1"/>
        <pt x="79" y="464" on="1"/>
        <pt x="37" y="464" on="1"/>
        <pt x="31" y="489" on="0"/>
        <pt x="23" y="554" on="0"/>
        <pt x="18" y="620" on="0"/>
        <pt x="15" y="680" on="0"/>
        <pt x="15" y="700" on="1"/>
      </contour>
      <contour>
        <pt x="442" y="361" on="1"/>
        <pt x="423" y="361" on="0"/>
        <pt x="397" y="358" on="0"/>
        <pt x="386" y="355" on="1"/>
        <pt x="386" y="66" on="1"/>
        <pt x="395" y="64" on="0"/>
        <pt x="433" y="62" on="0"/>
        <pt x="444" y="62" on="1"/>
        <pt x="472" y="62" on="0"/>
        <pt x="522" y="79" on="0"/>
        <pt x="560" y="116" on="0"/>
        <pt x="582" y="176" on="0"/>
        <pt x="582" y="220" on="1"/>
        <pt x="582" y="292" on="0"/>
        <pt x="505" y="361" on="0"/>
      </contour>
    </TTGlyph>
    <TTGlyph name="afii10045" xMin="20" yMin="-3" xMax="910" yMax="700">
      <contour>
        <pt x="910" y="0" on="1"/>
        <pt x="607" y="0" on="1"/>
        <pt x="607" y="38" on="1"/>
        <pt x="623" y="47" on="0"/>
        <pt x="660" y="62" on="0"/>
        <pt x="680" y="67" on="1"/>
        <pt x="680" y="633" on="1"/>
        <pt x="661" y="637" on="0"/>
        <pt x="620" y="651" on="0"/>
        <pt x="602" y="662" on="1"/>
        <pt x="602" y="700" on="1"/>
        <pt x="910" y="700" on="1"/>
        <pt x="910" y="662" on="1"/>
        <pt x="876" y="640" on="0"/>
        <pt x="830" y="633" on="1"/>
        <pt x="830" y="67" on="1"/>
        <pt x="855" y="63" on="0"/>
        <pt x="895" y="46" on="0"/>
        <pt x="910" y="38" on="1"/>
      </contour>
      <contour>
        <pt x="20" y="0" on="1"/>
        <pt x="20" y="38" on="1"/>
        <pt x="38" y="48" on="0"/>
        <pt x="81" y="63" on="0"/>
        <pt x="102" y="67" on="1"/>
        <pt x="102" y="633" on="1"/>
        <pt x="82" y="637" on="0"/>
        <pt x="40" y="650" on="0"/>
        <pt x="20" y="662" on="1"/>
        <pt x="20" y="700" on="1"/>
        <pt x="340" y="700" on="1"/>
        <pt x="340" y="662" on="1"/>
        <pt x="321" y="652" on="0"/>
        <pt x="276" y="637" on="0"/>
        <pt x="252" y="633" on="1"/>
        <pt x="252" y="419" on="1"/>
        <pt x="270" y="422" on="0"/>
        <pt x="320" y="426" on="0"/>
        <pt x="340" y="426" on="1"/>
        <pt x="392" y="426" on="0"/>
        <pt x="485" y="406" on="0"/>
        <pt x="554" y="358" on="0"/>
        <pt x="595" y="278" on="0"/>
        <pt x="595" y="218" on="1"/>
        <pt x="595" y="162" on="0"/>
        <pt x="551" y="79" on="0"/>
        <pt x="475" y="24" on="0"/>
        <pt x="373" y="-3" on="0"/>
        <pt x="315" y="-3" on="1"/>
        <pt x="310" y="-3" on="0"/>
        <pt x="279" y="-2" on="0"/>
        <pt x="238" y="-1" on="0"/>
        <pt x="196" y="0" on="0"/>
        <pt x="181" y="0" on="1"/>
      </contour>
      <contour>
        <pt x="304" y="361" on="1"/>
        <pt x="271" y="361" on="0"/>
        <pt x="252" y="355" on="1"/>
        <pt x="252" y="66" on="1"/>
        <pt x="260" y="64" on="0"/>
        <pt x="296" y="62" on="0"/>
        <pt x="305" y="62" on="1"/>
        <pt x="362" y="62" on="0"/>
        <pt x="430" y="136" on="0"/>
        <pt x="430" y="218" on="1"/>
        <pt x="430" y="361" on="0"/>
      </contour>
    </TTGlyph>
    <TTGlyph name="afii10046" xMin="20" yMin="-3" xMax="613" yMax="700">
      <contour>
        <pt x="20" y="0" on="1"/>
        <pt x="20" y="38" on="1"/>
        <pt x="38" y="48" on="0"/>
        <pt x="81" y="64" on="0"/>
        <pt x="102" y="67" on="1"/>
        <pt x="102" y="633" on="1"/>
        <pt x="82" y="637" on="0"/>
        <pt x="38" y="651" on="0"/>
        <pt x="20" y="662" on="1"/>
        <pt x="20" y="700" on="1"/>
        <pt x="344" y="700" on="1"/>
        <pt x="344" y="662" on="1"/>
        <pt x="327" y="652" on="0"/>
        <pt x="277" y="637" on="0"/>
        <pt x="252" y="633" on="1"/>
        <pt x="252" y="419" on="1"/>
        <pt x="270" y="422" on="0"/>
        <pt x="325" y="426" on="0"/>
        <pt x="345" y="426" on="1"/>
        <pt x="402" y="426" on="0"/>
        <pt x="500" y="404" on="0"/>
        <pt x="572" y="355" on="0"/>
        <pt x="613" y="276" on="0"/>
        <pt x="613" y="220" on="1"/>
        <pt x="613" y="163" on="0"/>
        <pt x="570" y="79" on="0"/>
        <pt x="492" y="24" on="0"/>
        <pt x="382" y="-3" on="0"/>
        <pt x="315" y="-3" on="1"/>
        <pt x="310" y="-3" on="0"/>
        <pt x="276" y="-2" on="0"/>
        <pt x="234" y="-1" on="0"/>
        <pt x="189" y="0" on="0"/>
        <pt x="174" y="0" on="1"/>
      </contour>
      <contour>
        <pt x="308" y="361" on="1"/>
        <pt x="273" y="361" on="0"/>
        <pt x="252" y="355" on="1"/>
        <pt x="252" y="66" on="1"/>
        <pt x="261" y="64" on="0"/>
        <pt x="299" y="62" on="0"/>
        <pt x="310" y="62" on="1"/>
        <pt x="337" y="62" on="0"/>
        <pt x="387" y="79" on="0"/>
        <pt x="425" y="116" on="0"/>
        <pt x="448" y="176" on="0"/>
        <pt x="448" y="220" on="1"/>
        <pt x="448" y="292" on="0"/>
        <pt x="371" y="361" on="0"/>
      </contour>
    </TTGlyph>
    <TTGlyph name="afii10047" xMin="45" yMin="-12" xMax="611" yMax="712">
      <contour>
        <pt x="191" y="303" on="1"/>
        <pt x="185" y="323" on="0"/>
        <pt x="183" y="382" on="0"/>
        <pt x="191" y="406" on="1"/>
        <pt x="444" y="402" on="1"/>
        <pt x="439" y="523" on="0"/>
        <pt x="331" y="647" on="0"/>
        <pt x="238" y="647" on="1"/>
        <pt x="211" y="647" on="0"/>
        <pt x="173" y="636" on="0"/>
        <pt x="163" y="628" on="1"/>
        <pt x="111" y="498" on="1"/>
        <pt x="70" y="498" on="1"/>
        <pt x="67" y="509" on="0"/>
        <pt x="61" y="551" on="0"/>
        <pt x="56" y="599" on="0"/>
        <pt x="54" y="649" on="0"/>
        <pt x="55" y="669" on="1"/>
        <pt x="73" y="681" on="0"/>
        <pt x="121" y="698" on="0"/>
        <pt x="174" y="708" on="0"/>
        <pt x="227" y="712" on="0"/>
        <pt x="248" y="712" on="1"/>
        <pt x="334" y="712" on="0"/>
        <pt x="469" y="667" on="0"/>
        <pt x="562" y="577" on="0"/>
        <pt x="611" y="444" on="0"/>
        <pt x="611" y="356" on="1"/>
        <pt x="611" y="255" on="0"/>
        <pt x="551" y="114" on="0"/>
        <pt x="451" y="27" on="0"/>
        <pt x="320" y="-12" on="0"/>
        <pt x="249" y="-12" on="1"/>
        <pt x="188" y="-12" on="0"/>
        <pt x="80" y="7" on="0"/>
        <pt x="45" y="27" on="1"/>
        <pt x="45" y="44" on="0"/>
        <pt x="49" y="92" on="0"/>
        <pt x="55" y="145" on="0"/>
        <pt x="62" y="198" on="0"/>
        <pt x="66" y="219" on="1"/>
        <pt x="108" y="219" on="1"/>
        <pt x="162" y="63" on="1"/>
        <pt x="173" y="57" on="0"/>
        <pt x="219" y="53" on="0"/>
        <pt x="238" y="53" on="1"/>
        <pt x="277" y="53" on="0"/>
        <pt x="351" y="88" on="0"/>
        <pt x="408" y="158" on="0"/>
        <pt x="443" y="263" on="0"/>
        <pt x="444" y="334" on="1"/>
      </contour>
    </TTGlyph>
    <TTGlyph name="afii10048" xMin="20" yMin="-12" xMax="988" yMax="712">
      <contour>
        <pt x="328" y="0" on="1"/>
        <pt x="20" y="0" on="1"/>
        <pt x="20" y="38" on="1"/>
        <pt x="38" y="48" on="0"/>
        <pt x="79" y="63" on="0"/>
        <pt x="102" y="67" on="1"/>
        <pt x="102" y="633" on="1"/>
        <pt x="82" y="636" on="0"/>
        <pt x="39" y="651" on="0"/>
        <pt x="20" y="662" on="1"/>
        <pt x="20" y="700" on="1"/>
        <pt x="328" y="700" on="1"/>
        <pt x="328" y="662" on="1"/>
        <pt x="316" y="654" on="0"/>
        <pt x="280" y="638" on="0"/>
        <pt x="252" y="633" on="1"/>
        <pt x="252" y="391" on="1"/>
        <pt x="362" y="391" on="1"/>
        <pt x="367" y="460" on="0"/>
        <pt x="413" y="578" on="0"/>
        <pt x="493" y="663" on="0"/>
        <pt x="603" y="712" on="0"/>
        <pt x="673" y="712" on="1"/>
        <pt x="750" y="712" on="0"/>
        <pt x="868" y="658" on="0"/>
        <pt x="947" y="561" on="0"/>
        <pt x="988" y="428" on="0"/>
        <pt x="988" y="350" on="1"/>
        <pt x="988" y="272" on="0"/>
        <pt x="949" y="139" on="0"/>
        <pt x="871" y="43" on="0"/>
        <pt x="752" y="-12" on="0"/>
        <pt x="673" y="-12" on="1"/>
        <pt x="596" y="-12" on="0"/>
        <pt x="482" y="38" on="0"/>
        <pt x="404" y="128" on="0"/>
        <pt x="364" y="252" on="0"/>
        <pt x="361" y="326" on="1"/>
        <pt x="252" y="326" on="1"/>
        <pt x="252" y="67" on="1"/>
        <pt x="277" y="62" on="0"/>
        <pt x="314" y="46" on="0"/>
        <pt x="328" y="38" on="1"/>
      </contour>
      <contour>
        <pt x="523" y="350" on="1"/>
        <pt x="523" y="210" on="0"/>
        <pt x="596" y="53" on="0"/>
        <pt x="679" y="53" on="1"/>
        <pt x="720" y="53" on="0"/>
        <pt x="774" y="98" on="0"/>
        <pt x="805" y="177" on="0"/>
        <pt x="818" y="286" on="0"/>
        <pt x="818" y="350" on="1"/>
        <pt x="818" y="414" on="0"/>
        <pt x="804" y="523" on="0"/>
        <pt x="770" y="602" on="0"/>
        <pt x="712" y="647" on="0"/>
        <pt x="667" y="647" on="1"/>
        <pt x="624" y="647" on="0"/>
        <pt x="569" y="602" on="0"/>
        <pt x="536" y="523" on="0"/>
        <pt x="523" y="414" on="0"/>
      </contour>
    </TTGlyph>
    <TTGlyph name="afii10049" xMin="5" yMin="0" xMax="670" yMax="703">
      <contour>
        <pt x="670" y="700" on="1"/>
        <pt x="670" y="662" on="1"/>
        <pt x="657" y="654" on="0"/>
        <pt x="613" y="638" on="0"/>
        <pt x="588" y="633" on="1"/>
        <pt x="588" y="67" on="1"/>
        <pt x="614" y="62" on="0"/>
        <pt x="654" y="46" on="0"/>
        <pt x="670" y="38" on="1"/>
        <pt x="670" y="0" on="1"/>
        <pt x="360" y="0" on="1"/>
        <pt x="360" y="38" on="1"/>
        <pt x="377" y="47" on="0"/>
        <pt x="416" y="62" on="0"/>
        <pt x="438" y="67" on="1"/>
        <pt x="438" y="287" on="1"/>
        <pt x="354" y="287" on="1"/>
        <pt x="324" y="218" on="0"/>
        <pt x="263" y="88" on="0"/>
        <pt x="219" y="32" on="1"/>
        <pt x="178" y="0" on="1"/>
        <pt x="5" y="0" on="1"/>
        <pt x="5" y="34" on="1"/>
        <pt x="49" y="58" on="1"/>
        <pt x="113" y="127" on="0"/>
        <pt x="192" y="243" on="0"/>
        <pt x="226" y="293" on="1"/>
        <pt x="200" y="302" on="0"/>
        <pt x="148" y="333" on="0"/>
        <pt x="107" y="381" on="0"/>
        <pt x="82" y="447" on="0"/>
        <pt x="82" y="491" on="1"/>
        <pt x="82" y="549" on="0"/>
        <pt x="132" y="630" on="0"/>
        <pt x="214" y="681" on="0"/>
        <pt x="322" y="703" on="0"/>
        <pt x="379" y="703" on="1"/>
        <pt x="389" y="703" on="0"/>
        <pt x="422" y="702" on="0"/>
        <pt x="459" y="701" on="0"/>
        <pt x="497" y="700" on="0"/>
        <pt x="512" y="700" on="1"/>
      </contour>
      <contour>
        <pt x="377" y="346" on="1"/>
        <pt x="391" y="346" on="0"/>
        <pt x="430" y="349" on="0"/>
        <pt x="438" y="351" on="1"/>
        <pt x="438" y="633" on="1"/>
        <pt x="430" y="635" on="0"/>
        <pt x="396" y="638" on="0"/>
        <pt x="384" y="638" on="1"/>
        <pt x="355" y="638" on="0"/>
        <pt x="304" y="623" on="0"/>
        <pt x="265" y="589" on="0"/>
        <pt x="242" y="535" on="0"/>
        <pt x="242" y="496" on="1"/>
        <pt x="242" y="421" on="0"/>
        <pt x="315" y="346" on="0"/>
      </contour>
    </TTGlyph>
    <TTGlyph name="afii10050" xMin="20" yMin="0" xMax="527" yMax="850">
      <contour>
        <pt x="252" y="67" on="1"/>
        <pt x="277" y="63" on="0"/>
        <pt x="326" y="47" on="0"/>
        <pt x="348" y="38" on="1"/>
        <pt x="348" y="0" on="1"/>
        <pt x="20" y="0" on="1"/>
        <pt x="20" y="38" on="1"/>
        <pt x="64" y="60" on="0"/>
        <pt x="102" y="67" on="1"/>
        <pt x="102" y="633" on="1"/>
        <pt x="82" y="637" on="0"/>
        <pt x="39" y="651" on="0"/>
        <pt x="20" y="662" on="1"/>
        <pt x="20" y="700" on="1"/>
        <pt x="410" y="700" on="1"/>
        <pt x="470" y="850" on="1"/>
        <pt x="512" y="850" on="1"/>
        <pt x="516" y="826" on="0"/>
        <pt x="522" y="766" on="0"/>
        <pt x="526" y="706" on="0"/>
        <pt x="527" y="653" on="0"/>
        <pt x="527" y="635" on="1"/>
        <pt x="252" y="635" on="1"/>
      </contour>
    </TTGlyph>
    <TTGlyph name="afii10051" xMin="10" yMin="-5" xMax="776" yMax="700">
      <contour>
        <pt x="776" y="234" on="1"/>
        <pt x="776" y="162" on="0"/>
        <pt x="742" y="69" on="0"/>
        <pt x="677" y="15" on="0"/>
        <pt x="584" y="-5" on="0"/>
        <pt x="525" y="-3" on="1"/>
        <pt x="519" y="42" on="1"/>
        <pt x="547" y="48" on="0"/>
        <pt x="587" y="69" on="0"/>
        <pt x="613" y="106" on="0"/>
        <pt x="626" y="164" on="0"/>
        <pt x="626" y="208" on="1"/>
        <pt x="626" y="243" on="0"/>
        <pt x="617" y="299" on="0"/>
        <pt x="594" y="339" on="0"/>
        <pt x="553" y="361" on="0"/>
        <pt x="520" y="361" on="1"/>
        <pt x="487" y="361" on="0"/>
        <pt x="428" y="342" on="0"/>
        <pt x="403" y="327" on="1"/>
        <pt x="403" y="67" on="1"/>
        <pt x="420" y="62" on="0"/>
        <pt x="450" y="46" on="0"/>
        <pt x="463" y="38" on="1"/>
        <pt x="463" y="0" on="1"/>
        <pt x="156" y="0" on="1"/>
        <pt x="156" y="38" on="1"/>
        <pt x="176" y="46" on="0"/>
        <pt x="227" y="63" on="0"/>
        <pt x="253" y="67" on="1"/>
        <pt x="253" y="635" on="1"/>
        <pt x="137" y="635" on="1"/>
        <pt x="73" y="464" on="1"/>
        <pt x="32" y="464" on="1"/>
        <pt x="28" y="484" on="0"/>
        <pt x="20" y="546" on="0"/>
        <pt x="14" y="612" on="0"/>
        <pt x="10" y="677" on="0"/>
        <pt x="10" y="700" on="1"/>
        <pt x="647" y="700" on="1"/>
        <pt x="647" y="676" on="0"/>
        <pt x="643" y="621" on="0"/>
        <pt x="637" y="566" on="0"/>
        <pt x="629" y="515" on="0"/>
        <pt x="625" y="494" on="1"/>
        <pt x="583" y="494" on="1"/>
        <pt x="519" y="635" on="1"/>
        <pt x="403" y="635" on="1"/>
        <pt x="403" y="387" on="1"/>
        <pt x="431" y="403" on="0"/>
        <pt x="525" y="431" on="0"/>
        <pt x="581" y="431" on="1"/>
        <pt x="621" y="431" on="0"/>
        <pt x="692" y="414" on="0"/>
        <pt x="745" y="370" on="0"/>
        <pt x="776" y="294" on="0"/>
      </contour>
    </TTGlyph>
    <TTGlyph name="afii10052" xMin="20" yMin="0" xMax="532" yMax="899">
      <component glyphName="afii10020" x="0" y="0" flags="0x204"/>
      <component glyphName="uniF6C9" x="164" y="0" flags="0x4"/>
    </TTGlyph>
    <TTGlyph name="afii10053" xMin="39" yMin="-12" xMax="599" yMax="712">
      <contour>
        <pt x="540" y="210" on="1"/>
        <pt x="581" y="210" on="1"/>
        <pt x="585" y="194" on="0"/>
        <pt x="592" y="149" on="0"/>
        <pt x="597" y="98" on="0"/>
        <pt x="599" y="48" on="0"/>
        <pt x="599" y="28" on="1"/>
        <pt x="564" y="6" on="0"/>
        <pt x="459" y="-12" on="0"/>
        <pt x="404" y="-12" on="1"/>
        <pt x="321" y="-12" on="0"/>
        <pt x="186" y="29" on="0"/>
        <pt x="91" y="118" on="0"/>
        <pt x="39" y="255" on="0"/>
        <pt x="39" y="351" on="1"/>
        <pt x="39" y="446" on="0"/>
        <pt x="96" y="583" on="0"/>
        <pt x="192" y="671" on="0"/>
        <pt x="319" y="712" on="0"/>
        <pt x="389" y="712" on="1"/>
        <pt x="455" y="712" on="0"/>
        <pt x="562" y="693" on="0"/>
        <pt x="596" y="677" on="1"/>
        <pt x="596" y="661" on="0"/>
        <pt x="593" y="611" on="0"/>
        <pt x="586" y="556" on="0"/>
        <pt x="577" y="503" on="0"/>
        <pt x="573" y="485" on="1"/>
        <pt x="531" y="485" on="1"/>
        <pt x="476" y="636" on="1"/>
        <pt x="467" y="641" on="0"/>
        <pt x="427" y="647" on="0"/>
        <pt x="406" y="647" on="1"/>
        <pt x="367" y="647" on="0"/>
        <pt x="297" y="617" on="0"/>
        <pt x="243" y="552" on="0"/>
        <pt x="209" y="451" on="0"/>
        <pt x="206" y="381" on="1"/>
        <pt x="475" y="397" on="1"/>
        <pt x="484" y="373" on="0"/>
        <pt x="485" y="313" on="0"/>
        <pt x="480" y="293" on="1"/>
        <pt x="418" y="302" on="0"/>
        <pt x="272" y="311" on="0"/>
        <pt x="206" y="313" on="1"/>
        <pt x="213" y="188" on="0"/>
        <pt x="324" y="53" on="0"/>
        <pt x="417" y="53" on="1"/>
        <pt x="445" y="53" on="0"/>
        <pt x="484" y="62" on="0"/>
        <pt x="491" y="70" on="1"/>
      </contour>
    </TTGlyph>
    <TTGlyph name="afii10054" xMin="42" yMin="-12" xMax="519" yMax="712">
      <component glyphName="S" x="0" y="0" flags="0x204"/>
    </TTGlyph>
    <TTGlyph name="afii10055" xMin="30" yMin="0" xMax="342" yMax="700">
      <component glyphName="I" x="0" y="0" flags="0x204"/>
    </TTGlyph>
    <TTGlyph name="afii10055.alt" xMin="30" yMin="0" xMax="342" yMax="885">
      <component glyphName="I" x="0" y="0" flags="0x204"/>
      <component glyphName="uniF40B" x="37" y="0" flags="0x4"/>
    </TTGlyph>
    <TTGlyph name="afii10056" xMin="12" yMin="0" xMax="359" yMax="857">
      <contour>
        <pt x="12" y="793" on="1"/>
        <pt x="12" y="825" on="0"/>
        <pt x="51" y="857" on="0"/>
        <pt x="86" y="857" on="1"/>
        <pt x="121" y="857" on="0"/>
        <pt x="160" y="825" on="0"/>
        <pt x="160" y="793" on="1"/>
        <pt x="160" y="765" on="0"/>
        <pt x="121" y="734" on="0"/>
        <pt x="86" y="734" on="1"/>
        <pt x="51" y="734" on="0"/>
        <pt x="12" y="765" on="0"/>
      </contour>
      <contour>
        <pt x="211" y="793" on="1"/>
        <pt x="211" y="825" on="0"/>
        <pt x="251" y="857" on="0"/>
        <pt x="286" y="857" on="1"/>
        <pt x="359" y="857" on="0"/>
        <pt x="359" y="793" on="1"/>
        <pt x="359" y="765" on="0"/>
        <pt x="321" y="734" on="0"/>
        <pt x="286" y="734" on="1"/>
        <pt x="251" y="734" on="0"/>
        <pt x="211" y="765" on="0"/>
      </contour>
      <contour>
        <pt x="342" y="0" on="1"/>
        <pt x="30" y="0" on="1"/>
        <pt x="30" y="38" on="1"/>
        <pt x="70" y="60" on="0"/>
        <pt x="111" y="67" on="1"/>
        <pt x="111" y="633" on="1"/>
        <pt x="91" y="636" on="0"/>
        <pt x="47" y="652" on="0"/>
        <pt x="30" y="662" on="1"/>
        <pt x="30" y="700" on="1"/>
        <pt x="342" y="700" on="1"/>
        <pt x="342" y="662" on="1"/>
        <pt x="324" y="651" on="0"/>
        <pt x="281" y="636" on="0"/>
        <pt x="261" y="633" on="1"/>
        <pt x="261" y="67" on="1"/>
        <pt x="281" y="63" on="0"/>
        <pt x="324" y="49" on="0"/>
        <pt x="342" y="38" on="1"/>
      </contour>
    </TTGlyph>
    <TTGlyph name="afii10057" xMin="27" yMin="-160" xMax="335" yMax="700">
      <component glyphName="J" x="0" y="0" flags="0x204"/>
    </TTGlyph>
    <TTGlyph name="afii10058" xMin="-6" yMin="-12" xMax="942" yMax="700">
      <contour>
        <pt x="373" y="0" on="1"/>
        <pt x="373" y="38" on="1"/>
        <pt x="391" y="48" on="0"/>
        <pt x="429" y="63" on="0"/>
        <pt x="449" y="67" on="1"/>
        <pt x="449" y="635" on="1"/>
        <pt x="286" y="635" on="1"/>
        <pt x="283" y="483" on="0"/>
        <pt x="261" y="280" on="0"/>
        <pt x="229" y="148" on="0"/>
        <pt x="190" y="71" on="0"/>
        <pt x="169" y="43" on="1"/>
        <pt x="150" y="17" on="0"/>
        <pt x="92" y="-12" on="0"/>
        <pt x="65" y="-12" on="1"/>
        <pt x="52" y="-7" on="0"/>
        <pt x="28" y="24" on="0"/>
        <pt x="8" y="64" on="0"/>
        <pt x="-5" y="108" on="0"/>
        <pt x="-6" y="127" on="1"/>
        <pt x="21" y="165" on="1"/>
        <pt x="140" y="136" on="1"/>
        <pt x="153" y="164" on="0"/>
        <pt x="178" y="243" on="0"/>
        <pt x="198" y="359" on="0"/>
        <pt x="210" y="517" on="0"/>
        <pt x="210" y="623" on="1"/>
        <pt x="179" y="628" on="0"/>
        <pt x="124" y="650" on="0"/>
        <pt x="104" y="662" on="1"/>
        <pt x="104" y="700" on="1"/>
        <pt x="687" y="700" on="1"/>
        <pt x="687" y="662" on="1"/>
        <pt x="668" y="652" on="0"/>
        <pt x="623" y="637" on="0"/>
        <pt x="599" y="633" on="1"/>
        <pt x="599" y="419" on="1"/>
        <pt x="617" y="422" on="0"/>
        <pt x="667" y="426" on="0"/>
        <pt x="687" y="426" on="1"/>
        <pt x="739" y="426" on="0"/>
        <pt x="832" y="406" on="0"/>
        <pt x="901" y="358" on="0"/>
        <pt x="942" y="278" on="0"/>
        <pt x="942" y="218" on="1"/>
        <pt x="942" y="162" on="0"/>
        <pt x="898" y="79" on="0"/>
        <pt x="822" y="24" on="0"/>
        <pt x="720" y="-3" on="0"/>
        <pt x="662" y="-3" on="1"/>
        <pt x="657" y="-3" on="0"/>
        <pt x="626" y="-2" on="0"/>
        <pt x="585" y="-1" on="0"/>
        <pt x="543" y="0" on="0"/>
        <pt x="528" y="0" on="1"/>
      </contour>
      <contour>
        <pt x="651" y="361" on="1"/>
        <pt x="618" y="361" on="0"/>
        <pt x="599" y="355" on="1"/>
        <pt x="599" y="66" on="1"/>
        <pt x="607" y="64" on="0"/>
        <pt x="643" y="62" on="0"/>
        <pt x="652" y="62" on="1"/>
        <pt x="709" y="62" on="0"/>
        <pt x="777" y="136" on="0"/>
        <pt x="777" y="218" on="1"/>
        <pt x="777" y="361" on="0"/>
      </contour>
    </TTGlyph>
    <TTGlyph name="afii10059" xMin="20" yMin="-3" xMax="1010" yMax="700">
      <contour>
        <pt x="446" y="0" on="1"/>
        <pt x="446" y="38" on="1"/>
        <pt x="463" y="49" on="0"/>
        <pt x="496" y="63" on="0"/>
        <pt x="517" y="67" on="1"/>
        <pt x="517" y="339" on="1"/>
        <pt x="252" y="339" on="1"/>
        <pt x="252" y="67" on="1"/>
        <pt x="272" y="63" on="0"/>
        <pt x="306" y="49" on="0"/>
        <pt x="323" y="38" on="1"/>
        <pt x="323" y="0" on="1"/>
        <pt x="20" y="0" on="1"/>
        <pt x="20" y="38" on="1"/>
        <pt x="37" y="47" on="0"/>
        <pt x="82" y="63" on="0"/>
        <pt x="102" y="67" on="1"/>
        <pt x="102" y="633" on="1"/>
        <pt x="78" y="637" on="0"/>
        <pt x="34" y="653" on="0"/>
        <pt x="20" y="662" on="1"/>
        <pt x="20" y="700" on="1"/>
        <pt x="323" y="700" on="1"/>
        <pt x="323" y="662" on="1"/>
        <pt x="308" y="652" on="0"/>
        <pt x="271" y="636" on="0"/>
        <pt x="252" y="633" on="1"/>
        <pt x="252" y="404" on="1"/>
        <pt x="517" y="404" on="1"/>
        <pt x="517" y="633" on="1"/>
        <pt x="497" y="637" on="0"/>
        <pt x="466" y="650" on="0"/>
        <pt x="446" y="662" on="1"/>
        <pt x="446" y="700" on="1"/>
        <pt x="755" y="700" on="1"/>
        <pt x="755" y="662" on="1"/>
        <pt x="736" y="652" on="0"/>
        <pt x="691" y="637" on="0"/>
        <pt x="667" y="633" on="1"/>
        <pt x="667" y="403" on="1"/>
        <pt x="685" y="406" on="0"/>
        <pt x="735" y="410" on="0"/>
        <pt x="755" y="410" on="1"/>
        <pt x="807" y="410" on="0"/>
        <pt x="900" y="391" on="0"/>
        <pt x="969" y="344" on="0"/>
        <pt x="1010" y="267" on="0"/>
        <pt x="1010" y="209" on="1"/>
        <pt x="1010" y="153" on="0"/>
        <pt x="966" y="73" on="0"/>
        <pt x="890" y="22" on="0"/>
        <pt x="788" y="-3" on="0"/>
        <pt x="730" y="-3" on="1"/>
        <pt x="725" y="-3" on="0"/>
        <pt x="694" y="-2" on="0"/>
        <pt x="653" y="-1" on="0"/>
        <pt x="611" y="0" on="0"/>
        <pt x="596" y="0" on="1"/>
      </contour>
      <contour>
        <pt x="719" y="345" on="1"/>
        <pt x="686" y="345" on="0"/>
        <pt x="667" y="339" on="1"/>
        <pt x="667" y="66" on="1"/>
        <pt x="675" y="64" on="0"/>
        <pt x="711" y="62" on="0"/>
        <pt x="720" y="62" on="1"/>
        <pt x="776" y="62" on="0"/>
        <pt x="845" y="129" on="0"/>
        <pt x="845" y="209" on="1"/>
        <pt x="845" y="279" on="0"/>
        <pt x="782" y="345" on="0"/>
      </contour>
    </TTGlyph>
    <TTGlyph name="afii10060" xMin="10" yMin="0" xMax="838" yMax="700">
      <contour>
        <pt x="403" y="635" on="1"/>
        <pt x="403" y="385" on="1"/>
        <pt x="431" y="402" on="0"/>
        <pt x="520" y="430" on="0"/>
        <pt x="576" y="430" on="1"/>
        <pt x="616" y="430" on="0"/>
        <pt x="686" y="413" on="0"/>
        <pt x="737" y="371" on="0"/>
        <pt x="766" y="298" on="0"/>
        <pt x="766" y="242" on="1"/>
        <pt x="766" y="67" on="1"/>
        <pt x="785" y="64" on="0"/>
        <pt x="823" y="48" on="0"/>
        <pt x="838" y="38" on="1"/>
        <pt x="838" y="0" on="1"/>
        <pt x="616" y="0" on="1"/>
        <pt x="616" y="207" on="1"/>
        <pt x="616" y="242" on="0"/>
        <pt x="609" y="298" on="0"/>
        <pt x="588" y="338" on="0"/>
        <pt x="548" y="360" on="0"/>
        <pt x="515" y="360" on="1"/>
        <pt x="482" y="360" on="0"/>
        <pt x="428" y="341" on="0"/>
        <pt x="403" y="325" on="1"/>
        <pt x="403" y="67" on="1"/>
        <pt x="420" y="62" on="0"/>
        <pt x="452" y="46" on="0"/>
        <pt x="465" y="38" on="1"/>
        <pt x="465" y="0" on="1"/>
        <pt x="156" y="0" on="1"/>
        <pt x="156" y="38" on="1"/>
        <pt x="176" y="46" on="0"/>
        <pt x="227" y="63" on="0"/>
        <pt x="253" y="67" on="1"/>
        <pt x="253" y="635" on="1"/>
        <pt x="137" y="635" on="1"/>
        <pt x="73" y="464" on="1"/>
        <pt x="32" y="464" on="1"/>
        <pt x="28" y="484" on="0"/>
        <pt x="20" y="546" on="0"/>
        <pt x="14" y="612" on="0"/>
        <pt x="10" y="677" on="0"/>
        <pt x="10" y="700" on="1"/>
        <pt x="647" y="700" on="1"/>
        <pt x="646" y="651" on="0"/>
        <pt x="633" y="539" on="0"/>
        <pt x="625" y="496" on="1"/>
        <pt x="583" y="496" on="1"/>
        <pt x="519" y="635" on="1"/>
      </contour>
    </TTGlyph>
    <TTGlyph name="afii10061" xMin="20" yMin="0" xMax="710" yMax="899">
      <component glyphName="K" x="0" y="0" flags="0x204"/>
      <component glyphName="uniF6C9" x="207" y="0" flags="0x4"/>
    </TTGlyph>
    <TTGlyph name="afii10062" xMin="0" yMin="-16" xMax="684" yMax="897">
      <component glyphName="afii10037" x="0" y="0" flags="0x204"/>
      <component glyphName="uniF6D1" x="108" y="0" flags="0x4"/>
    </TTGlyph>
    <TTGlyph name="afii10065" xMin="27" yMin="-12" xMax="542" yMax="512">
      <component glyphName="a" x="0" y="0" flags="0x204"/>
    </TTGlyph>
    <TTGlyph name="afii10066" xMin="31" yMin="-12" xMax="553" yMax="762">
      <contour>
        <pt x="31" y="271" on="1"/>
        <pt x="31" y="396" on="0"/>
        <pt x="78" y="565" on="0"/>
        <pt x="174" y="668" on="0"/>
        <pt x="319" y="712" on="0"/>
        <pt x="417" y="712" on="1"/>
        <pt x="482" y="762" on="1"/>
        <pt x="521" y="762" on="1"/>
        <pt x="521" y="743" on="0"/>
        <pt x="516" y="694" on="0"/>
        <pt x="507" y="646" on="0"/>
        <pt x="497" y="606" on="0"/>
        <pt x="493" y="596" on="1"/>
        <pt x="388" y="596" on="0"/>
        <pt x="243" y="582" on="0"/>
        <pt x="150" y="534" on="0"/>
        <pt x="102" y="443" on="0"/>
        <pt x="93" y="365" on="1"/>
        <pt x="98" y="365" on="1"/>
        <pt x="113" y="391" on="0"/>
        <pt x="160" y="438" on="0"/>
        <pt x="219" y="473" on="0"/>
        <pt x="286" y="493" on="0"/>
        <pt x="322" y="493" on="1"/>
        <pt x="431" y="493" on="0"/>
        <pt x="553" y="374" on="0"/>
        <pt x="553" y="247" on="1"/>
        <pt x="553" y="191" on="0"/>
        <pt x="517" y="96" on="0"/>
        <pt x="448" y="27" on="0"/>
        <pt x="346" y="-12" on="0"/>
        <pt x="281" y="-12" on="1"/>
        <pt x="224" y="-12" on="0"/>
        <pt x="132" y="26" on="0"/>
        <pt x="66" y="98" on="0"/>
        <pt x="31" y="203" on="0"/>
      </contour>
      <contour>
        <pt x="186" y="262" on="1"/>
        <pt x="186" y="199" on="0"/>
        <pt x="201" y="116" on="0"/>
        <pt x="230" y="66" on="0"/>
        <pt x="271" y="45" on="0"/>
        <pt x="298" y="45" on="1"/>
        <pt x="348" y="45" on="0"/>
        <pt x="397" y="138" on="0"/>
        <pt x="397" y="240" on="1"/>
        <pt x="397" y="341" on="0"/>
        <pt x="335" y="423" on="0"/>
        <pt x="280" y="423" on="1"/>
        <pt x="256" y="423" on="0"/>
        <pt x="211" y="397" on="0"/>
        <pt x="197" y="380" on="1"/>
        <pt x="186" y="333" on="0"/>
      </contour>
    </TTGlyph>
    <TTGlyph name="afii10067" xMin="29" yMin="-4" xMax="539" yMax="504">
      <contour>
        <pt x="539" y="146" on="1"/>
        <pt x="539" y="106" on="0"/>
        <pt x="505" y="49" on="0"/>
        <pt x="445" y="13" on="0"/>
        <pt x="364" y="-4" on="0"/>
        <pt x="318" y="-4" on="1"/>
        <pt x="286" y="-4" on="0"/>
        <pt x="240" y="-3" on="0"/>
        <pt x="206" y="-1" on="0"/>
        <pt x="181" y="0" on="0"/>
        <pt x="170" y="0" on="1"/>
        <pt x="29" y="0" on="1"/>
        <pt x="29" y="39" on="1"/>
        <pt x="60" y="55" on="0"/>
        <pt x="95" y="63" on="1"/>
        <pt x="95" y="437" on="1"/>
        <pt x="57" y="444" on="0"/>
        <pt x="29" y="461" on="1"/>
        <pt x="29" y="500" on="1"/>
        <pt x="164" y="500" on="1"/>
        <pt x="212" y="500" on="0"/>
        <pt x="286" y="504" on="0"/>
        <pt x="323" y="504" on="1"/>
        <pt x="418" y="504" on="0"/>
        <pt x="517" y="451" on="0"/>
        <pt x="517" y="385" on="1"/>
        <pt x="517" y="361" on="0"/>
        <pt x="496" y="323" on="0"/>
        <pt x="461" y="295" on="0"/>
        <pt x="419" y="277" on="0"/>
        <pt x="398" y="273" on="1"/>
        <pt x="426" y="271" on="0"/>
        <pt x="477" y="253" on="0"/>
        <pt x="516" y="221" on="0"/>
        <pt x="539" y="176" on="0"/>
      </contour>
      <contour>
        <pt x="239" y="57" on="1"/>
        <pt x="253" y="54" on="0"/>
        <pt x="286" y="53" on="0"/>
        <pt x="298" y="53" on="1"/>
        <pt x="343" y="53" on="0"/>
        <pt x="389" y="99" on="0"/>
        <pt x="389" y="143" on="1"/>
        <pt x="389" y="186" on="0"/>
        <pt x="336" y="229" on="0"/>
        <pt x="293" y="229" on="1"/>
        <pt x="239" y="229" on="1"/>
      </contour>
      <contour>
        <pt x="239" y="272" on="1"/>
        <pt x="328" y="282" on="1"/>
        <pt x="344" y="292" on="0"/>
        <pt x="374" y="337" on="0"/>
        <pt x="374" y="370" on="1"/>
        <pt x="374" y="447" on="0"/>
        <pt x="285" y="447" on="1"/>
        <pt x="274" y="447" on="0"/>
        <pt x="250" y="446" on="0"/>
        <pt x="239" y="443" on="1"/>
      </contour>
    </TTGlyph>
    <TTGlyph name="afii10068" xMin="29" yMin="0" xMax="456" yMax="500">
      <contour>
        <pt x="456" y="500" on="1"/>
        <pt x="455" y="481" on="0"/>
        <pt x="450" y="431" on="0"/>
        <pt x="443" y="377" on="0"/>
        <pt x="433" y="325" on="0"/>
        <pt x="428" y="305" on="1"/>
        <pt x="387" y="305" on="1"/>
        <pt x="343" y="443" on="1"/>
        <pt x="239" y="443" on="1"/>
        <pt x="239" y="63" on="1"/>
        <pt x="296" y="52" on="0"/>
        <pt x="329" y="39" on="1"/>
        <pt x="329" y="0" on="1"/>
        <pt x="29" y="0" on="1"/>
        <pt x="29" y="39" on="1"/>
        <pt x="46" y="49" on="0"/>
        <pt x="78" y="59" on="0"/>
        <pt x="95" y="63" on="1"/>
        <pt x="95" y="438" on="1"/>
        <pt x="58" y="444" on="0"/>
        <pt x="29" y="461" on="1"/>
        <pt x="29" y="500" on="1"/>
      </contour>
    </TTGlyph>
    <TTGlyph name="afii10069" xMin="0" yMin="-148" xMax="590" yMax="500">
      <contour>
        <pt x="108" y="0" on="1"/>
        <pt x="54" y="-148" on="1"/>
        <pt x="15" y="-148" on="1"/>
        <pt x="9" y="-99" on="0"/>
        <pt x="0" y="14" on="0"/>
        <pt x="0" y="63" on="1"/>
        <pt x="73" y="63" on="1"/>
        <pt x="85" y="77" on="0"/>
        <pt x="115" y="133" on="0"/>
        <pt x="142" y="222" on="0"/>
        <pt x="161" y="345" on="0"/>
        <pt x="161" y="427" on="1"/>
        <pt x="140" y="432" on="0"/>
        <pt x="101" y="450" on="0"/>
        <pt x="87" y="461" on="1"/>
        <pt x="87" y="500" on="1"/>
        <pt x="562" y="500" on="1"/>
        <pt x="562" y="461" on="1"/>
        <pt x="535" y="443" on="0"/>
        <pt x="496" y="437" on="1"/>
        <pt x="496" y="63" on="1"/>
        <pt x="589" y="63" on="1"/>
        <pt x="590" y="14" on="0"/>
        <pt x="581" y="-99" on="0"/>
        <pt x="574" y="-148" on="1"/>
        <pt x="535" y="-148" on="1"/>
        <pt x="481" y="0" on="1"/>
      </contour>
      <contour>
        <pt x="234" y="437" on="1"/>
        <pt x="234" y="353" on="0"/>
        <pt x="216" y="229" on="0"/>
        <pt x="190" y="139" on="0"/>
        <pt x="162" y="80" on="0"/>
        <pt x="152" y="63" on="1"/>
        <pt x="352" y="63" on="1"/>
        <pt x="352" y="437" on="1"/>
      </contour>
    </TTGlyph>
    <TTGlyph name="afii10070" xMin="31" yMin="-12" xMax="506" yMax="512">
      <component glyphName="e" x="0" y="0" flags="0x204"/>
    </TTGlyph>
    <TTGlyph name="afii10071" xMin="31" yMin="-12" xMax="506" yMax="729">
      <component glyphName="e" x="0" y="0" flags="0x204"/>
      <component glyphName="dieresis" x="25" y="0" flags="0x4"/>
    </TTGlyph>
    <TTGlyph name="afii10072" xMin="0" yMin="0" xMax="803" yMax="500">
      <contour>
        <pt x="570" y="500" on="1"/>
        <pt x="779" y="500" on="1"/>
        <pt x="779" y="461" on="1"/>
        <pt x="762" y="449" on="0"/>
        <pt x="722" y="437" on="1"/>
        <pt x="690" y="395" on="0"/>
        <pt x="631" y="324" on="0"/>
        <pt x="599" y="286" on="1"/>
        <pt x="612" y="268" on="0"/>
        <pt x="650" y="216" on="0"/>
        <pt x="694" y="156" on="0"/>
        <pt x="743" y="93" on="0"/>
        <pt x="767" y="63" on="1"/>
        <pt x="803" y="39" on="1"/>
        <pt x="803" y="0" on="1"/>
        <pt x="661" y="0" on="1"/>
        <pt x="633" y="23" on="1"/>
        <pt x="616" y="44" on="0"/>
        <pt x="580" y="101" on="0"/>
        <pt x="546" y="159" on="0"/>
        <pt x="519" y="211" on="0"/>
        <pt x="511" y="228" on="1"/>
        <pt x="467" y="228" on="1"/>
        <pt x="467" y="63" on="1"/>
        <pt x="498" y="55" on="0"/>
        <pt x="527" y="39" on="1"/>
        <pt x="527" y="0" on="1"/>
        <pt x="281" y="0" on="1"/>
        <pt x="281" y="39" on="1"/>
        <pt x="295" y="46" on="0"/>
        <pt x="322" y="58" on="0"/>
        <pt x="337" y="63" on="1"/>
        <pt x="337" y="234" on="1"/>
        <pt x="287" y="224" on="1"/>
        <pt x="279" y="210" on="0"/>
        <pt x="255" y="159" on="0"/>
        <pt x="223" y="101" on="0"/>
        <pt x="188" y="43" on="0"/>
        <pt x="170" y="23" on="1"/>
        <pt x="140" y="0" on="1"/>
        <pt x="0" y="0" on="1"/>
        <pt x="0" y="39" on="1"/>
        <pt x="42" y="63" on="1"/>
        <pt x="67" y="92" on="0"/>
        <pt x="113" y="154" on="0"/>
        <pt x="153" y="212" on="0"/>
        <pt x="187" y="262" on="0"/>
        <pt x="201" y="280" on="1"/>
        <pt x="165" y="318" on="0"/>
        <pt x="106" y="392" on="0"/>
        <pt x="74" y="437" on="1"/>
        <pt x="48" y="443" on="0"/>
        <pt x="24" y="461" on="1"/>
        <pt x="24" y="500" on="1"/>
        <pt x="233" y="500" on="1"/>
        <pt x="233" y="461" on="1"/>
        <pt x="214" y="447" on="0"/>
        <pt x="183" y="437" on="1"/>
        <pt x="196" y="413" on="0"/>
        <pt x="220" y="375" on="0"/>
        <pt x="245" y="339" on="0"/>
        <pt x="272" y="302" on="0"/>
        <pt x="290" y="278" on="1"/>
        <pt x="337" y="278" on="1"/>
        <pt x="337" y="437" on="1"/>
        <pt x="320" y="441" on="0"/>
        <pt x="297" y="453" on="0"/>
        <pt x="286" y="461" on="1"/>
        <pt x="286" y="500" on="1"/>
        <pt x="516" y="500" on="1"/>
        <pt x="516" y="461" on="1"/>
        <pt x="506" y="453" on="0"/>
        <pt x="485" y="441" on="0"/>
        <pt x="467" y="437" on="1"/>
        <pt x="467" y="272" on="1"/>
        <pt x="518" y="282" on="1"/>
        <pt x="536" y="306" on="0"/>
        <pt x="561" y="342" on="0"/>
        <pt x="584" y="377" on="0"/>
        <pt x="606" y="413" on="0"/>
        <pt x="620" y="437" on="1"/>
        <pt x="606" y="442" on="0"/>
        <pt x="582" y="452" on="0"/>
        <pt x="570" y="461" on="1"/>
      </contour>
    </TTGlyph>
    <TTGlyph name="afii10073" xMin="29" yMin="-12" xMax="462" yMax="512">
      <contour>
        <pt x="201" y="53" on="1"/>
        <pt x="255" y="53" on="0"/>
        <pt x="307" y="109" on="0"/>
        <pt x="307" y="149" on="1"/>
        <pt x="307" y="192" on="0"/>
        <pt x="269" y="223" on="0"/>
        <pt x="234" y="228" on="1"/>
        <pt x="145" y="213" on="1"/>
        <pt x="140" y="225" on="0"/>
        <pt x="138" y="268" on="0"/>
        <pt x="145" y="282" on="1"/>
        <pt x="242" y="282" on="1"/>
        <pt x="259" y="290" on="0"/>
        <pt x="294" y="334" on="0"/>
        <pt x="294" y="373" on="1"/>
        <pt x="294" y="411" on="0"/>
        <pt x="251" y="455" on="0"/>
        <pt x="211" y="455" on="1"/>
        <pt x="194" y="455" on="0"/>
        <pt x="163" y="450" on="0"/>
        <pt x="158" y="448" on="1"/>
        <pt x="113" y="335" on="1"/>
        <pt x="79" y="335" on="1"/>
        <pt x="65" y="363" on="0"/>
        <pt x="40" y="438" on="0"/>
        <pt x="39" y="470" on="1"/>
        <pt x="62" y="485" on="0"/>
        <pt x="162" y="512" on="0"/>
        <pt x="235" y="512" on="1"/>
        <pt x="334" y="512" on="0"/>
        <pt x="442" y="453" on="0"/>
        <pt x="442" y="395" on="1"/>
        <pt x="442" y="369" on="0"/>
        <pt x="420" y="327" on="0"/>
        <pt x="383" y="297" on="0"/>
        <pt x="336" y="276" on="0"/>
        <pt x="311" y="271" on="1"/>
        <pt x="340" y="268" on="0"/>
        <pt x="395" y="253" on="0"/>
        <pt x="437" y="224" on="0"/>
        <pt x="462" y="180" on="0"/>
        <pt x="462" y="149" on="1"/>
        <pt x="462" y="69" on="0"/>
        <pt x="337" y="-12" on="0"/>
        <pt x="225" y="-12" on="1"/>
        <pt x="157" y="-12" on="0"/>
        <pt x="58" y="22" on="0"/>
        <pt x="29" y="48" on="1"/>
        <pt x="56" y="142" on="1"/>
        <pt x="85" y="142" on="1"/>
        <pt x="100" y="128" on="0"/>
        <pt x="136" y="80" on="0"/>
        <pt x="150" y="61" on="1"/>
        <pt x="160" y="57" on="0"/>
        <pt x="184" y="53" on="0"/>
      </contour>
    </TTGlyph>
    <TTGlyph name="afii10074" xMin="29" yMin="0" xMax="640" yMax="500">
      <contour>
        <pt x="29" y="500" on="1"/>
        <pt x="295" y="500" on="1"/>
        <pt x="295" y="461" on="1"/>
        <pt x="284" y="455" on="0"/>
        <pt x="255" y="443" on="0"/>
        <pt x="235" y="437" on="1"/>
        <pt x="235" y="212" on="1"/>
        <pt x="224" y="119" on="1"/>
        <pt x="229" y="119" on="1"/>
        <pt x="268" y="194" on="1"/>
        <pt x="451" y="500" on="1"/>
        <pt x="640" y="500" on="1"/>
        <pt x="640" y="461" on="1"/>
        <pt x="608" y="443" on="0"/>
        <pt x="574" y="437" on="1"/>
        <pt x="574" y="63" on="1"/>
        <pt x="593" y="58" on="0"/>
        <pt x="627" y="47" on="0"/>
        <pt x="640" y="39" on="1"/>
        <pt x="640" y="0" on="1"/>
        <pt x="374" y="0" on="1"/>
        <pt x="374" y="39" on="1"/>
        <pt x="402" y="55" on="0"/>
        <pt x="434" y="63" on="1"/>
        <pt x="434" y="299" on="1"/>
        <pt x="444" y="378" on="1"/>
        <pt x="439" y="378" on="1"/>
        <pt x="401" y="303" on="1"/>
        <pt x="220" y="0" on="1"/>
        <pt x="29" y="0" on="1"/>
        <pt x="29" y="39" on="1"/>
        <pt x="46" y="47" on="0"/>
        <pt x="78" y="58" on="0"/>
        <pt x="95" y="63" on="1"/>
        <pt x="95" y="437" on="1"/>
        <pt x="56" y="443" on="0"/>
        <pt x="29" y="461" on="1"/>
      </contour>
    </TTGlyph>
    <TTGlyph name="afii10075" xMin="29" yMin="0" xMax="640" yMax="715">
      <component glyphName="afii10074" x="0" y="0" flags="0x204"/>
      <component glyphName="uniF6D4" x="98" y="0" flags="0x4"/>
    </TTGlyph>
    <TTGlyph name="afii10076" xMin="29" yMin="0" xMax="594" yMax="500">
      <contour>
        <pt x="342" y="500" on="1"/>
        <pt x="571" y="500" on="1"/>
        <pt x="571" y="461" on="1"/>
        <pt x="561" y="453" on="0"/>
        <pt x="532" y="442" on="0"/>
        <pt x="508" y="434" on="1"/>
        <pt x="474" y="393" on="0"/>
        <pt x="402" y="318" on="0"/>
        <pt x="368" y="286" on="1"/>
        <pt x="390" y="262" on="0"/>
        <pt x="436" y="206" on="0"/>
        <pt x="481" y="147" on="0"/>
        <pt x="528" y="89" on="0"/>
        <pt x="552" y="63" on="1"/>
        <pt x="594" y="39" on="1"/>
        <pt x="594" y="0" on="1"/>
        <pt x="437" y="0" on="1"/>
        <pt x="405" y="23" on="1"/>
        <pt x="362" y="75" on="0"/>
        <pt x="307" y="179" on="0"/>
        <pt x="279" y="230" on="1"/>
        <pt x="239" y="230" on="1"/>
        <pt x="239" y="63" on="1"/>
        <pt x="271" y="54" on="0"/>
        <pt x="295" y="39" on="1"/>
        <pt x="295" y="0" on="1"/>
        <pt x="29" y="0" on="1"/>
        <pt x="29" y="39" on="1"/>
        <pt x="56" y="55" on="0"/>
        <pt x="95" y="63" on="1"/>
        <pt x="95" y="437" on="1"/>
        <pt x="60" y="444" on="0"/>
        <pt x="29" y="461" on="1"/>
        <pt x="29" y="500" on="1"/>
        <pt x="284" y="500" on="1"/>
        <pt x="284" y="461" on="1"/>
        <pt x="274" y="454" on="0"/>
        <pt x="255" y="442" on="0"/>
        <pt x="239" y="437" on="1"/>
        <pt x="239" y="274" on="1"/>
        <pt x="285" y="284" on="1"/>
        <pt x="314" y="317" on="0"/>
        <pt x="372" y="393" on="0"/>
        <pt x="396" y="434" on="1"/>
        <pt x="379" y="441" on="0"/>
        <pt x="355" y="453" on="0"/>
        <pt x="342" y="461" on="1"/>
      </contour>
    </TTGlyph>
    <TTGlyph name="afii10077" xMin="2" yMin="-18" xMax="561" yMax="500">
      <contour>
        <pt x="119" y="113" on="1"/>
        <pt x="144" y="160" on="0"/>
        <pt x="168" y="329" on="0"/>
        <pt x="169" y="427" on="1"/>
        <pt x="149" y="433" on="0"/>
        <pt x="112" y="451" on="0"/>
        <pt x="98" y="461" on="1"/>
        <pt x="98" y="500" on="1"/>
        <pt x="561" y="500" on="1"/>
        <pt x="561" y="461" on="1"/>
        <pt x="529" y="443" on="0"/>
        <pt x="495" y="437" on="1"/>
        <pt x="495" y="63" on="1"/>
        <pt x="516" y="58" on="0"/>
        <pt x="548" y="46" on="0"/>
        <pt x="561" y="39" on="1"/>
        <pt x="561" y="0" on="1"/>
        <pt x="296" y="0" on="1"/>
        <pt x="296" y="39" on="1"/>
        <pt x="308" y="47" on="0"/>
        <pt x="333" y="59" on="0"/>
        <pt x="351" y="63" on="1"/>
        <pt x="351" y="443" on="1"/>
        <pt x="241" y="443" on="1"/>
        <pt x="240" y="390" on="0"/>
        <pt x="230" y="275" on="0"/>
        <pt x="209" y="165" on="0"/>
        <pt x="175" y="68" on="0"/>
        <pt x="151" y="34" on="1"/>
        <pt x="131" y="6" on="0"/>
        <pt x="83" y="-18" on="0"/>
        <pt x="64" y="-14" on="1"/>
        <pt x="51" y="-7" on="0"/>
        <pt x="29" y="24" on="0"/>
        <pt x="13" y="58" on="0"/>
        <pt x="3" y="92" on="0"/>
        <pt x="2" y="104" on="1"/>
        <pt x="25" y="138" on="1"/>
      </contour>
    </TTGlyph>
    <TTGlyph name="afii10078" xMin="21" yMin="0" xMax="779" yMax="500">
      <contour>
        <pt x="220" y="0" on="1"/>
        <pt x="21" y="0" on="1"/>
        <pt x="21" y="39" on="1"/>
        <pt x="54" y="55" on="0"/>
        <pt x="87" y="63" on="1"/>
        <pt x="107" y="427" on="1"/>
        <pt x="86" y="435" on="0"/>
        <pt x="54" y="453" on="0"/>
        <pt x="41" y="461" on="1"/>
        <pt x="41" y="500" on="1"/>
        <pt x="290" y="500" on="1"/>
        <pt x="376" y="258" on="1"/>
        <pt x="395" y="189" on="1"/>
        <pt x="398" y="189" on="1"/>
        <pt x="419" y="259" on="1"/>
        <pt x="507" y="500" on="1"/>
        <pt x="759" y="500" on="1"/>
        <pt x="759" y="461" on="1"/>
        <pt x="746" y="453" on="0"/>
        <pt x="714" y="441" on="0"/>
        <pt x="693" y="437" on="1"/>
        <pt x="713" y="63" on="1"/>
        <pt x="746" y="57" on="0"/>
        <pt x="779" y="39" on="1"/>
        <pt x="779" y="0" on="1"/>
        <pt x="513" y="0" on="1"/>
        <pt x="513" y="39" on="1"/>
        <pt x="523" y="44" on="0"/>
        <pt x="551" y="56" on="0"/>
        <pt x="573" y="63" on="1"/>
        <pt x="553" y="423" on="1"/>
        <pt x="545" y="423" on="1"/>
        <pt x="393" y="0" on="1"/>
        <pt x="343" y="0" on="1"/>
        <pt x="183" y="423" on="1"/>
        <pt x="175" y="423" on="1"/>
        <pt x="160" y="63" on="1"/>
        <pt x="196" y="52" on="0"/>
        <pt x="220" y="39" on="1"/>
      </contour>
    </TTGlyph>
    <TTGlyph name="afii10079" xMin="29" yMin="0" xMax="635" yMax="500">
      <contour>
        <pt x="294" y="0" on="1"/>
        <pt x="29" y="0" on="1"/>
        <pt x="29" y="39" on="1"/>
        <pt x="43" y="47" on="0"/>
        <pt x="77" y="58" on="0"/>
        <pt x="95" y="63" on="1"/>
        <pt x="95" y="437" on="1"/>
        <pt x="77" y="442" on="0"/>
        <pt x="43" y="453" on="0"/>
        <pt x="29" y="461" on="1"/>
        <pt x="29" y="500" on="1"/>
        <pt x="294" y="500" on="1"/>
        <pt x="294" y="461" on="1"/>
        <pt x="271" y="447" on="0"/>
        <pt x="239" y="437" on="1"/>
        <pt x="239" y="281" on="1"/>
        <pt x="425" y="281" on="1"/>
        <pt x="425" y="437" on="1"/>
        <pt x="396" y="443" on="0"/>
        <pt x="370" y="461" on="1"/>
        <pt x="370" y="500" on="1"/>
        <pt x="635" y="500" on="1"/>
        <pt x="635" y="461" on="1"/>
        <pt x="608" y="444" on="0"/>
        <pt x="569" y="437" on="1"/>
        <pt x="569" y="63" on="1"/>
        <pt x="587" y="59" on="0"/>
        <pt x="621" y="49" on="0"/>
        <pt x="635" y="39" on="1"/>
        <pt x="635" y="0" on="1"/>
        <pt x="370" y="0" on="1"/>
        <pt x="370" y="39" on="1"/>
        <pt x="396" y="58" on="0"/>
        <pt x="425" y="63" on="1"/>
        <pt x="425" y="224" on="1"/>
        <pt x="239" y="224" on="1"/>
        <pt x="239" y="63" on="1"/>
        <pt x="256" y="59" on="0"/>
        <pt x="283" y="47" on="0"/>
        <pt x="294" y="39" on="1"/>
      </contour>
    </TTGlyph>
    <TTGlyph name="afii10080" xMin="31" yMin="-12" xMax="563" yMax="512">
      <component glyphName="o" x="0" y="0" flags="0x204"/>
    </TTGlyph>
    <TTGlyph name="afii10081" xMin="29" yMin="0" xMax="630" yMax="500">
      <contour>
        <pt x="294" y="0" on="1"/>
        <pt x="29" y="0" on="1"/>
        <pt x="29" y="39" on="1"/>
        <pt x="48" y="50" on="0"/>
        <pt x="80" y="61" on="0"/>
        <pt x="95" y="63" on="1"/>
        <pt x="95" y="437" on="1"/>
        <pt x="74" y="442" on="0"/>
        <pt x="40" y="454" on="0"/>
        <pt x="29" y="461" on="1"/>
        <pt x="29" y="500" on="1"/>
        <pt x="630" y="500" on="1"/>
        <pt x="630" y="461" on="1"/>
        <pt x="617" y="453" on="0"/>
        <pt x="585" y="439" on="0"/>
        <pt x="564" y="437" on="1"/>
        <pt x="564" y="63" on="1"/>
        <pt x="598" y="57" on="0"/>
        <pt x="630" y="39" on="1"/>
        <pt x="630" y="0" on="1"/>
        <pt x="365" y="0" on="1"/>
        <pt x="365" y="39" on="1"/>
        <pt x="375" y="46" on="0"/>
        <pt x="398" y="58" on="0"/>
        <pt x="420" y="63" on="1"/>
        <pt x="420" y="443" on="1"/>
        <pt x="239" y="443" on="1"/>
        <pt x="239" y="63" on="1"/>
        <pt x="259" y="57" on="0"/>
        <pt x="283" y="45" on="0"/>
        <pt x="294" y="39" on="1"/>
      </contour>
    </TTGlyph>
    <TTGlyph name="afii10082" xMin="21" yMin="-200" xMax="578" yMax="512">
      <component glyphName="p" x="0" y="0" flags="0x204"/>
    </TTGlyph>
    <TTGlyph name="afii10083" xMin="31" yMin="-12" xMax="456" yMax="512">
      <component glyphName="c" x="0" y="0" flags="0x204"/>
    </TTGlyph>
    <TTGlyph name="afii10084" xMin="15" yMin="0" xMax="527" yMax="500">
      <contour>
        <pt x="413" y="0" on="1"/>
        <pt x="129" y="0" on="1"/>
        <pt x="129" y="39" on="1"/>
        <pt x="144" y="47" on="0"/>
        <pt x="182" y="59" on="0"/>
        <pt x="199" y="63" on="1"/>
        <pt x="199" y="443" on="1"/>
        <pt x="126" y="443" on="1"/>
        <pt x="82" y="305" on="1"/>
        <pt x="40" y="305" on="1"/>
        <pt x="35" y="326" on="0"/>
        <pt x="26" y="378" on="0"/>
        <pt x="20" y="431" on="0"/>
        <pt x="15" y="481" on="0"/>
        <pt x="15" y="500" on="1"/>
        <pt x="527" y="500" on="1"/>
        <pt x="527" y="482" on="0"/>
        <pt x="523" y="432" on="0"/>
        <pt x="516" y="379" on="0"/>
        <pt x="507" y="326" on="0"/>
        <pt x="502" y="305" on="1"/>
        <pt x="460" y="305" on="1"/>
        <pt x="416" y="443" on="1"/>
        <pt x="343" y="443" on="1"/>
        <pt x="343" y="63" on="1"/>
        <pt x="366" y="57" on="0"/>
        <pt x="398" y="47" on="0"/>
        <pt x="413" y="39" on="1"/>
      </contour>
    </TTGlyph>
    <TTGlyph name="afii10085" xMin="-15" yMin="-215" xMax="543" yMax="500">
      <component glyphName="y" x="0" y="0" flags="0x204"/>
    </TTGlyph>
    <TTGlyph name="afii10086" xMin="28" yMin="-200" xMax="762" yMax="752">
      <contour>
        <pt x="531" y="-200" on="1"/>
        <pt x="259" y="-200" on="1"/>
        <pt x="259" y="-161" on="1"/>
        <pt x="287" y="-145" on="0"/>
        <pt x="325" y="-137" on="1"/>
        <pt x="325" y="21" on="1"/>
        <pt x="313" y="6" on="0"/>
        <pt x="263" y="-12" on="0"/>
        <pt x="238" y="-12" on="1"/>
        <pt x="192" y="-12" on="0"/>
        <pt x="115" y="17" on="0"/>
        <pt x="59" y="77" on="0"/>
        <pt x="28" y="169" on="0"/>
        <pt x="28" y="232" on="1"/>
        <pt x="28" y="304" on="0"/>
        <pt x="60" y="409" on="0"/>
        <pt x="118" y="478" on="0"/>
        <pt x="199" y="512" on="0"/>
        <pt x="249" y="512" on="1"/>
        <pt x="274" y="512" on="0"/>
        <pt x="316" y="497" on="0"/>
        <pt x="325" y="485" on="1"/>
        <pt x="325" y="669" on="1"/>
        <pt x="249" y="677" on="1"/>
        <pt x="249" y="716" on="1"/>
        <pt x="263" y="722" on="0"/>
        <pt x="311" y="734" on="0"/>
        <pt x="364" y="744" on="0"/>
        <pt x="414" y="751" on="0"/>
        <pt x="431" y="752" on="1"/>
        <pt x="465" y="752" on="1"/>
        <pt x="465" y="479" on="1"/>
        <pt x="479" y="494" on="0"/>
        <pt x="530" y="512" on="0"/>
        <pt x="558" y="512" on="1"/>
        <pt x="603" y="512" on="0"/>
        <pt x="678" y="484" on="0"/>
        <pt x="732" y="426" on="0"/>
        <pt x="762" y="339" on="0"/>
        <pt x="762" y="280" on="1"/>
        <pt x="762" y="204" on="0"/>
        <pt x="729" y="94" on="0"/>
        <pt x="671" y="22" on="0"/>
        <pt x="591" y="-12" on="0"/>
        <pt x="545" y="-12" on="1"/>
        <pt x="523" y="-12" on="0"/>
        <pt x="477" y="1" on="0"/>
        <pt x="465" y="14" on="1"/>
        <pt x="465" y="-137" on="1"/>
        <pt x="502" y="-143" on="0"/>
        <pt x="531" y="-161" on="1"/>
      </contour>
      <contour>
        <pt x="273" y="51" on="1"/>
        <pt x="290" y="51" on="0"/>
        <pt x="316" y="60" on="0"/>
        <pt x="330" y="74" on="1"/>
        <pt x="330" y="432" on="1"/>
        <pt x="318" y="440" on="0"/>
        <pt x="292" y="449" on="0"/>
        <pt x="272" y="449" on="1"/>
        <pt x="252" y="449" on="0"/>
        <pt x="218" y="431" on="0"/>
        <pt x="192" y="390" on="0"/>
        <pt x="178" y="322" on="0"/>
        <pt x="178" y="271" on="1"/>
        <pt x="178" y="203" on="0"/>
        <pt x="192" y="118" on="0"/>
        <pt x="217" y="69" on="0"/>
        <pt x="252" y="51" on="0"/>
      </contour>
      <contour>
        <pt x="516" y="449" on="1"/>
        <pt x="499" y="449" on="0"/>
        <pt x="474" y="440" on="0"/>
        <pt x="460" y="428" on="1"/>
        <pt x="460" y="69" on="1"/>
        <pt x="472" y="59" on="0"/>
        <pt x="498" y="51" on="0"/>
        <pt x="518" y="51" on="1"/>
        <pt x="536" y="51" on="0"/>
        <pt x="570" y="69" on="0"/>
        <pt x="596" y="114" on="0"/>
        <pt x="612" y="188" on="0"/>
        <pt x="612" y="245" on="1"/>
        <pt x="612" y="306" on="0"/>
        <pt x="599" y="386" on="0"/>
        <pt x="575" y="431" on="0"/>
        <pt x="539" y="449" on="0"/>
      </contour>
    </TTGlyph>
    <TTGlyph name="afii10087" xMin="10" yMin="0" xMax="550" yMax="500">
      <component glyphName="x" x="0" y="0" flags="0x204"/>
    </TTGlyph>
    <TTGlyph name="afii10088" xMin="29" yMin="-148" xMax="652" yMax="500">
      <contour>
        <pt x="29" y="0" on="1"/>
        <pt x="29" y="39" on="1"/>
        <pt x="56" y="55" on="0"/>
        <pt x="95" y="63" on="1"/>
        <pt x="95" y="437" on="1"/>
        <pt x="57" y="443" on="0"/>
        <pt x="29" y="461" on="1"/>
        <pt x="29" y="500" on="1"/>
        <pt x="294" y="500" on="1"/>
        <pt x="294" y="461" on="1"/>
        <pt x="283" y="454" on="0"/>
        <pt x="258" y="442" on="0"/>
        <pt x="239" y="437" on="1"/>
        <pt x="239" y="57" on="1"/>
        <pt x="410" y="57" on="1"/>
        <pt x="410" y="437" on="1"/>
        <pt x="396" y="440" on="0"/>
        <pt x="371" y="452" on="0"/>
        <pt x="355" y="461" on="1"/>
        <pt x="355" y="500" on="1"/>
        <pt x="620" y="500" on="1"/>
        <pt x="620" y="461" on="1"/>
        <pt x="607" y="454" on="0"/>
        <pt x="575" y="442" on="0"/>
        <pt x="554" y="437" on="1"/>
        <pt x="554" y="57" on="1"/>
        <pt x="652" y="57" on="1"/>
        <pt x="650" y="9" on="0"/>
        <pt x="637" y="-101" on="0"/>
        <pt x="632" y="-148" on="1"/>
        <pt x="593" y="-148" on="1"/>
        <pt x="539" y="0" on="1"/>
      </contour>
    </TTGlyph>
    <TTGlyph name="afii10089" xMin="3" yMin="0" xMax="575" yMax="500">
      <contour>
        <pt x="3" y="500" on="1"/>
        <pt x="265" y="500" on="1"/>
        <pt x="265" y="461" on="1"/>
        <pt x="245" y="445" on="0"/>
        <pt x="213" y="437" on="1"/>
        <pt x="213" y="326" on="1"/>
        <pt x="213" y="284" on="0"/>
        <pt x="242" y="235" on="0"/>
        <pt x="278" y="235" on="1"/>
        <pt x="304" y="235" on="0"/>
        <pt x="348" y="251" on="0"/>
        <pt x="365" y="262" on="1"/>
        <pt x="365" y="437" on="1"/>
        <pt x="349" y="440" on="0"/>
        <pt x="325" y="452" on="0"/>
        <pt x="312" y="461" on="1"/>
        <pt x="312" y="500" on="1"/>
        <pt x="575" y="500" on="1"/>
        <pt x="575" y="461" on="1"/>
        <pt x="548" y="444" on="0"/>
        <pt x="509" y="437" on="1"/>
        <pt x="509" y="63" on="1"/>
        <pt x="529" y="58" on="0"/>
        <pt x="561" y="47" on="0"/>
        <pt x="575" y="39" on="1"/>
        <pt x="575" y="0" on="1"/>
        <pt x="285" y="0" on="1"/>
        <pt x="285" y="39" on="1"/>
        <pt x="326" y="56" on="0"/>
        <pt x="365" y="63" on="1"/>
        <pt x="365" y="219" on="1"/>
        <pt x="341" y="193" on="0"/>
        <pt x="263" y="160" on="0"/>
        <pt x="218" y="160" on="1"/>
        <pt x="148" y="160" on="0"/>
        <pt x="69" y="236" on="0"/>
        <pt x="69" y="301" on="1"/>
        <pt x="69" y="437" on="1"/>
        <pt x="31" y="444" on="0"/>
        <pt x="3" y="461" on="1"/>
      </contour>
    </TTGlyph>
    <TTGlyph name="afii10090" xMin="29" yMin="0" xMax="873" yMax="500">
      <contour>
        <pt x="663" y="57" on="1"/>
        <pt x="663" y="437" on="1"/>
        <pt x="638" y="444" on="0"/>
        <pt x="618" y="461" on="1"/>
        <pt x="618" y="500" on="1"/>
        <pt x="873" y="500" on="1"/>
        <pt x="873" y="461" on="1"/>
        <pt x="859" y="453" on="0"/>
        <pt x="827" y="441" on="0"/>
        <pt x="807" y="437" on="1"/>
        <pt x="807" y="63" on="1"/>
        <pt x="844" y="55" on="0"/>
        <pt x="873" y="39" on="1"/>
        <pt x="873" y="0" on="1"/>
        <pt x="29" y="0" on="1"/>
        <pt x="29" y="39" on="1"/>
        <pt x="57" y="55" on="0"/>
        <pt x="95" y="63" on="1"/>
        <pt x="95" y="437" on="1"/>
        <pt x="78" y="439" on="0"/>
        <pt x="46" y="450" on="0"/>
        <pt x="29" y="461" on="1"/>
        <pt x="29" y="500" on="1"/>
        <pt x="284" y="500" on="1"/>
        <pt x="284" y="461" on="1"/>
        <pt x="265" y="445" on="0"/>
        <pt x="239" y="437" on="1"/>
        <pt x="239" y="57" on="1"/>
        <pt x="379" y="57" on="1"/>
        <pt x="379" y="437" on="1"/>
        <pt x="365" y="442" on="0"/>
        <pt x="339" y="453" on="0"/>
        <pt x="328" y="461" on="1"/>
        <pt x="328" y="500" on="1"/>
        <pt x="568" y="500" on="1"/>
        <pt x="568" y="461" on="1"/>
        <pt x="561" y="454" on="0"/>
        <pt x="539" y="442" on="0"/>
        <pt x="523" y="437" on="1"/>
        <pt x="523" y="57" on="1"/>
      </contour>
    </TTGlyph>
    <TTGlyph name="afii10091" xMin="29" yMin="-148" xMax="905" yMax="500">
      <contour>
        <pt x="29" y="0" on="1"/>
        <pt x="29" y="39" on="1"/>
        <pt x="57" y="55" on="0"/>
        <pt x="95" y="63" on="1"/>
        <pt x="95" y="437" on="1"/>
        <pt x="75" y="441" on="0"/>
        <pt x="43" y="453" on="0"/>
        <pt x="29" y="461" on="1"/>
        <pt x="29" y="500" on="1"/>
        <pt x="284" y="500" on="1"/>
        <pt x="284" y="461" on="1"/>
        <pt x="276" y="454" on="0"/>
        <pt x="253" y="442" on="0"/>
        <pt x="239" y="437" on="1"/>
        <pt x="239" y="57" on="1"/>
        <pt x="379" y="57" on="1"/>
        <pt x="379" y="437" on="1"/>
        <pt x="366" y="441" on="0"/>
        <pt x="339" y="453" on="0"/>
        <pt x="328" y="461" on="1"/>
        <pt x="328" y="500" on="1"/>
        <pt x="568" y="500" on="1"/>
        <pt x="568" y="461" on="1"/>
        <pt x="550" y="445" on="0"/>
        <pt x="523" y="437" on="1"/>
        <pt x="523" y="57" on="1"/>
        <pt x="663" y="57" on="1"/>
        <pt x="663" y="437" on="1"/>
        <pt x="637" y="445" on="0"/>
        <pt x="618" y="461" on="1"/>
        <pt x="618" y="500" on="1"/>
        <pt x="873" y="500" on="1"/>
        <pt x="873" y="461" on="1"/>
        <pt x="859" y="453" on="0"/>
        <pt x="827" y="442" on="0"/>
        <pt x="807" y="437" on="1"/>
        <pt x="807" y="57" on="1"/>
        <pt x="905" y="57" on="1"/>
        <pt x="904" y="9" on="0"/>
        <pt x="892" y="-101" on="0"/>
        <pt x="885" y="-148" on="1"/>
        <pt x="846" y="-148" on="1"/>
        <pt x="792" y="0" on="1"/>
      </contour>
    </TTGlyph>
    <TTGlyph name="afii10092" xMin="3" yMin="-4" xMax="613" yMax="500">
      <contour>
        <pt x="320" y="57" on="1"/>
        <pt x="329" y="55" on="0"/>
        <pt x="350" y="53" on="0"/>
        <pt x="362" y="53" on="1"/>
        <pt x="405" y="53" on="0"/>
        <pt x="456" y="98" on="0"/>
        <pt x="456" y="160" on="1"/>
        <pt x="456" y="188" on="0"/>
        <pt x="442" y="224" on="0"/>
        <pt x="419" y="245" on="0"/>
        <pt x="388" y="252" on="0"/>
        <pt x="371" y="252" on="1"/>
        <pt x="358" y="252" on="0"/>
        <pt x="333" y="250" on="0"/>
        <pt x="320" y="247" on="1"/>
      </contour>
      <contour>
        <pt x="380" y="500" on="1"/>
        <pt x="380" y="461" on="1"/>
        <pt x="368" y="453" on="0"/>
        <pt x="338" y="442" on="0"/>
        <pt x="320" y="437" on="1"/>
        <pt x="320" y="301" on="1"/>
        <pt x="337" y="303" on="0"/>
        <pt x="393" y="309" on="0"/>
        <pt x="433" y="309" on="1"/>
        <pt x="515" y="309" on="0"/>
        <pt x="613" y="234" on="0"/>
        <pt x="613" y="159" on="1"/>
        <pt x="613" y="119" on="0"/>
        <pt x="581" y="58" on="0"/>
        <pt x="525" y="17" on="0"/>
        <pt x="448" y="-4" on="0"/>
        <pt x="403" y="-4" on="1"/>
        <pt x="389" y="-4" on="0"/>
        <pt x="341" y="-3" on="0"/>
        <pt x="286" y="-1" on="0"/>
        <pt x="232" y="0" on="0"/>
        <pt x="213" y="0" on="1"/>
        <pt x="110" y="0" on="1"/>
        <pt x="110" y="39" on="1"/>
        <pt x="138" y="55" on="0"/>
        <pt x="176" y="63" on="1"/>
        <pt x="176" y="443" on="1"/>
        <pt x="116" y="443" on="1"/>
        <pt x="67" y="305" on="1"/>
        <pt x="28" y="305" on="1"/>
        <pt x="24" y="324" on="0"/>
        <pt x="15" y="375" on="0"/>
        <pt x="8" y="430" on="0"/>
        <pt x="3" y="481" on="0"/>
        <pt x="3" y="500" on="1"/>
      </contour>
    </TTGlyph>
</ttFont>
